<mxfile host="app.diagrams.net" modified="2023-12-18T09:24:14.853Z" agent="Mozilla/5.0 (Windows NT 10.0; Win64; x64) AppleWebKit/537.36 (KHTML, like Gecko) Chrome/118.0.0.0 Safari/537.36 OPR/104.0.0.0 (Edition Yx GX)" etag="VEyqw7MHt3vWJo7JOaqp" version="21.4.0" type="github">
  <diagram name="Страница 1" id="DlRLFFugPbvO089JqwAA">
    <mxGraphModel dx="2087" dy="854" grid="0" gridSize="10" guides="1" tooltips="1" connect="1" arrows="1" fold="1" page="0" pageScale="1" pageWidth="827" pageHeight="1169" background="#ffffff" math="0" shadow="0">
      <root>
        <mxCell id="0" />
        <mxCell id="1" parent="0" />
        <mxCell id="tFcRdSrbqhkbJn0zH4gM-3" value="&lt;font color=&quot;#050505&quot;&gt;Алгоритм рекомендаций&lt;/font&gt;" style="rounded=0;whiteSpace=wrap;html=1;fillColor=#eeeeee;strokeColor=#36393d;" vertex="1" parent="1">
          <mxGeometry x="302" y="318" width="120" height="60" as="geometry" />
        </mxCell>
        <mxCell id="tFcRdSrbqhkbJn0zH4gM-4" value="&lt;font color=&quot;#000000&quot;&gt;Рекомендации пользователя&lt;/font&gt;" style="rounded=0;whiteSpace=wrap;html=1;fillColor=#eeeeee;strokeColor=#36393d;" vertex="1" parent="1">
          <mxGeometry x="307" y="104" width="120" height="60" as="geometry" />
        </mxCell>
        <mxCell id="tFcRdSrbqhkbJn0zH4gM-5" value="&lt;font color=&quot;#050505&quot;&gt;Администратор системы&lt;/font&gt;" style="rounded=0;whiteSpace=wrap;html=1;fillColor=#eeeeee;strokeColor=#36393d;" vertex="1" parent="1">
          <mxGeometry x="483" y="318" width="120" height="60" as="geometry" />
        </mxCell>
        <mxCell id="tFcRdSrbqhkbJn0zH4gM-6" value="&lt;font color=&quot;#050505&quot;&gt;Профиль контента&lt;/font&gt;" style="rounded=0;whiteSpace=wrap;html=1;fillColor=#eeeeee;strokeColor=#36393d;" vertex="1" parent="1">
          <mxGeometry x="522" y="121" width="120" height="60" as="geometry" />
        </mxCell>
        <mxCell id="tFcRdSrbqhkbJn0zH4gM-7" value="&lt;font color=&quot;#525252&quot;&gt;Пользователь&lt;/font&gt;" style="rounded=0;whiteSpace=wrap;html=1;fillColor=#eeeeee;strokeColor=#36393d;" vertex="1" parent="1">
          <mxGeometry x="114" y="104" width="120" height="60" as="geometry" />
        </mxCell>
        <mxCell id="tFcRdSrbqhkbJn0zH4gM-8" value="&lt;font color=&quot;#050505&quot;&gt;Обратная связь&lt;/font&gt;" style="rounded=0;whiteSpace=wrap;html=1;fillColor=#eeeeee;strokeColor=#36393d;" vertex="1" parent="1">
          <mxGeometry x="129" y="255" width="120" height="60" as="geometry" />
        </mxCell>
        <mxCell id="tFcRdSrbqhkbJn0zH4gM-12" value="" style="endArrow=ERmany;startArrow=ERmandOne;html=1;rounded=0;strokeColor=#0B4D6A;entryX=0;entryY=0.5;entryDx=0;entryDy=0;edgeStyle=orthogonalEdgeStyle;endFill=0;startFill=0;" edge="1" parent="1" source="tFcRdSrbqhkbJn0zH4gM-7" target="tFcRdSrbqhkbJn0zH4gM-4">
          <mxGeometry width="50" height="50" relative="1" as="geometry">
            <mxPoint x="387" y="349" as="sourcePoint" />
            <mxPoint x="437" y="299" as="targetPoint" />
          </mxGeometry>
        </mxCell>
        <mxCell id="tFcRdSrbqhkbJn0zH4gM-13" value="" style="endArrow=ERmany;startArrow=ERmandOne;html=1;rounded=0;strokeColor=#0B4D6A;edgeStyle=orthogonalEdgeStyle;endFill=0;startFill=0;exitX=1;exitY=0.5;exitDx=0;exitDy=0;entryX=0;entryY=0.5;entryDx=0;entryDy=0;" edge="1" parent="1" source="tFcRdSrbqhkbJn0zH4gM-4" target="tFcRdSrbqhkbJn0zH4gM-6">
          <mxGeometry width="50" height="50" relative="1" as="geometry">
            <mxPoint x="336" y="243" as="sourcePoint" />
            <mxPoint x="409" y="243" as="targetPoint" />
          </mxGeometry>
        </mxCell>
        <mxCell id="tFcRdSrbqhkbJn0zH4gM-14" value="" style="endArrow=ERmany;startArrow=ERmandOne;html=1;rounded=0;strokeColor=#0B4D6A;edgeStyle=orthogonalEdgeStyle;endFill=0;startFill=0;entryX=1;entryY=0.5;entryDx=0;entryDy=0;exitX=0;exitY=0.5;exitDx=0;exitDy=0;" edge="1" parent="1" source="tFcRdSrbqhkbJn0zH4gM-5" target="tFcRdSrbqhkbJn0zH4gM-3">
          <mxGeometry width="50" height="50" relative="1" as="geometry">
            <mxPoint x="636" y="380" as="sourcePoint" />
            <mxPoint x="472" y="262" as="targetPoint" />
          </mxGeometry>
        </mxCell>
        <mxCell id="tFcRdSrbqhkbJn0zH4gM-15" value="" style="endArrow=ERmany;startArrow=ERmandOne;html=1;rounded=0;strokeColor=#0B4D6A;endFill=0;startFill=0;exitX=0.5;exitY=1;exitDx=0;exitDy=0;entryX=0.5;entryY=0;entryDx=0;entryDy=0;edgeStyle=orthogonalEdgeStyle;" edge="1" parent="1" source="tFcRdSrbqhkbJn0zH4gM-4" target="tFcRdSrbqhkbJn0zH4gM-8">
          <mxGeometry width="50" height="50" relative="1" as="geometry">
            <mxPoint x="447" y="154" as="sourcePoint" />
            <mxPoint x="542" y="171" as="targetPoint" />
          </mxGeometry>
        </mxCell>
        <mxCell id="tFcRdSrbqhkbJn0zH4gM-16" value="" style="endArrow=ERmany;startArrow=ERmandOne;html=1;rounded=0;strokeColor=#0B4D6A;endFill=0;startFill=0;exitX=0.5;exitY=1;exitDx=0;exitDy=0;entryX=0;entryY=0.5;entryDx=0;entryDy=0;edgeStyle=orthogonalEdgeStyle;" edge="1" parent="1" source="tFcRdSrbqhkbJn0zH4gM-8" target="tFcRdSrbqhkbJn0zH4gM-3">
          <mxGeometry width="50" height="50" relative="1" as="geometry">
            <mxPoint x="377" y="174" as="sourcePoint" />
            <mxPoint x="199" y="265" as="targetPoint" />
          </mxGeometry>
        </mxCell>
        <mxCell id="tFcRdSrbqhkbJn0zH4gM-17" value="" style="endArrow=ERmandOne;startArrow=ERmandOne;html=1;rounded=0;strokeColor=#0B4D6A;endFill=0;startFill=0;exitX=0.5;exitY=1;exitDx=0;exitDy=0;entryX=0.56;entryY=0.013;entryDx=0;entryDy=0;edgeStyle=orthogonalEdgeStyle;entryPerimeter=0;" edge="1" parent="1" source="tFcRdSrbqhkbJn0zH4gM-6" target="tFcRdSrbqhkbJn0zH4gM-3">
          <mxGeometry width="50" height="50" relative="1" as="geometry">
            <mxPoint x="592" y="216" as="sourcePoint" />
            <mxPoint x="414" y="307" as="targetPoint" />
          </mxGeometry>
        </mxCell>
        <mxCell id="tFcRdSrbqhkbJn0zH4gM-27" value="&lt;p style=&quot;margin: 4px 0px 0px; text-decoration: underline;&quot;&gt;&amp;nbsp;Idgользователь&lt;br&gt;&lt;/p&gt;&lt;hr&gt;&lt;p style=&quot;margin:0px;margin-left:8px;&quot;&gt;field1 = value1&lt;br&gt;field2 = value2&lt;br&gt;field3 = value3&lt;/p&gt;" style="verticalAlign=top;align=left;overflow=fill;fontSize=12;fontFamily=Helvetica;html=1;whiteSpace=wrap;strokeColor=#000000;fontColor=#000000;fillColor=#ffffff;strokeWidth=1;shadow=1;" vertex="1" parent="1">
          <mxGeometry x="74" y="450" width="160" height="90" as="geometry" />
        </mxCell>
        <mxCell id="tFcRdSrbqhkbJn0zH4gM-28" value="" style="shape=image;verticalLabelPosition=bottom;labelBackgroundColor=default;verticalAlign=top;aspect=fixed;imageAspect=0;image=data:image/png,iVBORw0KGgoAAAANSUhEUgAAAMEAAACvCAYAAABEvLq2AAAAAXNSR0IArs4c6QAAAARnQU1BAACxjwv8YQUAAAAJcEhZcwAAEnQAABJ0Ad5mH3gAAFBFSURBVHhe7Z0FeFTH2oDfZJONuwvxhEAILsHdHarcOnX33v63ciu37t5S2kIpUlrc3d0hCSHE3d13s//M2Y3gS0tbWvblOU/Yc+aMnflmvu/M+WbMdAJMmLiGMTf8NWHimsUkBCaueUxCYOKaxyQEJq55TEJg4prHJAQmrnlMQmDimsckBCaueUxCYOKax4gZ4yySd29kwYuz2SF+1elPngcPAjsPZurT9zLEA6xVhtMmTFzlGCEEiRxbvohPps2m6Lbraetri6ul4VIzWcRvSKVM25bRM99hmj/YWRgumTBxlWOkEKzi67s3Erz4O6Z0cifEznCpmYMsf2UhW7Y1EnmWEGjq6qguLqEaW1xcbbGyunqko76ykuqKGupVtri52aJSmRmumLiW+OOEgCrKS8rIS8slNyGVAqEuBbX1xjvQCycXx1YjRR1VxaWUFVcIQWmNBWobe5w93bC3qKUitxyNhQ3WZ9zbgk7XiKa2hNLyCqpqNGg04qSZMHnUdji6uOBoo9araCIcmkoK80vJO51OXmYJFWoPIjr44ObnhaOdtQinpVFTTUlmIRUaLTIqPVJI1Ni6euDkYI2dHBEN8ZWVllJeVU/d+dI1a0BbX0F+Tim12ka0MqpW2Lr6iPjsRHyNNDY2UFlSRHWduYhaJ6Iyp9HKETcXayzNzQxG3MXz5+jpIcqhwry2irL8Gix9PLFTq8T9+lAmzkIKwcU5pTu67CPdg57jde/uLNAlVRpOn8EB3bL/Pqd7csgzum9SdLrKBnEqZ5Vu9nNTdcMDo3QjB9+nu2/wSF1U4HDd1Odm61bl6O/Sc1i3+s17dFOdnXXOZxxRupgJL+pmpdXqKjVbdTNuekD32jn3tqCpLdWlbX1J99QD0bqoKEMcHr4650H36h5dckK3r7gpoChA2izdixNidMMi++smDr5dd1e/oTofj+G6R7/fbQiXryvNWaB7KTJYF31GnjzEMUg39c3dutVJSmzN8c14KkY36ELpVqXoCve8pbspPEAXdEZ8+mPqm6sN8VXpKksP6Wa9dL3utinTddOGT9NNn/KA7vqXtuoOldaKq01cPH/6ciTpTqz+UvdU+E26T/YU6lJabjZxFn+AbiL7uQJ2LVzA0RIXgu5/k/uGhQllqJqxG75mWcpRFiwMpcsjfcTYACoRvqHODvfgEdz1lDCqPYVRbZ7Intl7OZ1ZS53oaNFpqKuqpqa6nobzjVu1OVQkbuCTV46iG/UQj40PI0SN6C1ryE/bwLyfFvFrYTlO07sQUJHEpk++IsV3GAPGDWJ8Fy/Mq/MYvuw95uzaznpXJ0ImuKESvXBtuRd973yMqAEdaOcg4muoJj92Gd9vWs16Zx0h97fDt2Qvcx/+nIToEUx+6TlecBMBRbqIdFeIdLfJdO/oTHDkDfx7Zgxl9fFsn72VI8cbCTCU1y+sE/5eUJp8iENLXmW91e2MubstUR5q6gtOknB4Ds/N1PLSpC70C3EWBdYpo8SZ+Sulqug4cx/chkO9Bq1Oi7ahjpqyKuq0OkRwExfgyg+QYjin5Dj7dxdSpgqh84jBdOvejnbduzF4RGdCVGUU7t7P8WJokA1cwQo7l0Ai+w5l0OChDB3ag44hXrgarl4SlQ1WruH0mXIz40eMZawSx1AGD+pH3zAratIzyZSqQ32ZkJdjbNhYhU1Qd7oM7kvn7h3o0Ks7o8d1wjUrgYxjp0gql5FK1cIRv8hudB9giG9wf/p2cUVnXkNFba0IocbS2o+2o8YQ5WyBec4hDh9ex7p161m3aTe7dhwXgizSFfmzdAqmU/+BDFDKFkhAq/J2DnbH3baQoowk9i0pwSm8B1HdO9Gxe0c6dY+kR7iakiV7ScooolBmTeHs/PVnQL/2BFpZYq0PYMJI/gAhECNBWSpZeW5Y2QUQHmxvuAD2weEE2FnhlpdFqmhoQj2+DMrJTdzPjmULWLBAf6zeup+T2UXUWDpj4xfDlIduZFAnkW72IfavXsDChUtZsSUPc+8gAgJ8cWmoQlOSxensYHx8vfHz1jcXc0tLnKI6ESJ0e4v8QnKr5FmZuWKSD2xiw2J9es3xBfgRFOKJuxAClaUnbaL9UFeXUZCWSlJ2GmkZWaRVNVKuNTtH/78g9XmU5qdx5JiOipPb2Lp6kZLmotVb2XayAt2xI6RJO6beEN4oxMhZl82JjUtY+au+DItXrGHb0WSKG4TdZAh1rfMHmkrO2NoI41BoB804CKPWxlZc+S0UkLh7MXPeeoEXXviPOJ7jfx98zqJth0itav04K8g4uJIlH73AS/99k49nZ2Ab2ZGO0eF4KS1SFlkYjg5WIn/yt0Aass6uuFiqhUHfhAyczYGl3/D1/2SaLfE5CqM41MsW87paoZKcZM3rb7Euyxevca/xygfzmT93FvM/vZfxHfyNH82qq6mryCOz8iTrvnmD91/Rp/nCa5/w9uz9lHnUCbVGjJ5nvj24BEKdFPFtbI7vef772mt8/N1C9uWUU94yFF/T/IFCkENpeTGiY22hMJ/i8lJx5bcQRO+bXuT9NQc4cGCfOJbzaJjocbet5aetrRPxIHri07zwiwi3bzMHlk8h7NBPbFuwlK0F8roUmFQKCqtE/uRvgRy9sjPJrqkRfX8T8tVPOyb930xhA8g0W+Lrf+gbtn0zn5/ja4TeXUxG/Aj6jxrM4P5tFDvnN+HkhJ17GB1cB/DQzA0s3WFIUzl2i+NHXpjSiWgnQ3ijcMBOxHdfc3yb+PH1m+kS/wWfLjxFQlatIdy1zZUXApVoPN7d6BBehq7mNMfiiwwXoCj+GKdrdJSFd6Cbt2hm8pVlUaFojCrKrb0QGgqqC840q7BQ22Dn6CTai6M4HLBWNQoTpJ7yjOPEzn2KqU/NZdbWXHLrbLBxcMLe3pGaSjUNVVItqEdj5YLavxO92yWRlZFKSkaFErO2vo7cAztJsPdGHRpE2+buW4VajGb2SpricHTBySEIS605GhFfvTA4ddQIGdrKqZREcvKrMKstpfb0DlZ+/C17T8tXw0Zi1gY3bz869ktg0c4EEit1mIs0raozyFz5Kne9uoyNpwqolqZArRC+3HzStH7YutmeOdqegRlmZhZYi3pwMNSbvY1Q4bRiBKtvFOqoyVqWXPm3Q6LSsQ6lz9gY0lYncmTmB3wV1xk3ijiy+wipjh2JGd0Rv/rDrHtvGcdzjnK0xBu3mBiihYp+zmR0M/mc2vkL8a+fYqe9HMYrKMtxxb1rF3p0C8CxOprOB05yYu4xTvwqGpBQdRp1WioaSymN7kSvvh1o72yPjVk7xt7aj5SN69jyTRZV7fyxqc1m96Y0LDvdSreYdvhZyfFCqkOZ7Fv0JQknlrNYqk6y0VQ0UuU6mHZ9+tLHT8Rn244xD3Zlc+5qln60i7UaUYiKWlSlVmjq1ZdhpNrgGhxNv9uv49Smjaz9cjPbLM1Q1VVRVV2Bc4SwaeyKSVy/hcOrtnC8PJPc3gMJbOOCzwUrrYbaynjWf/EKiR5CDVXXUFdVRrX/SEb39sHPVW0Id22j+q/A8P8L0CD0ygZRmdYEDIshxNXqPJNVtVQWNqCy9ySwTycC7azx9HKgsbKS0qQMoRLVUZabQ06DJ5EDBjN6RHv8dRkcWbKNuGIt1h270WdkX/r7uhiGptbxRYv46qjILKK8vpqKmjLKysrFUYtr9DAGDBnIwO4ReHhFEGVTQFF6Mmk5OeSWlVFeWUWtqy+dRo5hSEwHoWrYoLKwwSvAjbK0bCFExRQWiDwWFJNjHsKQ68YysIswmtUa5fVqiUizgjoqRcMpE/GVlVdSVutK+LDJDBnala6BdlgIozyovTt1RdlkpeWQWqARTc+byL69CfQMpWPPCMLbiwaslEvSumwdRdlETyR7d4GlnSOuAeEEVYhRKi2TjJwCKnW2WIYN4o6pw4j2q6P42DGO7Usk1cKNDlPHMaJTEP6ivqXYNmrqRZ51+PbrTlCg6PXrKykvLKWssZrqSlmGKnS2PoQNup6pw9rjJ+yiP+Ad+d+OP3zJlZqiInJOxAsT05d2clbWrcka/espTUsjJzWfMisfunb1Qa02ffV3LfKHC4GMXqfV0ij6ePltjpmZodu7CtA1ys8UGoVeb46FxR/4jsDEVc0fLgQmTFztmLo/E9c8JiEwcc1zSXWouLhYOUyYuJpxdXVVjt/CJYXgrbfeUg4TJq5m/v3vfyvHb+GSQvDKK6+wdu1aXn/9dcMZEyauLuQ3ViNHjuTll182nLk8jBKCgwcPsmzZMsMZEyauLiZMmEC3bt1+sxCYDGMT1zwmITBxzWMSAhPXPCYhMPGPYffu3dxwww0UFRUpxvKsWbMMVy6OSQhM/CNYt24dK1euVAzkd999FxsbG8LDww1XL45JCEz8IygvL6eqqgovLy/y8vKws7PD0dHRcPXiXEEhaKCuqpT85GxKarU0NNZRVZRLVmIiiWccKSSn5pBVWEZlnfRuMtxuwsTvYPDgwXTv3p2vvvqK+++/X3FL3bx5s+HqxbmCQpBO4rZ5vD3iSX48WkpWbTzbv3mRR0TGZOZajrEMHvcsD3+4hPWnaig2ubmauAJ88803LFq0iB9//JFbb72VKVOmcO+99xquXpwrKASNimdTbUW14nsrXRsb6u3xDB3NPV8tYf6iJSxZIo8P+ezVGPqplvHuI0/z7foTxOldfU2Y+M3cdNNNjBgxgqeeeor33ntP+cph/vz5hqsX5w+2CeSiWgG07T2YAQMHK0PW4MEDGTp0OKOGjGK0/2n2b9/F1sNpNC38cLlUFxaSfTKZ06eL0WiuLt2qPDOT9JPpZGb+1tKZMBapamdkZNC3b1927dpFQECA0YbxFfxs4uyFe9OIfe/8K1VLGmtKKNrwfzwww56A4eN4+JFetKnJJW7dYdJrhD1hCNeCIz4RkYS1C8HPWiNafxpH9p0iNbFAGEUaGlQ22Hq6ERbThZA2HrgpPuTSWb6QxO3HSMkqarWciqQpPl88yRfpJmPRIQrv5nvPRFNbSnn+SY4nZ1JUrKFeLoKltsPSTQh5dHuCHC2xl+XTVFJXmsq+HQnkZgljrcYMnVx/yc+btv16EuRsJcJVUJqdxsltJ8iUt8gEFNRYWHng36Unkd5WOCuuw5U0lKcSdzyB9KIGqs6XbmMRBRnJHN6fRKm43LorsLCyEfGNEPHZiPjqqSzNI/3UKfIqHLDWVaO1dsHGqw2R4a7YivB6v78L58/S2sNQjkZ0+WmkJSZzIqe1kNvi5BVARM/OBIoIm/yn/0jkZxMpKSkMGzaMTp06sXXrVuWv/N2hQwdDqAvzl/lZm6vVeHTpRUT1EXQFJRRoynEt2cncB59ltcacUnsbw0YfUkZrxEPxoM9dD3PX80H4uJVTEbeQWe+uIL7QDd/gEFzrMlh1II+eT7/Av6YMZHCAtSicfHyxrHv3VRZsTyRJWdH67PjGM0C3R6Q7E4eXX2TYdUIIzv4iV1tLeXYs+1Z/wYwdR0k6VU+1UOEa7dxQR/Rl1LQHuL2vP+3dRXWKBpu5+zvefm4N5v698He3oaYwk72ZjYx672Pu6htAO9dc0g8u5stb3mazjxcqK/2K0Y1aa8wtw4i+702emhpEjwBzGkuTyNw5ix/nrmGnSLeoSgQU6dqIdMeKdG8W6UZaZpB+YAlfvfQzCaJsBdkVaC31K3i7u3sy/IXe3ONgg502k5QTm/hl3jpOF4fi2ZhHtZ0/dp0HMtmlNz1dbbAyl632fPmTLz4shMrbjntFJ/evyBJKty5i/g/LmHuqGBtRdDOzWqqKHPDrPJZ7ZnZWOj6LP6mFNRnGn376KR9//LHyV6VSGSUEf7A6dBHkAkO+/vjYlGFe1rRIl2HBq/+0WvDqwC5xfMVz/TuIK5JaaipOseTdL8hqdxOT3v6cz757g/9+8wE/P+dM1p6trNl8vNWanZIg+tz4gmHhrrPjM4Ly4yRsWcUn71TS5d4V/LhKn7cdv37IJ6MrWfjIJ6zYn0i6UOqyEvax5MuF1Ez7hMc+fpf3vnuPdz9+jE+m1bDwyyXsS8gyqH6GhbG+a1loa8e6r/niGXf2vPc5m0/I+NJJ3L+CTx5ZSOXoT/jw1x1KuAMi3aUi3XiR7naZrmM0nSe/wI+ibLuVso3lLkN5d2xczWujPQgTgp2+fT7bV/zKsehXeOuT//DGd5/x0u1tiKhYwPRPDlBc0XqNx7Pzt4h5H9zDaHFFWUYmfhOr12WwS3MjXy07wK59MswcPrxvFL3l9T+Zq8QwvlxEj2NujrmZ6JmFRtailKlQW9ti5+CovOfVH7ZYW6r0ma0tpi79sLAjfPEKiBB6nxe2dqKXc3YmTOiDYSUZVCYk0WrNL4EKlVqoS81xtorPGOzb0n7UXbwx93Vu7epHmLs+Hgd7W2zFyFJfVUuDsEcaKzIoSE5j98lQuvWIwM/PReTNFhc/PyJ6dCP05G7SkgvQr/mlXxjLys4Be0O+HBzssBU6lSbQHSdboTbhS1CPKdzzzSsMSl/Eyk/v5p57JjHptke59Z317MgtpUSma6Yvn11z2dSoDeV1cHDARq5fZHaKtNgqsuKD6NUzGCcnO2xE3jxDQwhxcsdzxW6O1dYp6pSes/Nnj73Ik+ymFA1Hq0HT0CjGWrW+XpUwIk4ry79EvbiKDeOLIJc+LC6ipN4Wna29qEDD+UuhrRf2RAWF5cF4e7ni6a5fecrMwhLr0AgCzLXYVlZxRqd2SfQLbe395Qs+fekZnnnmGf79fy/w0bz1HMspptrSESffUDr3jSLQqYLk1V/z7evP8J9XvuSbpeVETBpNdIAP7g3VQmXQUVYTRliwvRAS/RIuKnvRkILFuZoydFV1VDfIs3JhrDjWffYyb/5Hn6YS3+ISIgZFE+7jjJNQBesrCsmJ38vxfFfsQ/oRM2QMY8YMY9jQTnhaCR1dScEIyjPJy8/gyJGDbP7qRV58/lklzf976zt+ED15UU48iQUaKo2tN/8+wghtz0DXOFa+IfL+nCzDR3wvbLoEQ5A/kybDuF+/fuzcufOyDOO/TAh0Gg1Vp+JItXfHzNdbWYTq8rBAJXduaSqB7J6EAqoyE72e/sxlIIeheqpKCyjIySIrSxh8KcfZs3Q26/cncLqwdcvQUlteSGFuFvkFpdRpbPBzNsNSyJGQT4HIiOhBLYRF2Ly6jPiPmcibNBKbTknzVdcobI2CXPKyZZr6+BrqLGlXl0hlYQVFFWUUpiSw48fDFIUNJWbig9xz39M8/djdPHRzH0Jt1VgZYrskotORu+DU1gmjV+Q9R6Qn08wqFmV3D6TPxA74qC1RN4/Il8CrCzExIfQKLGT1qm3Epoo6yyqgqFx0BIYgfyZNM8YeHh7k5+f/VTPGxiI3j6ikLD+Vg5v3kRnuh3P7IIINVy+JuQozuXq0dQp5BWUUFcteXC9UDWnJZIohulz0kMKWU9QsGhpoaBTFFDaIxQWlQw7gIQy5+2VenTGXuXO/59tPn2No9Tp27xDCcCKbssIckoXBWVHrRueb/sO/P5vLnO/+xwePh1M95xN2HBDCUiNUAbUGa4tkUtJrqKrWv6dprK6iJj2FZAtrNGoL/RqsCNXBsSvXvfI1H30v0xTH92/y+TORuMx5g3XrYzmUW0ltVSMlud3oNz6KcD+hkmhFeapEQy4ookaum6SkYATOYqRyC6Zr52FMfvVbvvrxJ+aINH/87iu+/ORV/vPSPYwNtcNdSpVWxCuOBjO1Ytg2dzRnUIeZrpJ6Zy8ahjzFazN+YNbc//H0dX3paAjxZ9JkGH/99dd/5YyxsZRTnLWBtXOe5NaPSvELbEfvTm0M14zA2g2rwK4M6JBMVkYySel6M7Oxvo7svds46eiHdXgoUXJ5aMNq0zk1zjQ6uYpeQgl62ZQfX8LiT55lyKNLWBXXMstdWyOizxJtRi+H4BiIR0gbeoacYO+hdAoMAWuLC0g/tJcTIT1pE+JB4AU7KLk6n784WktrLnX1y9m9P1kIvIivPJ2snStY+O7XHKqovIz5lXYEtROdR5tDfPHLAU5V1yNz11S2EU8u4WipUNFk0PJSqgqqyFAF4eNrgc15F1SNZ/vqdWxfm864aZMIsbX5SzcH+T2G8R9swxSQengDK6cdYI7oYfSbQzpj5eiNZ9uB3PPWEIYNlAvlXoYsmtmIHrQtEx+/g7jPf2HFy7uJDxWGXl0GG3YX4XfL7Qwd6ELFnlm88X/fsb0uj4qQ67mpZyCRLbrIWchXqQms/OAxlvzohKPQbczMddh5TGTk8G4MivTAJi2EF6vWs+aJufwgv5MS7VRrZYHW0x3/x+9leL9w2js6Ydm2BxPvHseej57lywM9We1hQ01BKvuSLBn3+ER6tPXFySyTbCqF+rWbHx6ZzK/2ltjIdq+1QqXzJmDiO1w3ogs9/YXA2wzj3rczmbv2Wf5vlhlVlSJ/amt8PQcQZC6NZ2NREdBvChPVjpj98jnPX/eq0ts3WjngHt6Dx6cPItQuntX/+Z712/YSb+eFwx130tVBjct56q1o1wb25JiT1m4Uz/cSwqVurer9+UjDuHfv3s2GsfyitKKigttvv90Q4sJcwcmyEgqSUji2Ng3HSaOI8CincP9BjuyKI8UQQo8D1o4+eEcEEd2+HW1cLLFVrDuhS1ZmsHfOcdR9ehMY4YeP0rXIbjaLw4tjqXLyx6dXNKE2wrKsiGfr2kPCICqlRrRInRizG+yciB45mOgIWyyy4tm/eBeJ4m7Hjn3oHt2OaB+5LO7Z8YXir0sT6W7iZGVNc8+qsrTCI7w7PXu0J8DDCVWZ0Hfj9rPrQCLZdUK3loGsrbH09iU8ug892rjhIQvSUCYafRxrlhwgr1CoFBpzGoXRbu7uRXdRL+2FUDhZyrpqyZ9iJyuI+KxEfN1FfO1FfE76+OqK4ti76wAns+sor3UQuq4bgf5OlIibI8Z1JjjUw7Dg73nq6gxbq5bqgnTS9u9jU2IBNQ0ivIMXPqEd6N+jI34OWRxbup0TSTmUufvg17U/o9r5YaPob2c+X9/yfSSk11FoFcrIgaHiqUq1Io+kXQlkZOpwHTlQ2eftz9gxU06WSR8CqRJJO0D+X/6Vv/v06WMIdWH+9o72lbm5FOWWUmnpRkSEG5ZX0T6lpSkpFJZpUTm5Exz82/bnMXFpWs8Yd+zYkW3btl3WjPHV02J+I/be3gR2jiRKGAFXkwBInIODCescZhKAPwHZ60uHGmkb3HfffUrHfRUbxiZMXHnkW6HFixc3G8aTJ0/+O8wYmzBx5bj55puVGeMnn3yS999//28yY2zCxBXkbzljbMLEleRvNmNswsSVx2QYm7jmMRnGJq55pk2bpqxMLQ3jDz74QDGM582bZ7h6cYyaLJs9e7YiWSZMXI3IEUCuNyRVImdnZwoKCpS/8rf8lOJSGCUEM2bMYMCAAYYzJkxcXcgZYhcXl988Y/y3/2zChAn52URQUBA9e/bk888/58MPP1T+yt+PPPKIIdSFMdkEJv4RmAxjE9c8v8cwNgmBiX8ECQkJpKWl0b9/f7Zv305gYCBt27Y1XL04JiEw8Y+gsrKS6upq3N3dKSwsxNbWFnt741yOTEJg4h/BoEGDmmeMpS0gX+Zs2bLFcPXimITAxD8Ck2Fs4prnKjGMC8mJ286i/37HltQqis6ziFN57AqWzPiUd79awZ5iqL+6FpE28TfmKjGMpSP2ITZ+uYQD2TWUtXiPy0WBoCqJg6vmM/uzmcxauI3j5dBgEgITV4ir3DDW0lhfSMHBn1myMYHjSbVc9mJzfyLa+nrqqmpEhTZwicn0Px1NbS21VeKobVks3YSegQMHKoax/MTnnnvuUQxjuUS7MfwJQlBMRfEWPrnrUxL9omnXu89fsmqxsZRnZHBq5yH278+m/irT1wrj4zmx8wTx8WeuuW3i3MW3LscwvoLfDp29SYc7IaLLL0nayp65T/PM8i7c/Fx3rHeeIvuoOZEzX2eafyzrX5rB6t1aVL1Hc88bk4gSMakpIm7VXFYtWM+W8miuf+1ZRoRpaDy8nvWLVzNrf7o+SQUPgroMYeqz9zPUA/0iVgolVBYd4Kf7PmNzUTl5hrMtBNBjyo1MnDaGvs41ULCRr975lcOJIi/2ntg1lnCs0JrhT9zPmAHRtFeclKShE8uS/5N5jueUPNVMU3y96cRRke5KbO+4jW7N955JbUkSaUfn8/3K7cQl1FEhV6p28MKu/WCuv/NfjAi016+7VJtD2el1vPPiQvLN2mBrpaa+rpoMnaehXpxEuCySdq1n/n9msV3c0rIWqANWjtH0f/hZburuRKhcnEjEV5m2jp++X8jmuCryzpdufRzHt63is/dXkiwutx53rBzdRHxfi/jcRHzl5AgVeNOvizmY5YeLppA6lzDcuw/ipkkR4sk0raV34fzZOV/8+crFs+644w7Dr/Mjvx1yc3NTvhhdsWKFMhLIv/L3pe6V/LEjQWEcSXu2MmOVlrCpN9C3axgBTk2L3knZKyHrRCZ5p4+QmnuIZcJarhW9b3nseo6c2M/exAKqdx0nu7yBmrSD7NhwmDWHLYnsO45RY8YxblxnQtT1lB9NJqcWGs8Q5wY0dUUk705D596BjkNkeHmMEkckLvm5lCTmCAO+nvrqTPbM+579RdbYduzH0AmDGTSyN709T7Frc+vtpFryXKnxJHjg+eKT6eaLdI+Rll1G+fk0l+o00g9vY97XR6j0Hkj3wfq8jejbnkiLWOa+v5TtCTkUUk1R+jG2/zyXgxaRBPcdwJAJQxjQN1iEO8jcn7dzLL1IhKqmqiif1AP52HYYTJ8RhvgGdaS9expLv1nGniQZXyE5CdtZ+v5cYkV87fuOUMKNE+n2F+nuEOkelOmqXXAN6Eh/UbaxStkqURnKO2bkcLr6W+FoJR/vFg5uXcb22kg6do+ma79eRHlWUJW4mndXnKaipqnw58tfDN1CbC/5fNu2dTPEcXF+j2H8By7DWEzW4c3s2XSYEw4TeWV8T9r7JrLXcLUFVwI6WKMLV5G5agOnXHtQvuUo2VprXLp3xzMpTb/8eF4iJxNKSW3swr13P0Rff9EriYawvFK/JdT5kTLuRfTwGxl2XT9ilB1oZD+0E+uts8mWPzUV1BTEsuaXE2hHvUrfKWOZGmWvbCfV0+MgD844yokDQaT3DKSDXCpUwVWMPv3pdd90JvicFZ8xNAp7Q6425xzDiPH3EhPogKdoVFX5xzi67nN+/HIbceOj6dJOCOjpE6xfmYnbg+8xcnQE3XytqMv2p4NzLDd9sZ4TMUIgguT+UlaobUPpc/ODzaOwEt+GL/jp5aNkFnUTTVFUgFZHVYMz3t4RhLWxQ60zozo3nYr0BA7NqyJCpNu2U0fCO/pwS8eBIt6dWG6tITuoqbxKCQTFHNx/gOM7MjCb/DwTh7nhYmNOZewvrFy1hVdm7+W23r5Y21gY1ig9O396zaFmxcaLPl+5rZYxNBnGYWFhQl2Mx9fX9682jBuoLNjHpk272ZFgxdB7pjMqyE550OfDITyGyA5d6X16LuvWrWDpEUdsAnsweHiYIYTA2hlnZ3tcLCspSE4g8VSCkP40sgpFz2MI8puoK6Mh9ySHTofg69eGQH99xem3k4ohvLoQbVomyS27VxiBHDFqKc3LIP20zGcCpxITScspoqKuAa19GG2H3Mx/vnySCRFi9CnPIDNJlOl0Bhn5Guy83HGwEY2mMoeSzAJOZLWja0df3Fz0FWjl4oZvx660yzpBQWYJOZXyrFxJupLC9NOkJOrTVOIrasSusyibiz1OQkHxaTeA8U/fRHjKJrb+8gHvf/Qqr34wg/dWnOSU6LmV5SWNQZNIRlIFafFO+NkVk5qSqKSZVSXyUavGfcd+jlfWU2qsWXWB51tUZNzWpleZYSzXw8xm28cfs1AozdXXPcqHk3xxblHWz4Mjfm3bMfreTux/53UKfdvTplv/M7dTancDN93Yn1v9tvPJ+O4M6CX3RL6VJ75ZzW5DkN+OHBCD8HS3w7mp42neTspG9p+XiVQD4lnyv+ncMUS/f3NMv0Hc+uI3bEhs2q5JIltINls/foBHxnan34h7eei9Qno9/RCDo8LRr9VtJ7ISjL+PqmV1aGsbVD7+BIs8trxpK6eyeDtf3zWMCf30aSrxvZVNr7Fd6RDgKmq5nKwjq5n75CPMLB1F/0d/Zd7KAxzYsZQN391Hf1c7I/tdQWE+xWWn2LF/Nq+L59FfeR7iGHIH0//3Eye0qaRka6gxVqou8Hy//nq1IcDF+T2G8RVXh7Q1FWQu+Zj9W+3wHzqEG2+IxvqSyyOaYW7rj3vXu3htwQjxgCPx9BLqVGvL09wSN3fx0EPbkNH5fv733DBCnNI59MNuElvbyb8J2WjlrpQ1lMuOR7YEudV+QQ75tbWUySCXhazWMEY+PI0Og4Rh7FBLXWUqe2Z+xbq1YZibuzJRsZb16lrMXf8jYFwpj5cVCKP1IDO/fYPNzvdh3VXGVS16+Axy8rXUuoufUhDqatHm55Ah8tiyr4O9MDJ78q/XnqOfYiyLU7UFQtfew5pvnmVZ/f+oGdMGJzGi5SYNYdzLA+jW3g9vO7m9ki21NmosmncVMQJXN5wdQujRaSqjn72fYcIK1m+0KLHAQu2Ef5QTXhcY/c/hAs83Mqi9IcDFkTPG0hB+/PHH+eijj1i+fLmyDMtfYBjXiOdzmh0rNtAQ2oseAwbR11euV2wEKqEjOwq9u3df2gW54dasfzeRyaljRzh5qoqOk29jxOAhDBkoerggT8OKzL8RtQOWHiFEBSaTnZ1FRk61crqxoZ7iYwc5beWMztebNrLNGraYKq63U7aYcrpgtykbkwM+EZ3p0megGKr70bdXND6abArySkg/vpPdy3/gxRl7OZhhjpV/J6JjBtK7Z1fCfRypT4wnr1AY1WoPnLxdCPc6ydHYfEpK9dPw9aUl5Mce5aRXOC7eQsmRe6+KhqeydBO2Sh969pNpiqNfb2I6BGOVdEKUrZSiGqGKaUqprsikQtOAuU6HhVD3iuIPsHPxWpJEt12jpGAE6lD8g53xCasnSeNHSExfeos0ewRZoy5PZF1cJTqVTu6pIuS4mtryOgrNxbNyFeU9zxa5F3q+gYGehusXp8kwluWWatBfaBjXotEVEV/Tjemj+jKkR4jo564MNVn72HXoNEeL3Jg4Ohpv0dMpBtXvxdJRqKMdGDHWj1nJu9i3HJzSvLGsyeXoqjiqg8fSo4tQ50qPs2vxAWFg7uKklRvtQ7wJuOCsn1Rziknat4FGs3SS7epoqMnhtGUEgUHe+DlqqchMJX57FtbFiRz1VGEtesy62lLysgqw7NaZIH9X3B29cAyLZMgQB77duJgdmq6U+9lSnXWMQ1uzcRhyN5FhXnhZl5FMPQ21WRxf/ysWCXpDW44Y9Tmi0UcMISLYCz8HB5y93OjQv4HY7b+y6rQPbtp6qlKOc/pgDlX1fsbvfCOebECX9kSVZnB4zzJ+afDAW61Ck32MpOwKTjn5U6vNIWGrsBNO7eHQyRzKO3UgzM0Sh/M8uN/7fFsbxnFxcfj5+RltGF9BIVBjZe+Od4cuRAz7N5P7taWrt+FSM9bYu3ng2aYRZ2VPL1uc/bxp8HLSb4R9BjI+F7zC/HAV9kTdqSTy1QGoBwxmdJReKzgzPtH/njGaq1BZOOAe6o+9c9OeyBIZqHW6VljZBTF4+j0ceGEW+xYlkr7VD2dNPtszXJjwkhDmGFfqDy1n8eufsUHc7XP9w7Tt2bTF1NnxiXR1tiJdFft3zGf3DiUQljb2ol7u5J6hXejdtg3qjHB86r/l0+9/YWnTvgiOjthEd2bYY48wtGcwYfZiOAzuwrDbbmLTw9+zJT2ew3Zq6qvKiK8L4c7PhtEl2EUoQjWirmxw8qliw7wPW72BE/HZi/jufJlxQ4Qx7i3icxrCLS9X8tWn37N4aSXZ5d74+oYR020K/UrA314Y5Ia7zy2b/mwT3l3HMMrOBYdvZ/DGx6coFSMN3lF0HDyFZ6cPIMTuEAvnf8uizcfICOtIt+kxdLSzMtgdxj1fGc4YmgzjL774QlmLVP61sLAgOjraEOLCXMHJskYaNRrqaxvQiIZlLXoFC2Vj6NY0oqnXoNWKYdLKSlzXohHhdWYqzNVCNz0juIxPS0OdFnPRTZrr6hE/xVkVVlYWBj3u7Pj0j02P3BZW3C+3ilSrhUCIxtl8UZw/I11RBY0a6uoaKDydTFZyHqVWfnTrIXoTR1v9JnxaWTaRB3G3uaUaS1HBlqombbJ1fEItkb+rRe8vqralcoXdY2EpsiI3HBT3NTai09RT16BR5jeUcFKKxTULS9EQRWbN5W+d3OBP5E3En3PkGFmFWlTufnTs7IOlqBdZx+ZmTXWvz18L4n4zQ3yiDObyecj4dBpRr3IvN1lHsjMSYURZRDJYWFuKujJvpSefXVeG0wrifqEiKp+aaES88pSISyXLaSniEc+3QeSpQTw4ndCLVKLerMRz0HdWxj1fPS25OR9yskx+NTp27Fjeffdd5WvSd955R5kDUYtnfylMq02chaamhtoa8UDMRY/lKB7OOYL811FfUSGERvxHNGoHB+N6yGuB1jPG0iCWyzDKv1fHjPHfEAsbG+xdnXB2tr6qBECiFjq9g6s4TAJwDr/HMDYJgYl/BNIwrhGjuKurK8XFxdjIzszkY2ziWkKOAF26dGHmzJlMnz6dw4cPX02fUpsw8ccjZ4ylj7FcN/e2225j0qRJJh9jE9cWcsZ41KhRzTPG8m3R3LlzDVcvzhV+O1SPpr6A1EMH2b/tKIl5pconByqVJT4+0XQfMph24b64KzOcJkxcGeTbIelSKVehlgvz5uXlKX+NXZX6io4EtaWZpOyex9xlu9hxOJWU9DwlQ7k5WaTHbWXr0vXs3J9EptFz8yZMGMfVYRhrayhMOMT6Lz5jQYofEbf/l/9+O4c5c+bw/cwvePruCBoPLmfN4vVsSK5UdnG/6BD0N0P6/9ZU1Vxz/r+NWi31VVVUVdWjlR8d/kVcHYZx+XHST5xi5e4pPP/GzVw3zF//0ZlApbbHt/uj/Pu5AXhaZzH/p62KA4r86PqfgvT/jd0Ze835/9aKXjd151727kwVPbDR3ghXnKbFt5oMY/kptZw0M4YrZxNoyikvKCUtTYt31zY4qy3O/QCqcjPz3l3H1iN2DPvqBcZ4gq0qgV3fL2TxD+vZZwimx4OgrkO5/tkHGCrC2aiKiNsl7t1wkLhcd/zIotB7IN2GxTCijz9uiv/vCRY/v4Yin060+9dY+jpUilNzeP6b02jaD2bS1C50KFnHWy/8zPGSKs521+h5x5tMHh6AV/oeFr8iepH+fuQeO0SqUOlqvYJoP+R67rplKEH2NvpvW2qzFf9fGV+BWUCz/2+6zoMbXv+34v/ra51J0q49LHvnID7i3ADlnLy5hMrCI8y5dyW2d95O94EuWJ0wJlw07dXZVKauY853P7PpDD/hIdxw1y2MCBKdjnU5JUmHODBvLp9sT6K8eYRywM4lulX+DKeb6+8bVu2KP8t/WnLW8yjdycqflrBsxWm0rm1xp5CEYhVh4yYwSda923meR7OnpHzmWzh8rJHAp+9gKBuZ9d4vbBQqdIEhRBNyxvdyfIz/2hljC0ccfQKIjgnGwyAAhXFrWfvNUzz1lOF4eSYL1m8kqTiRRDEUyG9FhGRQlJ5LQY4K7/4TGT1+IhMndiPcRkPVsRRy6sSQK8Q0c+dP7Dp0ghTrDvQf0JWuA/rTwTqOE4e28NPOTBGPlOVSsmNPkXI6l6LibMqPLOKVTzaTrvbBNzQQbzs71K6RxIwayxglDQvMWqXbO9Ibb/saqopOE7ttNfO3FWIW3o3+E4czoIMt6rhveX/JURKypSuXwf93wTwOW0YR2m8QwyYNY1C/UKIsDzNvQZP/r4wvi9O7Y8ksb6C2efhrUF4ipOwVI2iO9EU2Nlwh2Qk7WPL+POLUUXQYMFrUl6izAR0YpI5j5/tLOJSQLQzFRJL27OTrZRV4dRjO0NGyXvvSM9yBWpFGzhlpSJrqL5sanTdhg2X4pqP182gUz6OY2PWL2RufR2V4f0ZMGsKQSSPoH15JXvxeFq+PpVjE19j6eei/Ajcgn3kKyUp8FjTaBNK+72BGTOhDjzAXNAcLcew4lH6jJhg963sVfUp9Jpo6oSuWSuPYcEI0iNrGchrtSygt0zduPfa4telO5N1PMs0f7KTvcEWT77B8UoXErt5GckMUHuMncUM/Z+Wu0h3v8uHyOLblenBj30GiNzJQkUXB4a2s27OWLRXhTJw2nnF9IgiVdpJzDBPvjxH/kWmo2dLQ2CpdeXMix8TjM7MwxzJECMC/hjKkvS2NyZs4sPA9Hpy3hyGhPoS468hNjGX9qhb/364G/98o5xOK/29ss//vlUSjdB41WuknHE6ovxBOxU+4norUkxyaX0XEhI60tc0mJzGdzWkBfPzR/Yzo5Iynwa+3ernBr/e8uBLY+Wx/4lbPQ35lV5XAbtHQcyx70vnmu5qfR0//ND6cc4p963eTMC6MbsYsMGUucuIYzYDrxGFYsaR6uZbgmx5o9pU2hibDODQ09GrxMdbj3WUKU57VG8fK8cN7PH/bcHp7qLEUZTfqyxydMKEbjhB/xIKKbDV2ulxOnjypHLk60bNnV2BxJJ4jMpgiVHVUnd7F3oUL+XxOPn3uf5AxMWGEGVcfBuywsY1kqshrh0BPIaL2OHp1oGP/8UQciCU7t4SsslxKslr8f12b/X9dW/x/s0rIbe3/m5ZI8il93k+ePE3i6RyK5JeUyp0SY8JJP+H+jHtK7ye87deP+PCT13n9o2/5YFVCi5+wsMPsnFxo49JAeUaSIb5kUjKLlM+2f7MJ2yhyUXCCU6nOqGyCiWqrFwCJc9sogm1UOKee4oQwjRq0llioG9Dq6qhu9cJAI794FQZ1S7l/P3+fGePCWPEwajmVF0SAn96N95KIyiI7k5yaOFYueI2nRhl8WeUx6ileW7CSuJocMoV6JYNCKrt3n2TJkgTq6mPZtjeNgqIrZbDJB5lCfmEVZYoDgMH/11eFTZMnnPiPyvd8/r/bFP/fiQb/3+7dhzNo9IvMLigjxxDKuHB6P+GfnniYmaWj6f9YKz/hmfcxwFUIrAzWZgDdx17PZ9cXsubRUUxV4pvMzU8KnV9c/v014oOzkyuezcOvwN0TVydncUUiH64fXkF5FNee4khsywuDwsJ8Ustal/v383sM4yv4diiO48tn8/SUr9hcWCnMuXMpij9CYg2UhXeih6/orIwRAikpXj54WoczdMJjvDRnFatWGY7Va1m3YR7ff3gfY70wOM60oduk23hm9pu8+c4U7H+dwY4Dp4hr8W7/HUh9qQ3urrY4Kl6jBv/fPC21Ta1K/Eebp/f/1TtqSqT/by9ueX8+3y1uyv88Fs55huvcHGhxIDQmXJlQMSEveRjjp/enWztfvGztsLO1wdZG3eIzYS6E0MES/1BbTobcxG3vCHts1bd8/vK/GCIuG+v6e2HyKK8opbDY8FNSXEhpRdNCZ/Jh+NL/xqn0aZNO4heTld5aHpMf+5LPtyWTpoS7Mtxyyy2MHj2axx57jI8//pjVq1cr2ocxXDkhUItqFQZTRdJPfL50E4dOCqNQaQVyFjmDxD0z+Gr+EVJUgfQZ14dQa9Gk5AMrL6OyypwqtYtoXCJDZ+fITOhN1tG0ba/C0tOcIttgYQwOoJ84OruWUZSTyt60atQiPr2zhi0uvsIo6juQ7iOmckPnHI7s2cuW5gW0jKGGBk0KsUKFyKyoFI1ZGMGFcmWFTSRFt8fHS/R2jgb/X+/48/r/xgt9/Wz/38DOvenRd4CyHe6AATH06dWWNmpLgxeVxJhwTX7C6ZQ3nOknvGPRmlZ+woXkZR5j86o4AodMZtCwUQwd0INuUQGKMBnT/5wXc9ERuEYQ7F9CQ3UaJ0+31Gr56ZOkVTdQ4h9MhKsZFubWuLUfwYAxt3LLjTco3/PI44YxfRga5kOA4b4rgbQDUlNTlc065OYccjfLdu3OWK/kglw5w9jaC6/I9gyfuI3ZBzewJ0uoMKIRmNnVCTUyj/z4fRwvDyR8aD/G9fXDuiaFo6sPkpazm70FWnSRnWgrxvFzMyQfVxuiRnQkdnceR7YuYXahK/JtW/npLRwv88e+Q9i5cw6WTti4dmPcbb3ZP2s/+7da4+sznkkRxiyg0oimoZLkE+tZ3pDASVstmuIk8cCtaHtdL9oGuOFsbU699P8d7Mi3GxaxvaEbZf421IiGd3BrNo6DW/v/XkkccPZ2J3qAhtjtvyh+wq7aeqpTT5B4OJeqen9F368vTCDj+AF+OWbHsPujCfdxEkKUr4/i96AYsu3pOTCI9H3JHFmyiPVlkSJXFZzcfIRknQ9BA3sqS08qxrddKCHd5aHcbUAY2qmVF1k07fKpqqo6xzC2szPOqr6CNoE9nhH9mfDMq/wnpI7KrbOY+aEw2F5/l3c/WMjupHDG3v4Ad18/iG7OVdRVnGDjx+/x6WerOGqhJmx8B+TiGkrFicdl7+aJZxsPnKUBLXr44OH3cVP/zvQtWM3Xr7/OG+L4bK94HlEDuHN8N2EumonC2OHi74OHwR/W3MoOj8HTuS5Kg0V+LOsOtNZCz02jBTvRwwrhqotn49xv+PD1D5m1JJW6wOd59V8xdAiQWrcor8H/NzRpCdvm/MTsz2bz05xtLEkK5abbpP+vNKqlL60rXuH+ii9ty+oz0gfaEY+wNrg522KjMjacNwEdBvOvl28iMGMJS755l9c/XMD8vbVYdptK//aBtLG3QpuVI1QVHWVD7mJEFzsxcsm4LpSGRFbAmfXXQuu6Mhd15UG38dfRrY0FNeu/59vP5jP/s2/5fn0NFm26cZ3yPC7WuC5U9xfL38X5PYbxlXev1DWibRAqkEb8FVE3RW4uhlEL6XeqMsfczOD/K90YZfIq/TV1s8+ujEP6DsuGLNfDked0Qv/WiB5aQ0PT9LzQey0sLLG0UIk45QkRZ63G4M8qVAvDfdr6OhoaxQ+VUCmaa/Z8aUiaFhbeQJufv2R8lCtBNjrxoES+hbCqLZvSkohyiDxJ3+ScI0eb/X87Sf9f6fMsMmAm0pGfFmjqtJg1nzPcq9SBBjOh6qhkZhuNCSfTF+caRT3IdU9b+QnLOORWECrpJ6z4HWupb9T77MroZZnPn5cmzld/kvPUlciTRqhjZTl5ZB2NI0sYwe07CUNYjDiWZ9x7Pi5U95fK3/mRk2Vr1qxRfIqbfIzlX/nbUr6GvAQmH+NzaBKCM1fXvhT1lZXU1QthEbaRvf214/6oFYJQJ+ymOmFq2ztYiUb3m62N34wUArk5h5whXrp0KQ888IDyV/6+8847DaEuzGUMOCYuhtreXvH/vZYEQKISPa2tqwsurrZ/iQA08XsMY5MQnIMjzv6R9LxuEO09RO925V4dmPgDkQtvScNY+hGUlJQon1LLLZuMwSQE5yBXVhvJ7Z8/yZhww0puJq565L4E0jD+7rvvFBVIGsZynwJjMAmBiX8ErX2M5e42pn2MTVxz/J4Z4yv4dqiQ7NiDbJ65lmPi14U/jnLCK6wrA28aT1dnYVCaxNDE70S+HSooKGDIkCFn+BjL3zEx8ovhi3MFm2AJhckH2fjlQrbHZZCSU6Bk7MzjJIc3bmTjr9tN+xibuKJcRYaxHTaOXZjy0pe8/+2Pyq4hZx6v8eSUPlx6neDfj7JAbWUVVZX6iTsT/2xMhvF5qBW9QequPezZlSp6hr/O99XEn0OTYSw726ZPqa+afYzP5CDLX9F7KEXOfEfvzVW2g13rlrBo5T72NW27FNCTnmOnMGlEH/oZfFUX/XsNSUWVVDvVk7lvH0nirG/PcYydMpYRfaKUD+oUinawcs4Slq08jabZ99WCsLETmHTLWBGfIZzi5/ozi74/17c5uOswrntuOsM8T7D6PwYf2TPuNXE10XrGeMmSJTz00EPK37/BjLF0UElkx5yf2b4vH13kUEV6lSNSh8W+7WyZs0OE0ImQpeTEbWfztmMcKHai0+SJTJg8kEjdHvZtX82cHRkiLqnyFHNCCNTek/lUhg9k1OShDJ08ioHhleSf3MuSdSdECH1IFD/XPApzLfAZOJmxE2XaPWhrq6XqeAq5dToadTLdU6Qm5VJ8ho+siauNphljueDW5s2b/y4zxnIAaqBGa4O1rR/BgcFERnrg5eUh+uIiivYd4ODGo8jmrf9MWouFux8B/cZy4xNP8OgTj/KvgT6YpyWyfXUcuToN2soE9myIJUcXTOdpd3L9jSMYceP13DmtM8G6HGI37CGhUohf89in920eNv0JHn7sCZ54YhoTekcSaLhq4u/D33TGWH6PEE7MLdfTq50tNVtm8fV3b/DW22/wxuyNrBS9eZE+oAFforv1ZOTorkJI5E4qQm3pMZL2Fi7YHo3naG0DDa19XyNa+b5GnO37arhgFHVUleSQkRiv9DbySE7Poaiy5qxdYUz8lfxNDWPZEuV+xy8ye0kiaZ1f4+0fD7Bz9wEOrPmAF2/sQ5A+4CUopvoMH2Pp++p2ju+rW7Pv6+WSyu75Z/o2T33kdX7cdlxYGyauFn6PYfwXC0EWOacj8QsezJipHQm0tsVeDGG2cjf3M/bNuhjO2Fh74uON4o6s930tOcf3taTZ9/VyaUO3iU/w8tw1rFmzUhw/cId/Ksnb1jF/x5ljlYm/jqYZ40ceeYRPP/30L/Ix/k3UUleTTUVNsbANGrFu1GBWnCiM2/UcOX7yrEabR25BIifTM0Tf3yj+CSP42FaOaCqpjWpLtI0Flm5tL+n72tZVKGKy1JfybW5G+iyHE9Wrvxhy+4mjB8F2tdQU5ZNtspavGqSampKSoswSb9q0ieDg4L+DYSyT9qZtLwfszE5wYNEsMZT9xI+zlrJ6o9C7syoMBnETWopyT7J32yJmKRNvs/hlSzaVPkF0HhFFG3NLVI7t6DUoGHddMkcW/8K6NbvZvWYdvyw+QrLOneBBnQizTOH44p9ZNGs5ewqqoV2I3rf5gjVRRnbCbjb/ItMU+ftxMYdK7HEUAtXO/5wdx038RUjDuK6uDicnJ8rKyrCysvorDGM1Vg6ueEe0UfxDz/9NkDUOQj/3CvDE2dISM7P2DLt3Gv27WFK07kvefPsD3pyxl0TrzoR06kM3fxfkVIPexc4XK009hfHrmPHm27z95gz2F8me+UbuHSZ3FJYJetB13FS6B1hSu3E2M7/4mZ+/mMnsjbVYBghdflxbHCpOsOXTD/niy7Uct1QTNu5M3+aW/EmXRelza0Vlxi7Wfvkmb4p035TpmnUiauAQxsmPn0xcFUjDuHPnznz//ffK+qNHjhwx2jC+gpNl0gdYi6Ze+oeqlf11z/UPlb6lWqSLcPOeuDrxWyOXFtSfl41Z8bdt8pu10qJiJ59PmE1WQG+6PnM7Yzz0b/rNVaL3t7A40xdV8X3VUJ6TR+bRWMX3NaqTP14+jlhI/2Axosi9k5t9m8/Yj/js/El/VxFWnNCnqMdc3KdP19woH1gTfyytfYzfe+89hg8frvw11sf4Co4EZkrjUAuj1vK8AiARjVo61Fu12hTaTDp1W2EljGI5fNnaWitDmZW1WoQTjc0QTGJmLuJXWxvC2WIt4rE82xlbxGehtsLJ14ew/jHE9A/Dx9cJK7mJtpkULNHobWywEffbCGFtEQDJ2fkTcVlZY21IryVd/X0mAbh6+Bsbxn8ciu+riwsuLn+t76uJP4e/qWFsLDKLwoAe1IcuPcIw2aImzsdVYhj/UUidThjQT97LdbcOVBxxTJg4mybD+Icffrhsw/gfqw6ZuLY4ex9jk4+xiWuO32MYX+EV6CqpKTvJhg8Wc7i8+tzl2SNHMrJfN0ZFyZUqTZi4MjT5GMvPqOXeZTk5Ocpf+ftP9jGWCOOkKpEd3y5k2554TmYXUVRUREFuFml7fmH+5kPsTS41hDVh4spxlRnG8nVkMIPufIGXv5yt6Gg/fPsFH9zVhfZ+xi2VbcLE5WIyjE1c88jtmhYtWqR8Sn3rrbcyZcqUv8LHWJJPafYW3uwxE4eXX2TYdf2IcQVNVSGZc+9i+smhDBg0hpfHhyN3wCd/A4vmLWTVzhQS5P4RFtYQOoBx/5rGuG6hRKmzKUtcy5v/WcCx8+07fOdbTBnRl77u2VSmruXHmQvYGNtqX9+oodw4/VZGKvv66u9pIYGd321m16pENJ2cydq2jeTaWmza9qTvmMncPKVfqx1dyslOOsjGn3/lQJYfLppC6l3Dce8+WIRrawgn41twrs+yZ0+6Dh3EwzfYsfaeFTjceQfdB3UkylFWQZmogjd5a2EpFt3GMfmWcS0+1V98zaqNcaJeHLB2jGLAY9OZ1iOIUFUSx7as4JN3Vyh+1q0de6wd3UW4GSJcEbmLjSxbeSxJB1cw96cVbBMRKvvrebYluO8Yrr95CsNEQBuVvq4OH20k8N8PGs7JmzNJ2rmbpW8fxOd/zzMwPJeUueeGK49dwZYVK/hipzM3inAjjQ7Xep/lCyNtAg8PD0X/l2+IHn74YeWv9DG+6667DKEuzJUdCerraCwuIa/RHStHa+wuqJIJA7riCMvf+ZaDefZ49xjN1KlTmTphJFMDcslauJZdm2LJUNmhdmtPn3ETmTC1F5H2VljkqfEbPJXxk+WGFD742heQfXI7i9+bR7x1RzoPGa+Pa0hnhlrHs+u9xRw8mX3OJtEyD8UZR9i/YydLj2oJHD6GUVOH08O7gLyDC3hneSIVNfomVhC7iYNblrGjIZpuvbvSa3A/OvlWUZO0qlU4GV8+xa3yp+RjTH8GRHtgVV9I2j5RptxyKmTw+iKqMzYz77vlrFm1h9ikPIrr66mvSmf3t5/wy5F6ygIHMnx8X4ZH13J0xjy2HkonVeOKe3A3hk6dyJSpnfAqqcPG3J+2w6cyafxYegbY4GRlbNkyiN20irUL95IbMJiREybr89zDm7C8g6x9ZzknKmpEyWR8qaScSCXXsK+0nhqqirNJ2htHVoXcF/k84cpPcGjrWubP2cAeES79ssIpiRhFXFycMmM8dOhQZcY4JCSE9u3lp5GX5soKQUMDjeUVFDc6o7ZTY31BKW5UNp6o0jrh4hJISLC/yLQbbs4OuNWmkbRuF8ePJpMvt1zy7cWEex/g/sdvZkJMd7q2EQ3grsd56NHHmRQTQrBzI1qdOXW44eMVSlioDwEBIi4bc+wLT3JwwRZOZhRyfnO8EXN7J5w6DWLc/Q9y3+OPcuf4LoToslk3ey+p1fXUUkT6gUMc35mJqusUxk8ZzugbJzN2SBBhZsmtwknscW2Vv8cfF8f0SUztH6LsKNlS2XVU5p0kbtMC9mv8sDUT5VbO11BXlcru7/dQbhdDnxsf4dHH7uGB6SPo62WNrYhAIzcmjx7GzY8/wiOPT2FwSHt6dBrGhHtEmvffzchIO9yVzseYsmmo16kxU3sR4BdK2wgPfH1F3VnU0JB4jD0/7yCpuq7VBoSXg2zZlWQcWMnR0xlkCUGV3/qeu8i3seEuztVjGDeKxt0gKtdajbnK/CIFsRdDdydGPnMn0aosktfM4Itv3uKtdz/irV8OsTe34hzV58K449W2L2Meu47QlC3sWPwpn3wu4vrsez5ec4rTYny/8KpDrvgFduK6WwcRYGuFFc54hfcmKqgjfjsPcKKyntL6RDKSKkiLc8DbqoDk06Lxil4nvayehioL3ES44zJc689ML0F9RQaJx3ayZHUsEQ/cyYCIUL0raWONUJHySE8Jp090R/pFeuFs5YlD+Hie+Ox5bhoccRn7MRtRtsY2RA4exaCxnXDd+zML5r3L+x+Kuvt2MXP2ZJArYrmMzvgMdNp6qvL3s37lDgqc/egzbTJ9xPmzF/k2NtyluHoM45pqGvKziY/wFeqQrX4/3fNSS01pLEueuJ3vj7rgOPErvvrlAAf2bufAshe4tUeoYbtSYzDs6/vkI8wsHUX/x35p2df3u/vo72LY1/eyqEarTSUzW0NNRgHFZQns2P8jr0/oTv9eBl/jIXdy9/9+4rgIlyrDXcb6Xhnb57Ni5VLmRrzG9Bgnwpr2EqypQZOdS6q2DXaiO3e+/IwbQauy1RZyfMk3/PjxHJY7P8ZDH2xj1WZRd5u+Z+Z/JiE/P7v0h8jnp76ymP2fTOe7yi5YdBrN9ZGGC2dhbLhL8XsM4ysqBLVCCAoLsgnp05Vgd1ecDOfPRTxsoSOnHu9PjyGDGDggRBhANsoyGTbWlhf5FPt8lFFdZkZ+8nAm3D2ArpE+eMi4hC4mP7W++N5ZF8IGlaoNvt4qrP3ccHYIpVfn63li9jqWrV7HunXiWL+BDZuWsXrZG9we5YSPsV1X/CLWrs1jV/4wnn8oBldHq5Y90ESeVd6etBGjY3VxDWXGD4eXQauyiZGtOMddGMhDuf7BXrR1dcRZqTsr1JYWv71xFJ+mfPt3vLK4G936DGZE/8Dze+4ZG84I5KcSY8aMURbe+uyzz1i5cqUiEMZwBYWgmtKSYk4eb6Bbt2C83ewuog5phU1QRW1lKuW1FWi0OtT1ldRnHWP3wuXEZeZeQIc/H3Jf3xKqKtMpE4a5mU7u61tAUdx+dvy6utW+vuejlPKK0xxPSCRXrl0qRpXUlIPsy0ggt0dX2juocbIOwz/YGZ+wWk7VCd25Rww9+/Wjq79oJMVxrDhWhlalk3sIXgKpWGSwe/1KUqqtCRsylbFBzti07FoHKhssbEUaAUnsj41jb2IB5cKArkrZwIwXPmfZrmShyxvCXhIjyqYSKl19AZVVOVQ0aJEbTanKM0jds519W3a3WvPpciglN+MQaxevxrL/NAZ2iaa96/mMQ2PDGUdsbKxiGA8bNoyNGzcqhnFUVJTh6sW5XPvjghScPsK+9atZuisLvNewLs+ew4besbGukuI9meRm7+eojTvrfTvTKdiHLqNsOZK+hS0Ls0gSPY82P5OsA+nkl4bhq7/VCBxxEb1np0FaTmxbyIpT3rhqGqhOiyX5SD7V9W3O8Ao7k0Yqy3JI2i9Uk2x3vFXlFGfEkdzgSY9pvQixVWOLHYHdOtChLIsje5fyc62wQdTmaHJOkJJXTYpLCHVCiJtfmFwQ2ZzyyKiPILpLdyaO6UgbYSCfiQ1q2wB63NiOPbF7hH1ThPaQNVZ5wgA/bMHwvrVEXTohA8aUzY02ka60SUsifukPzBejt7q8jNKEgxw/VXLWukqik8tNYs+i2dLcwErpPkV5jhwloTab4jUbiHB0okg860ptnTBw2/LIbQPpEeQqrJESmlbYbMHYcMZRW1urGMYODg6Ul5fj5+cnBlbjhOqKCUHS1vWsmTeLtWVtcF/wOUfOp4bUbGRHRpXosR2Y+eYwrnv1Phq/+5HFv65lbq6jyHS4kORxdK6woJ27A2cWQfr/euEVqMVFKKote9960abDYKa9WME3n81ixapKcsq98fEJJab7VPqLIaWNg7XSy52LK5aNdqiK97Fw8Sm0tQ14tx/HoMm3cdeN7ZvVOa/Ooxhp64z9zJm8+eUpykQ4EZCOgybz9F2DlDVX1RfMn0S6YzrhGd6WmAFPMHL8CIYplrAMZIdLG1803s44WAgD1iGEQU88TfZ7H7F49Q98vVjUi1Mnhj3/MEN6BRPaPOl+9r36sy0YU7YgOo8aj61zvbL/rygatQ3BtG8fTFDXSAaecsDFQiVyL8sm1ChS2TnzbfYo9zahQevdwJE3P8TFfzoBNn5EDBiN/62vclt3J1yUFzSidgz+526K/7mMz5hw8pxx9BOjszSMpW3w9ttvK3/lG6JOnToZQlyYKzZZtmfmK6zbuo/Sab/wbAw4nU9HPvw1/1ucz26zGGa+MwF/uemuRisMtUYadfKhmun34m2UrprS1VH6BDeh9/9tFN263M+3tRYhX7Pp5B7AYtjXNu/rK+IwN5cux6jUKhHv2e6Q+sWBN29tIOLrN7jOpxE7odKYyT18Fd/j1uFl/CKPIn65h7JSYXJfY5UKSwuhFikBL5E/XaPir9wo4xb3qZoNAXG+XoPOTJRVNDi9DSN31BdqXlO9SF9rMVJaiPI036Zwvnsll1E2ka/G5rqTJ/T1JutPXMLCSpZPR6Pcd1g+K+Wm1hRQlrONd/rNxvm/LzJ0Yi96OIsaUqlF3TTZdnr/c21Do1I3KnNDfHKC4KLhjLMN5WSZ/GpU+hR/8MEHylyB/Dt27Ng/18c4atyd3PnCuzza2wZ3R4ORe/bR8Ubufeg+Pn6wH97iHpWZeCCKf7G8bi0OYZCp1eK3MI7PEACJ3v/XsrV/cjOisswtsFQLY9gQl7U07kRFWtmI8BfxBzYz+DjbGAxzxX/4DAGQyPhFOLUV1k1lEfFbSeOxOeAl8ifSsRTDs7ynRQAk5liIMsvytjRica51vUh/a1GGMwVAcr57WzCqbIowS79qQ7lEelYinFJ3yqbgsiHKsolzTWU/45B1LeKVnY4IqYQTPbC6uWFLZKcmno8Ip1+AwRDfJcMZz1VhGDt4BdAmoj1BYpy9oIVv70NAUCAdhP4nVZ3LKaSJqxV7bJy6MP7VBxjRJ4Qg4+anrji/xzC+YkLw90MYhR270n14V8KFnn1Bwf1b8meWzRYru3D6TZ9Ezw6+eP/2Fzy/i7MNY2kPGGsYX8NCIIzCyTdw879vYpBH09uOfwr/5LKdn759+ypGcNMWrkePHmXnzp2GqxfnGhYCE/8kzudjfM899xiuXhyTEJj4R3CVzBibMPHXYTKMTVzzmAxjE9c8JsPYxDVP6+2a5KfUpsW3TFxzSMNYfibx4IMP8sUXXyiGsRwVjMEkBCb+EUjDODk5WTGMN2zYYDKMTVx7mAxjE9c8JsPYxDWPyTA2cc1jMoxNXPNIwzgpKUnZtG/9+vWEhoaaDGMT1xbSMK6vr8fe3p7KykrFOctYw9go98otW7YoHyWZMHE1ItcelUsu9urVixkzZvDmm28qf+VvqR5dCqOE4NVXX1Uky4SJqxE5Aki/aOlj/OGHHyqbc8i/8rfcp/pSqP4rMPz/vEjdSq7mJQ2P1oc8f+DAAcX4kF/vyYSvu+460znTuT/9XHp6uuJcL7dvlZt4y05bLgxRXFxMly5dDC35wlxyJLgQMjNLliwhIyMDT09PZaJC6mXy/6ZzpnNXwzkpLFIluhS/2TCWw0xrI0RytmFiOmc691ee+8NnjOXrqKaJCTk7J5EzdqZzpnNXyzljZ4yR6tBvQavV6oRKpAsMDNQtXrxYJ0wL3cSJE03nTOeumnMajcbQWi/Ob7YJJHL4kRInjeSqqiplGJL/N50znbsazrm6Nq15f3F+lxCYMPFPwDRjbOKaxyQEJq55TEJg4hoH/h8OVVctLoufogAAAABJRU5ErkJggg==;" vertex="1" parent="1">
          <mxGeometry x="1011" y="186" width="153" height="138.73" as="geometry" />
        </mxCell>
        <mxCell id="tFcRdSrbqhkbJn0zH4gM-29" value="" style="shape=image;verticalLabelPosition=bottom;labelBackgroundColor=default;verticalAlign=top;aspect=fixed;imageAspect=0;image=data:image/png,iVBORw0KGgoAAAANSUhEUgAAARUAAACkCAYAAAC5D7qGAAAAAXNSR0IArs4c6QAAAARnQU1BAACxjwv8YQUAAAAJcEhZcwAAEnQAABJ0Ad5mH3gAAFtNSURBVHhe7Z0HYBTH+bcflVPvvaEugYQkEKL3DsZ0F1yC4xq34BbHTv6J7RQndtxLYuOGbZrpvffeO2pICHUJ9d5Od7pvZnUSAoORMMbAt4+zOTT73rTdeXdmdu43JgYBKioqKtcJU+OnioqKynVBdSoqKirXFdWpqKioXFdUp6KionJdUZ2KiorKdUV1KioqKtcV1amoqKhcV1SnoqKicl1RnYqKisp15WesqM3l3P6tLHxtNnvEXw3NgQrm5pYEBw9k5LRp9OkRjK+98YSKisptz89wKqmcWr2MTx6YTclD99DZxwYXjQxvxNBYSu3pDLI6TWDohOFMGeyPg/IdFRWV252f6VTW8cXjWwlaPoup3dwItpXhDTRWZ5Ay/33+tMQc/zGTeOaZMXS1Vr503akrK6O2vglTKxucnX+hRFR+FjfrNTLo9dSWlFCrt8Da3gY7OwvjGZWfwy/gVAS6GsiZzyuPbaUyZiwT/vwwd3rIZHTUVJRTU6tDpzfB3KSJRo0Djk7WWFuYYYaeJl0dZTmVmLi4YGNrhRVadLXl5BQ3YuPqioMMM2lEr62iML+c/KSzFJaJG9bZg9AIb5y8PbAXcWlMG9HWVFEmbGqwFeHO2NtaoKGJJr2W6sJ8yuvNMLdzwtHZAVvza8yfmSyw/G49FfmV6MytsZLxmTWJ6KopLiynuk6UQZq1YoGNozFdo11FeTmVNVoapKGJqTCxxcHZGQdrC5FGe9O1xZof2xma9CKJQgrL9ZhYi/K0207Wi0ynhZY6LRV1iqjJtpiIwwIHD/cOXCP5PVm2WpGXYqp0In0ZpNA2PjNM62uoKKxDI75r2/rdi9E31lBXU0FZVS1arSiPrB4xFLewdcDJyRE7URZTGa2+nvqaSgpyS8iPT6FIa4+znyf+oZ44ebgZ7RqoKS2norSKWiX2Fswxt7LD3tUNZ6sL8WnrKikrq0RcQpoul66+hsqyCsorRN6UeC5gbmUr4vM2xqcTeauipqqOep25uF8bxbUV18te2NhqROotXDl/FtZ2ohyuIl0djZXllFfWUKXcWC20uf8uur7XCelUro0Uw8lVHxme8ZhgeHdvkSGt2hgsaRR/pH9p+OPwFwyvvL7ScKhJBurEkWFY++VLhhkPPGCYMupRw7N3TDbc8ewyw/L4QkOpNDEUGsrzlxle7zzZ8M63+w2HZGBhvCF/4bOGzoF3GGa0hNWkG4oPvG2YFtrJMCJ2kmHa0GmGSbEjDJ1CpxnePlBsSK+RcaUZ4te/ZXjC0dvg7fiE4a318SJEUmOoLj5g+G5aqKFPQE/D1FdmG9bmy/BrzJ9CvTh2Gr6c9pThHy3x6UQdZHxneG1CH0Oko6PB8aKjTbpGuy9f6mMYEmk87+ZtcBzyhGHG8nhjGu1N9/J2uupikcQ0w4Q+o4zptteuOfwCLXXqKOq0bXnk4SaOIR28RhKZl4UiL4GGqCvGJ9P93PAH8d1PLvruxZSmrTcs/3yqYcgQR4ObmzGeyCGGPi99afguw2ColpdYMTxk2P/tDMNINy/DiAGPGH47dJJhUJcRhj4TXmtjd9yw/q0nDFMvypM8Ig1Rw18zvL7TYCiX1S8R8cUvn2F4QqTrfaV089caZr8y1dDzR/E5ivimtYkv33Bo/ceG1x6dYrhj1LOGZ0fdYZjy6OeGj9eniTNtuXL+msuhE+lmGI6L+/mJIZGX2LS9768/v4Cfkl47jYRVszhl1p0IT2fchTfXVpeRMH8G20uHEjhxKo+GOqFpKCZz/zwWrG+gpHIQj/XTiKdlI/XiSaPR6tDn7Gf/wVX87bt8hrz6R6YMjqCzXRX5iUfY9NUiSkf9memjetDD34barGMc2zyPr79aQ8iM0bh204snl+iXNLjRa2Aax5IzCPP3x8f5HJlbZ7LNLhIPXQW+shchnizXlD/5RGpFh7ZWPF2M8SmdCINWPHUi6D15An0e6ke4eOpAAiv/uhuDYid6MWUHmT/jM85Ej+GuN/7M6272Iqo6yNzM6nlL2VVSieNjIXi0K12DeEhcYlefT1XaOj6deYCT8fZE9O6InZJAG5rr1MQkkin/+CP9QxzxFk9XEL27klPMe3oXDkp84hqltucaeWMvKsogHu31VV4MeuxFug6OIsL+0vhkug3UVdbSIDKr9AQupWQfu5fuZNMRT4b9YRmv2oCluO+qihM4ejKZz2Z8idesB+jj1kDe7k3s2ncO84c/4o8TI/G00VNwfDU7jqYw89O1xP51BOFOehobbHEPHsPjLz/JcA+wEr2jqtzjHDp8jmX//JJ+8x+gr3seScuWsnnDOWwe/IyvAjywNheGIt10ke4Wka6fSDfOuTcjHvMlbMyDFJWcFGVbh81vpxMnyhvr64ZnCIiOCCkr32fXGRPq+/6eN5/xVnqU+ceWs+HUGt5vGMu7k8KNBb5c/lLYP/sgZ7NFG2wQ/ZfjK5m1tobagEd5+9lYwl0vvf+aY7re/EynIm7m6iQ2f/Z3Ut1tcFKGpFpxk1TSVO1FzPhBDBoYghvVwtGkcHBxDk13hhAeF0f3UCvR4Cvw065nwRdnSLfzJ6dfKHZKvILs/RwurKIktRw3cSHuv7Mv3b2scWg8w7m0VHbuNyX49RHEDgwi2l10Ev0NOGv3M+sfO0kd143oMDkWE91Ha3eiJo+iOvM0Bfu17PAyIWt/PcEibyXxB8RNLbmG/LUbFzyDYug1fDhxyjsyDUlup8hTzonhmJUvnceOw1yMJ2rzj3Isq4Gi/HrIPcC+vQH0iIqlCuFUFPuOUktp9mkOLV9IYfRQgnLz8DOeuZj22klE99/CjaC4QfRrHfIWUp6nY4/lfjFcFdTmUdCua+RNZ9H4m4c6Dvh07kHcoIH0dbkkvvZg6UFgj6GM8bckaPBQ4ZhETYu2XZpaQ0FiPGePpolhjnDAlWmknsohJdeFbg+MJa63PY6WpoQ45lBVks3KBVs59dgA4WiUSLF1DqBz/+EMERUihwpKfHmZnD9QTpPi3Rzw6BJHVKkZOSLujJRTFBUbqMs7S05iKSfSzRkn07V0wydcHt7Gsol7r7W8Mi05PMkkYVsWJZruBI7sTY8ezXdbJ5MDHJyfw4ncBNKEUwkQYc0N99L8OVKzO0NcSzEwFUNZynLJOG/AwT9cPFjF/ed96f33y3CZkWlHaBIOpJby8znkZmeSmSmPfHILmtB0fZCpk0cyLMYHO10ljeWJnEwwpTDxJCd2rmThwoUsXraSDfFllJ8+Q3FWHhniAd08Ui/l3L5tbFqyk8NnGwkfNYYenlY4ybdL9WVUF1eTVdKZrl1ccXJQXjmhcXDCtUtXOpdkKefLRLuUmGqscY6dxEDfRpqSN7J+22mSrUcxcmgXvDyMLuJa8ndkG1tEI5R2CxcuFscOjuWVUCZNJAZhV11NpY0FemtL8cS5HBaYaTzoFO2LRW0FRZkZpIkbNjM7l8yaJir1JuJ5dO1U553mxKHtLE3U0Oc3d9InyAdP47m2tNeu3XTwGrUPrXgy5xG/dQVrlzbX+/I1G9h18hyljTp0dqHEjBjDpGkDibQqJnuvuHbi+ixfd4yk8xqC+8TgY2GBZc15igvNqdYF062rIxrj5IyVly9ePt4ECWeQW6ajRj7UxUOzsiCZI2sWsnSxMU0ZX6FwQqLX7G9pLq6rI07eXriLB1792QzS8zNJl22hqJLzDSbK/Em7OgSi50hNAqmpdWQlZJJxeK3x3lrI2sMZZCZkUZeaSoJ4+DS2J0Iz8YT3iKFnhBNO1QkcWHWF+/QX4Gf2VGyxdojjnn98dfFE7aU0atGXFVHUlM2xlV+yY4u1caKxhWDcrA00VMl/y2aUx5F4Gyyta/GyzePwzkSKw7thLbpCzbenJaam7rg4mWHRHCDuWNFAnVxwNzUVZ9sibxp34ib15+iceaIrnEPEy68QY7OXE+KMnHC8pvwJu82tdvIqywlTd/r3l3+LEJ2O+oxUst28CfdwFr21y1FPfWUyG958mwMBT9H3vud5dniAGJa1THQnX7vXF72s1J0HSD92hKNxf+HN2HqWOMqcX0J77TpMR65Re6inoTqZbV/+mx3KRK0eGxdvQvtO5Ik/PEFvbydcFAfRKIaDWRye+xbfHy0htVSEhw6j/yPDCdVYYqMsqLIVeXIWeZMTo/JvgbW43+wdxJ3S9klbQcG53Rx8L4ktoqU0T8o64Rbai4EPO2OtN8VEX0jy5hWsWX6KnOH/5NWnexBmb4F16QH2LNnCP/9e1b5G1iQeQmWllGtzOX7kINuSt7L8oi96EdY3mjrhDQyy+3bR/XkZNKKrJR7sT91dzrdfLuTzP52l2s1G5KWeyjb36S/BNd+zHcLKGnOfIALNonjw/77h221HOHKk7bGET1+exGB5RRW3EcHk//sr/1n+H56/P4K6z95jeUoVua1Pthr0+nRy8nXUtYTV16HLzyFdr292FJfiNphJL3/Kf7/7kOd6wkVvD68pf23t9onjc14Z1JUu0kSg1dZzeP86Si30OLg4Kjfrj6lD31hKdtJoBo0dxrBBna5gdw0kLGb9xiL2FY/jn8/1wuFKr0vba9dhruEa/ST22LoM5slvtrByj6zzbcx5835ikz7j08UpnGm9OazEw6cbUz7cxCJ5fbb9hzcnQtL/vcji5HLjPVRKXV0eOcJz6mXHU1JZTk1xERninxfek3gS0ush/rL6CLsPGa+1iO+DiY1Uv/oon2wpFU6riPICH6w045gubqxQUX/tHrK1xUx4CR8/vK0jufO+13h/gzG91mMdi2Y+zxQf4f+u5lDa4C7GzfWd++H+0PusFvfpoUvu01+CG+NUTJyxsOlG35GiJ5B9hoNZ1egcHbETj6u6Pe/yzw9/4NvtZ6lseWoIN2xhbY2NT0+i+w3ikTvL+OHrNRxJzafK3g+3QB/ighI4fDyH4tLmm6m+tJic44dJCIrDJ9ANv+bJkguYaEScttja2WAlngCtSUmuKX+22Dk44ijsmg/Ra9OYGx8g5Wjrj7F/fQ3BruF0Duh0cXqtGMR/dWL4u5OU9FTyC2swqS8X3eg9rP34aw6K7nSR0bL9yCaRwtrVGyiydmHY9HvoLwosJy0vpr1210BHrpFwNPrzhWTqfbFxtcHh0uvWigkmJuZY2Tlgr9S7A3bWoucjXw9rmyjaM5P/vv8+z368nxMF4ipYivPCzhQb6kQPU19bi1ZO8rp0JjDEAi+7M+w9cp4GbfMAsyo7nQwx7EyL6Ec3Pwvl9a5M09RcDF3tRXot19rBC1sLNwy1NdSLcYjeICeOz1JafpCTScXiIaHHpCSFxHUrxPB9rajhtk7qpxDO3DSOqN41lJqcYcPJAurkPSgOXcIC5nz9JX+be4xS0WIVP1hSTHmlGZVWnvh4Nfuki5EDr+OsmrOZkhIrhowZRZiIy/mi+/SX4WcOf9qLGMva+tL70YdJ255N6pIPeW2NuNx6HVXlOegDo/BwdVK6xBddAI2D6Lp2Y8DdI9n87kJWbbQR3dZ+DAmLYezUKN5d/SnLcnuS6GVD7Xkx9j1WQ9TUscSEeeOmKRTPo/Zyjfm7LMXkJ+5k6dKvWJ1aTbX1EuqLTnDCWZ6T387jeGI81eKRWfqDA05TIxgpusx7z69jxYd72aAXd3NlPWYVlui0bZ968ubP4eDSz0g+vYplyiTNpfGZYjVaQ0NTJTr/YfQdOpypg/xwvuhHFC3IW1PY+V3N7hrQuOF91Wukp3DHD2xYt53TlTmc7zeUAH9nvFuGSj9CvhRIZNP//kaKhw1Omjoaaiqo8xvLuH7eBNnHYFoXT9bRVcx9YwWmwjnJ5T51TTVUNmrwe3AS/XytcbXzxapvHDkFBcye9SbfpPfHx6qWnCTh7MqsGTT9TiJcrbFTWp0Y/pw9SsJbr5Ag4rOQj+C6JhorTLAa9ywjouzwtvPDdkAMpTXb2D/3Df4uEjYV3TDTyizyq+2VleTte3JLK2cix09i0M54du/8kjeOmCovEmor8tG6xhEZboNJ5THWf7yKU/mnOFXuhWu/vkSLm+TSamtqEPfDoVWsz7bBLKYLw+LcxL10na7vVTD7m8D47w7SKC5qI/U11gSM7EuQi+VPLqQxNdfgGBiBj7aUqrwsUjILqKrV0uA7gInjRjIoyg8XMVRo0mkpzzXgPaAngQFuuDvYYOPmjUtJAvnWIXj7BNIjxBM3MYYuSUgRjV5LWVEZpRU6al2iuPvRSfTs5ICj+U/lT86BNFCeo8cxNIzAqCB87a4tf67KaKFtfLY01WSw+5+rKeg/FG938aTTVVJZKY9qcZhg46uhJr+UijxTvMbfy7g+rqJzk09e1nkyi/TUm3gTMbA/AR4hxPTqTGikB466epFuKdUmWmpqrxRfAy4jh+BTqSVw/COMGtGXfv4yg5eW1x8vjfg7V4vPuJ+yC8LnohnmK9XppfXihY+T7VWukZbKU6JhHD5LprkbUXdPYHRMEH620nVfGp/odTRWU1VSQaWhjrpqWfZasPUhdOjd3DWiK0EB4fg7WODakEPamVRyqyrFk7ySWjlRHxnL0CkTGREoejkaS+yd7LAWHqIsMYWyCj0VBYUU1Vnj2KU3dz84iq4OoidqUi+GQyI9OdneUEmNiE+p81oNVj4x9L3nfsb1cMLJ2h4XDydcXE0pTztDam4VZbUiTNxLnaPjCPPuROyYrmJYozHOI13pHmrGzjsALwsTLIoyOJGaS5VIs941it6DRjBhYAiuhhxOrtxNUlkT1jFx9B87gEE+zkbHJfOsw9zeE/9eXXA7f5J06zgi+vZiSJQr1le9vteHW36LjsL4ePJL9Ji5ehMVdW0vXq8vmSRv28GC/9uH32dvMybCmU4/unDxbPtkPQcPNxH81qtM8Aabn9UfPcrqvy9mx64munzzDg8YX3/eLNx816gZvVZL/rFj5Dc44hHoTUCAk/GMys/hlncq8vcbynIB0dc1M7seEwI/lyYxrm5EW6fH1NYajakYl/8oW3LhUiNidIWptZWynuLn5fzmdio33zW6QJNOJ66YuEampuK4ufJ2q3LLOxUVSRXF6YWUlxuwiQjFU/Szb7K2q/L/EapTUVFRua60b2JaRUVFpZ1cc0+lpKSE0tL2v7RVUVG5+bG1tcXHx8f417VxzU7lrbfe4u233zb+paKicjswduxY5fdGP4drdip///vf2bhxI2+++aYxREVF5VZm9uzZyuhj1apVxpBr42c5laNHj/7sDKioqNwcXK82rU7UqqioXFdUp6KionJdUZ2KiorKdUV1KioqKq3s27ePe+65R1ky8pe//IXvv//eeKb9qE5FRUWlFU9PT3r27Mm7776LjY0NGRkZfPvtt8az7UN1KioqKq1YWVkpjqWgoEBZCCcpLi5WPtvLDXAqUoOjnMJzeZTV62lsaqCm5Dy5qamkXnSkcy4jn9ziCqobmi7I/KmoqNwwzpw5w8yZM3nqqacUGUvJgw8+qHy2lxvgVLJI3fUD/xn9EnNOSo3QJHZ/+RozRBdLdrMuHHcybPwr/P7DFWxOqcOoQKiionIDGTRoEHPmzGH69OlMnTpVCXvxxReVz/ZyA5xKk6J0JTeuUjRCDaK3orXDI+QOnpi5ggXLVrBihTw+5L//6MtAs1W8O+Nlvt4cT6KiXq+ionKjOHz4MH/4wx947733lBXzkr/+9a/KZ3v5leZU5CZI/nTuN4zBQ4YxbJg8hjBixCjGDh/LHX5nObx7HzuPZ1Jp/MavSWVODlnJWeTk3Ay5UVH55ZDzKQMHDmTv3r34+/srYdLRdIRr1qjduXMn+fn53H///caQK1FKQUoqR1el43zfJCK8Kijal0hGpgG3SaOIdjAKCmOOxsoVN89gutocZ93mavS2HkT18cKuLo/Ta4+TfT6Pc2cSiReFPJ58htzKJizsbbC2sjCqg8tfHNSSm3qK5MQ0UlNyKchI40yRKeZ2lsJOqojX02iMr0Rji6mdLTaN5dTlnGTttjNUWthjKcMM1TSUprBv4y5OHk7iTEI659KyScstocndCxsLc5HvKspzUzm+dicH4isxuNhj7WAlXKYOXUMp6fs2cuDIOXLrRNnkZuuaa8yfUjgpfF0khpLx5BZr0cn4zHUiunRO7DnAwQNHOB4fT3zrkUWJ1piu0S711AGOHD7C4ePifGIy8bmV1MnyWluJNNqbrjXWuh/bGXQNIol97DmQQmaliUi3vXayXmQ6Kr82sk2npaUpD/nExEQ6depEQ0MDer2e/h3YKOgmcirNmJg2YWtXwYnFeZi5euE/yAOHkt18PvldtiSdER50O9tXLmHNnl0k5Vdh4eOPm5srzhZmGJq01JUcYePyxazdcJQjB1PJOb6fzSmiYXi64upqL+wqqCraI+L7hHP+XXEKEN8tOsbJ1V/x/AeH0AVHERDkiWv9WbL3zeK1V77idJ6e6vJC0o7tYe6yPVRFDiDI0x5X6xzO7lzCJ/f8hf9tKsY0rgudgj1xN1SK3s1eFv3jJT76n8hnkxdevXoQbnsN+Qv1x0/RuJVb5h1lwYxvOJDZhKmIr7N1HZxfxQcvf8DMWUtZe3Ave3ZsZ8eOdayYf5BcUw+RbjfCLEooOTKPxT98w5xFq1ixbic7du9hR1I+ZRY+uLq54etcTW270g3Ep+4SO8tGGiuyiJ/zCn96awOHalzwa7edKMcVt+VQuZHINi1/95Odnc1rr72mTEu4urry8MMPY2/f/ov0Kw1/foLWTZUqMK0opVB5myW3okhif741Xne/yswje9i54ROed1/MnMVrWLA7SxqhrSrlyCePsa0qnOjfvs5/Z/2bv3zyJn+PXsfSNRtb7S4iaze7Fn/H3R+WM/XDd3j0ju7C0VWSe+YQKz5fTN0DIp2P3+W9We/x7sfP88kDdSz+fAWHzuQah2b2WFmHcce4HE6nZHLsdCX1uWdIX/1ftnsNJNTWmwjF7hrz1y76MfbJD5mrbDolNzabyauDoozpllJVuoNPHvuUVOf7+N3Mbc2bU+3cwJHn3XGYs5idC3aL2v0Z1OdSlbKYdz87xpm0nxgittdO5VfjFpmo7SgmIlemmJqIoYLBIP8nkCrOoYyeOpaRw3vg7+COq3s0fSdPp0t6JTUJmaRQTkP9Kfav8cDDMZiQEA9sbK2xdXQkqHcvApNyjXZtSF7JulmrWHvEgekfvMmDPbwJsDfDrDqbonOZ7E8OIa5XOL6+ziIuG5x9fQnvFUdI8n4yzxWRrUwkm2Bu7UjgXc8QJ3o8Vbt+YNHeTDYc7cToRwbhH+JqrORryF+7EcMcSxGXgwMOymGDlcbMmK4jti6D+O13HzPOOZvUOS8yY8ZkJt/zAJP/bxGLTmaT19ioDHKujSryUw+z/tsFODz5ewZ27kJn45mLaa+dyq/JLTxR+xPI3epLSyjT2mCwsRMNRAZKFWd7fDp54enuILc1x9TMTjTyIJzqiqgqLCCnuBpdUaoYEpVwZNV3zHr7//jjH//IK39+jddmbufoiRNkSzvlASmbUA4Htxxix4bDpOQU02Dvi7cY9CtbSjbW0lBjoKIulNAgO+ybd5bCzM4euyARVleBoaaBWmUTb5E7MwtsfPswqK8H5nkH2L35ECXR0xjcxQ8Puc2hRHsN+VvyGZ++/kfF7o9//JM4vmB5Yha50kQi66qkmEInaxodRV0Zgy+lSVdP8Zl9JOcY0LnG0WPoOMaNGyuO3gR7OF1h8/j2UZy4XQy5NrJIO5hx47vTzccB47b3F9FeO5Vfl+sxUXvTORW5sXlNSiIZdm6Y+HgRcKVN31vR09TUhF7XhEGvEwMlLdXlRRTl55KbK478InKrXQkdEEFkpBeOyqI62f3RUmMViG+UcBJ+jZxZvZ0zxQ1Uy5GWgnBkJuaYm8vtNluCxL/NRZg8ZQxqRlajIyHiYnSJiSSskw9x44YQYmWJTbOBSPIa8tfWLjdPHMWU12uVDS0lel0jBcknyHO0wNTd6Yr7NTfUZLDvmz1kazoTOuYxfvvIy7z80vO8/MRoevm7XnvjLk3lxLZ9bDlajcWoRxgcZot7a4Hb0F47lV8duaLW3d2dwsLC1hW1HZWNvYmcih59YxXlBekc2X6InDBfnCIDCVLOyUZWT119LXXaRtEwm2gyNFBRXkKNxgMHVze8vWzReIYQ5tiJwb8RT/ZPvmf2/PnMmzuH7z9/l3fee5VHJ/ejm7JflBxOBTP88Sd4/hMRPjUau83fsuxYHhmVYiggeh7mFjqszM+RnllHdW3z8t6m2mrqMtM5Z26FTr79ae7AXMApjmG//RN/+ufLPNAVbNq+1bC8lvy9wT++ms98YTd//mxx/IVHeoQa60SPtqGMw3t202BtgaubC5ffCqtBOJ8yzqd3JSIumm7R7jiJHk5TQzUVBcXUNGiVGauO0Xw9Ko4tZefBKtLNJvCyKLCDzaWbDbXXTuVmQa6o/fLLL3nyyScVwSbJ1V/GXMxN5FQqKc3dyqa5LzH9o3J8AyLo162T8VzzRO2JxEMcz8qiWDqY2hSWi+HB3k62WEQEEoELFlbd6T8ujT3Jh9hwUtoJR1BXTt7yl3jq1U94b+VpJewiHKLp3GcwT99fx/zPlzdPwDr44x7ciT4h8Rw8JuIpMW4wLoYaWccOEh/Sh07B7vhfabxxWa4xf1ekFG39Efat1xLuFkFEYEtdXQ6Z//WcTjpNepYYX9WXUndmO8v/8yl7z6RR0GzUAZqvx4oVGyl3cmPcE/fSS4S02b3TSHvtVG4WBg8e3DpRO2XKFCXspZdeUj7by6/0yCgi4/gW1j5whLmtG185YenghUfnofzu7eGMHBJFpFOLz5PZDEV3/gCLPzrE0vMVWJmZYuv/GA/ePZExvf0xEwMSEzFk6vnsxzy7ZBebZr3IXe+J7raJKQ227vQZI8byfTqLpl1PbXOkzZiYYeMnhh5THmH6oY9YtMxO9IPG8mDnXkx8bDz7P3qFz4/2Zr27NXVFGRxK0zD+hYn06uyDo0kOecZoro4JFteSv8uSS9r+FZx4/0NRF5VUz36Ngxs/5mNlSCF7VRXknjpPw/FznG6qxfCHCTz00SOs2buYb1/8jvcr7NDoHQn364mzpTNu8msK0gmcYe0Hz7NijqNx/cil8eVR9WgQdXo9XqOfY9TUu7gnWiPq/3Kbf8ueSnvsVG4WDh06pDiR999/n7Vr1yrK+h2dqL0B61RMMTV3wMUviM59I+nkYImtlRj/BwYTHBFG5/AwwsLkEUlkVCxxffsybEB3wj1tsFNu6hrqqzLZ81UC1kMH0TWuG7H+gXSJ6EbvgeMZ0SuEYDcbxe2YmJph7eKLh60dzi5uuPkEEN5FPMV7D2Ps4DiiAlywU+ZIrLFx9iOsXzQBXg44WFsKh+aJl4M1rsHd6BLoR7CXKw6efuKcMy52Dlhb2uHgFUjUgMHceUcfOruJOIRju7hsGuHsZJ4l0lNq0Fh5ENA9guAQT1zFyWvJn73i+tvG54qmMpejX5/E7rGnhQPuRd/olnoMF0cMcQMDsK+qp7FQg/eEyQyK9MLJ3hUXN398AiPpEt2DPsMHExvbjZ79wgnu5Iq9kq4PnaK6ENblSvGZ4TV+Er3ENYgbN5GBPcMJdVVq/5LyeuFqaSPiCyR67E/ZeeKidl1uCmSbzszMZOLEicowyMPDQ5mvrK6uFvdJrNHq6twCwteFlOft4K1e32D/xmuMvHsgfV2Mp24Q5enpFFfoMXN0IyjoZtjE+7wYhp1g65fxuL/0JL0D7PEwvmS6QDrHlh4kMbkJn989wABXsPxZg92be79mlZ+PbNOyPf/+979n165ddOvWjYqKCmXC9uWXXzZaXZ2baE7l5sUpKIjQ7qE3iUOReOHfYyyPzHyZ8eGXcyiSIHrcdR+/+csDDHf/uQ5FYomdizvufm44CmfS+kZM5bbiNpuoVbm5iWDQ737Pi58/zxQfmtfzqNx2XI+J2lvAqThh5zqUJ5e8y/Tx0USqvxP5lTDD3NISSxtLNOKuUTsqtyctE7UffPDBbbSi9kdYiJvZg+B+MQT4tLyRUFFR+SWQK2rl7392795NQECAEnbLr6hVUVH59ZArat3c3CgqKlKEryW38IpaFRWVXxt1olZFReW68v/JRK2KisqN4npM1P6sxW+zZ89u9WYqKiq3NnJ3QrnYTSq9yTkVJycnGhsbFVnJRx991Gh1dX6WU/nqq68YMmSIMURFReVW5vTp02g0GmVFrXz7ExMTc00ram+BZfoqKio3Atmm5Xan0dHRfPjhh/zvf/8jNDSUxx9/HF9fX6PV1VHnVFRUVFpRJ2pVVFSuK/+frKhVUVG5UagralVUVK4rLStqi4uL1RW1KioqP5+UlBTlre4TTzyhrqhVUVH5+bTdTKxlovY22ExMRUXl10JO1EonIl8pt0zUyi1QO8INWKdSTH5iEvsXpeLy8DSifcoo2LGLvZuOccZo0Ywj1k7+dIrpTJ+ePQhxs8BO1S5VUblhyDa9aNGin72i9gb0VMooSjvG1s9XcCSvjorGAtL272DL3HXsTs0nOzdfEdDOz88hM/0Ux/atZO78jexPLaK4ZdcsFRWVG8ItPFHrgl/X8Tz+8TxmzZnHvHnyeIcP/zaKcb5n2fbFO8zbdJRj5+uuYaOrZvRaLQ01ddTWNnKNnbFfDF19PfU14qi/1tKpqPwy3GYTtQ64+I5k9G8+YM4LTuQc2MXG7fEd2FzrYiqzs0nZe4zDh/PQapt3GLxZKE5KIn5vPElJ11o6FZVfhusxUXsD5lRSObV6HV88vpWg5bOY2i2ThPeuvNWDQVtJQ8JnvPinYuyHjmL6n3sTVHyEuU9+yvaSysvspudP76nTmPTgnQxwqoOircz8zxKOpeoxs/fATl/OyWJLRr34NHcOiSZS2VVQjqviWf5/X7F+XxIpMqiVlvj6081wQqS7FpuHf0vP1u9eTH1ZGhknFvDt2t0knqmnqkoE2ntiGzmMex75DWMC7fC2kob5VJzdyH9eW0yhSMPGSkNjfS1ZeHDPP19lTKijsMshbd8WFvzfd+yWX5EJKNhj5RDNoBmvcl9PR0KcRZCIrzpjI3O/Xcz2xBoKLpeuNpHTO9fy6ftrOSdOt+0XWTm4ivi+EPG5ifgqyRdD1G1LlnEk1xdnfTFa5zBc44Zw/5TOyh7NzTrXV86frXO0sRw69Mc2s2X5Or47nGU8L3EnMHYEd7/6FCNEhKpw9s2HbNOffvop/fr1U0SaVq9erWwmdtdddxEVFWW0ujo33dsfE3MNViGd8TetxryslKLKRnTaEtIPiBvUI5puIycqmx1NnDhOHJG4FhdQdvY8JWK4o63N4cAPszhcao1t98GMmjSCoXf0Z4BnKvt37GPH8UwqlVSkHy0nLz6X2iZPQoZeLj6ZbpFI9zRZ+RVUXm6kUptJ1vFdLPjyBDXeQ+k9ojlvYwd1JVKTyA/vr2D3mTzR26qlJOskuxf+wDHzSEIGDmHkpJEMGRhCpPkxfli4m5NZJcKqjpqSQjKOFmMbM4KBY43xDe9OV48sVn6xkgNpMr5i8s7sZsX7P5CoiaTroLGK3USR7hCR7l6R7lGZroUzLoHdGSLKNkEpWw0aY3nvvGMMPfyscLAUPafE7RzdsZLdDZF069WNnoP6EeVZRe3Z9byz5ixVdS2Fv1z++tMr1I66ffHki2tVl3mEvVuPs+GEJZEDJzJuvLTpQahVI9WnzpEvPFHTzTUaVWmDl5eXojwgNxZrWVF78OBB5bO93HyvlE1FlhykwHU9JuJJXl2jBIrDk+iR07j/mZeU3ya89NLz4rib4cHe4lkv0FVRV5TAhiUJ6EOHMkCMA6feN4477pvKMw+EYpZ6koQjyWSJzswFXAjoPppJT14mvvbQ1CjckxUap76MnvAsTz7dnLcZD09mSpcGTiwTvZesYsqEczp/NoHN63JwHfsQo++fwsT7JjLl/tE8NNaVnHWbSRCOrEiZmLbEwiaYfvc9zaMzjPE9dQ93Dbcj8+QpckrKhfPRodMbqNU5iZsgjC6dOxEc7IWXgwWOZWc4tmA7STJdK298o0fxoCjb80rZutLbWN4ZT/+OOyLscLcpJfPwUU7vzcEk9i4m3T2acaLOxg8PIJSzbJh9kMxabZteyaX5e4Tpk/oSIc4omuQFZ0k+U05GU3fufvwlnn9B2jzIpH5daL5FVW5mLC0tcXV1paSkpHWitqysTPlsLzefU5GjscZGGptE/9jMDPP27oLXUEHj+WSOnQ3Gx7cTAX52SrCphQXusX0Jqy1Gn5nDuXIluJ3IR2o95QXZZJ09o+h3pqSmkplfQlVDI3q7UDoPv5+/fP4SE8OtsKnMJiftDKlns8ku1GHr6Ya9tWiE1fmU5RQRnxtBjxgfXJ2bd/+ydHbFJ6YHEbnxFOWUkV8tQ5to0ldTnHWW9NTmNJX4SppE70uUzdkORzGU8I4YzISX7yMsfRs7l3zA+x/9g3988BXvrUkmRfQsLjiBq6BLJTutiswkR3xtS8lIT1XSzK0R+ai3wG3PYU5Xaylv77SUlRNOTnY4a6opOifyniLLkElucRXK80Hlpub2XFHbpIe8HPLrHGlydMHjwu7h7UB6oEDxHVucWuY/hGPCxw9va2vRL+kostufxIp/PcbDw3vSs2dP+g4cyvTXvmRLaq5xKCWRLS6PnR8/zYw7ezJw9O949r1i+rz8LMO6htFJsbEVWQnCz9sMaznHIrGyxszbjyCRR1tjECLW6tLdfPHoSCYObE5Tie/tPPrc2YMofxcchE3uifXMf2kG35SPZdBzS/lh7RGO7FnJlllPMsjFVti0k+JCSitS2HN4Nm9O6MmgPs1p9hz+MI/9ax7x+gzS83TUtddLRdzLfdMGMd13N5+I+AYr8U3nxS/Xs99oonLzcluuqNU3NHD+8B6SQ72w6BxI5w7tWiWdQA4lpXVUyolLiV40+MJ8CuvrqTAGtR/ppEIZ8/t3eH/BGtasWcKCWa8zsnQRmzYeZldii1tpHp71ffRf/OO7Naxd+jHf/y2Shq//zfb9CSQrZrXCX2aTX6invkH+LWioRy/yli3yWGsMAjtsnXrz4Lvz+WapTLM5vrlvdMHzy1dYteo4+3MqqBE9rvNpwxn/2GDiIn3xsrXDztYGW2sLzDuyJ6mLK072wfTqdhczZq1h6crmNNesXc/6jctYveJNHurqiPdlt1a9DKYaXN2EkwzpRHb3p/jXvCUsWfMRrz8wlDijicrNi1xR+8ILL/DRRx+1rqh9/fXXlc/2chM5lVqqS05yfPtX/Ht2FpbBoURE+9PuDQkt7NG4B9M14Bx5eblk5zc306ZGLaWnjnLW0gmDjxed5CNc9oZKSyjV2mKwEcOJKz7WZeO0xzu8O7H9hzBkyEAG9InGW5dHUUEZWaf3sn/1d7z21UGOZpti6deN6L5D6Ne7B2HeDmhTkygorqDSwh1HL2fCPJM5mVBIWXnzqj5teRmFCSdJ9gzD2UsMapQhrDlmGlcCY/vTe6BMUxwD+9E3KgjLtHhRtnJK6sTQS1dObVUOVbpGTMWQ0VwM70qSjrB3+UbSRLfioqmjn8IiBL8gJ7xDtaTpfAnuO4B+Is1egVZYVKayKbEag5kBU/m2praW+soGik09cHYR5b3siuccUk6dIDmlhpgpDzF62HCGDxE9rEDxHaOFys3LLTxRW0vF+UQOrpjHwh9aFr8tY+GyzazfH0+qRT8Gx0bRM7ADG6JrHLDyjGL0eF/05/ZxaNU6tm3ay94NW5m/NJHaoK6E9vDBqfw0++YtYOHsjSRZ2mMb7I3/hbHHJchhTQlnD21m4xKZx4UsXrGds5pwAoK88HVsoup8Jsm7t7J+vohzbnNZ5i7bwNITRWh6difIzwU3B088Q7swfLg9eVuWsXvdNnZu2sm2dbtZtiUP++HD6RIqbJRhkZbG+lxObVrCqoXGulm4geXby6gNH0F4sBd+9vY4ebkRPbiRvF1LWLdwLvPmLmHZsl3sPZZPjVav5Lx9eOLfI5Ko3g7UHVjJ4oU/MFeWYdFyVmw/THxuNfX6fM7s2Mj6uSvYfCydyu5RhLpqsL/MbpF1OYdEHs5ystSVyeOi8bLSNE/gqtwSWFhY4OLioqyitba2VsLKyzs0Ean0739hLLC0c8EzzA8XazM0plbYuVph0pTGni/eZK/RSvhIHHxiiB49keffvJNeATa4KmUyw8zcAffQTmJYYNNmfYPsRdji7OdNo6cjduaWWNoGMuyxJzjyl9kcXpFK9m4/HHWF7Ml2ZsJrAxnRxwXtsdWs+Pf/2CK+7XX3s3TuE0DQZeMT6RpsRbrmHNm7iIPGjGqs7Qgf+TCPD4+lX+dOWGSH4qP9hk+/W8rqajHskkYODlhHd2fk8zMY3iuIUDtRkKBYRj50H9tnfMeu7GRO2Fmgra4kWRvCwy+MJDbIWQx86kRdWePkU8uWhR9zQRpHxGcn4nv4DcYPC6Gzl4jPcRgPvlHFF59+x4rV1eRVeuHjE0LfuLsYVAad7CxFzbdwadmaQ1vwih3HGBtn7L/5mn99mkKF6Anh1ZWYYVN5RQyvgm2Ps2TRLJZtP0V2aAxxj/YjxtbSOG9z8fVtOJtGoYU/FoOGcUckNE8fyWvugUcnPU7Cw3RkdKZyY0lNTeWbb75RtGpnzpxJSEgI06ZNM55tHzdg8VsTTTo9jQ16TK0sMTM1KEOSRq0OMQhpg4m42cwwFY1ZoxFDAHHnNd98BgwG8f1acaMLL2omG3vrTSnC6xsxyO9ZaDA3EUVp0tHQ0Ejx2XPkniug3NKXuF6+2DnYYG4u4tTr0NZrldkXU40FGnNzNGYtHba28Yk8yL9rG2gUVXShkkxEHjUiK+K8fP3d1IRBp6WhUaesv1DsZMbFOXONaNgis6byb4Owk3kT8eefOEVusR4zN19iunujEfVibirtZF1dyN8FxPdNjPGJMpgKWyU+g07Uq3xTJutI1pewEWURyWAueghm5qZtuqKX1pUxWEF8XwwJlZ826ES8MkjEZSbLqRHxmMrvimsmrqNBjIPMRL1ZiuvQfH0uvr6mBpF3cWGbRO1ZWpob029CJ6+3XgyjLGVZlRKp3GTINi2HOnIB3JgxY3jnnXcUhf2EhATlh4bt5bZV09fV1VFfJ25wU/FEdRA3u2yINwnaqirhhMQ/hJOwt1d/iq1yc3Dbrqi9XpiL8aCdiyNOTlY3lUORWNjbY+8iDtWhqNxk3J4ralVUVH41rsdErepUVFRUWmmZqH3sscc4fvy4EtbRiVrVqaioqLQiV9TKPdIfeughVaNWRUXl59N2Re2GDRuUsDfeeEP5bC83RKM2L0Fq1Kbg+sh9zRq123ey50oatd260CeuB6HuqkatisqNRLbpxYsXKxq1BQUFODs7Kxq1fn5+ynCovdyAnkoZxeeOsW3mygsatQd2sm3eevamFZCbX6AUoKAgj+yM0xzft5J5P2xQNWpVVH4FbuGJWhd8u47nsY/m8s3sucydK4//8IGiUZvGti/ebdaozb+CRm1TI/q6EnLOZlFYXkfdxavoVFRUrpHbbKLWARe/kYyZ/gFzFY3anWzYfvryGrX1uZSf/JaXRj3NJ8tPcPqCBoGKisrP4DabqJXLzM2xsHEgqP9AwsobMc8vpch49iKUJe+N1NfWo23UX0GeUOqpLuHDyX9mQXwFeUY9kPq808R/9wyTxz3DO6tP06xeUEZ18WZmTp3AvfJXwa3HCHH8zmh3+fgu5gz7vn2TPw65lwlTZ7K5uFrELKkk7/RqvvvdCMaNaIlPBNfnUZ38HTNfGce9441pjr+Xca/M5Lvk6iukoaLyyyEnap9//nk+/vhj1q9fr4T97W9/Uz7by03kVJpp1qgNN2rUllEkGl+Tro7S1NUs/eif/F1KSf79A15bdoqEunMk7PyU79+TkoV/4dW/fsW8o9nkVcvJGKmnmsvZ/QnkVAoHJIdIUlP21Ba++3I127YeJbVVe9aog3swGxPPbsSOnszkySMZOzwA8xNnKFbsLhPfj6imJOs8OaeTqardx8oD58kr0Ypkj3P26Ea25NZRvS/eGF8xecl7WPH+fBItuxI9ZJxIU6Q7JJphlkad2WSpR6uicuOQK2qHDh3Kjh07CAwMVML27++YvNZN51R+pFFbUU19YTzbFqxk1+EkzmQXUlhQSNH5Yhr0WspKyijMF2F5GeQk7WXVvA0cTim8zCRvHcWp+zl9dB+nTELxFb2iixUPZFVIHdx7ue/pF0WX70mefmIsPe2s2q+ipmCHi08n4kb5ULZzF2mJyRwX+U5JL8Nm+HAirFp+3atD1yRypXfGyzOM8DBfcRE98LDTYF+SrOjMJmcXG3s6Kio3hstN1FZUdEze7OZzKvINdxuNWtOGPMqTVvHF92U4j32BV7+ey9z3X2fmxBB6WIcSOvB1Hn9NhH37Np/+uTfWa75n18EUEkovVhSpL0vm8J49HMuuo/fLTzPU3o4OKVUqGPVjM1M5l5JMcnIyqWnp5BSWU98kzhmtrDyDCBj2AKOKN5KyazkrDtSQZ96Lu+6Pwdqm5T251JkdxPg/NOvM7lr6ER9+8iZvfvQ1H6w70zGdWRWV68TtuaJWL8YVbTRq7U2LyDx5hISRdxEb7U+0fMxb24CPv+J0PN3ByVGG+WETMp4HxmcKL3uOc1kXe9ekxf9iUXwFCV2f4LmecG2/5ZP6sbsU/dhJRv3YYePv5blPVpBYVdfGCVhjbR/E5D8Oo2jnctIKqnEZfQ+9xJkLyTbrzM578fd8U34Hg55vozP7zZMMdrHrYA9JReXnc1uuqNVrG8iXGrVhzRq1XRStjyb0ZuZiZGRK6w+OlX80a64063o0T/Saa6TOiOg1tMzeaqvhyExmrbGn0XkYD90VjYXoBF3b75alfmwffvP+AmYtX8e6dQv5+OVxdD79OZ+tOEtK68yqiN3cBo3/ZJ587xv++ZeHmdpVo1T2hXSbdWYLzo1kwmODiIvwwdPGFlsba2ysLdpoxqio3Dhus4naZo3aY9u+5K3vs7AMataodbF3xD0wlICT+ziXKXottcJPCMdTVHKezKZM8isLqKmVgSXUFxxg1yEtuiYH7GzljInoPdSmsGHBAiq8YontN5QBPs1bd1yEiK+ptIyCJjcsHaxEwzaG/4hm/diA7v3oNWAwgwf3I7azLw7VUnG+huq2s7cmwnNZeREcE0fXLgH8ONkWndksKsVwr63O7J5lGzqmM6uicp24hSdqWzRq57Jgfsvit6UsWLqZDQcSOGvVnyE9mjVqNVLftetwxtvmkrljDYvmzGXh0nVsOZhJjbaevITD7Fy9lLlzFrBo8Q5O6wYTERhCuIeUf69HZyghpcaPfmP6Mbx3MJ7NGTBSSs6pvWybs4QlKw6QGxqGt68jHi1baPwIqR+bw6mNi1m5QOZ5Mev3nqHQpTux4c64XKrT+JM4NOvMDtGRt3sxaxfMEWVYzNKlu9h3/HwHdWZVVK4PcqJWLs+XG4i1TNRWVnZsIZiZ6Np0rG9jRIq45Ofnt2OjoWrK8wvJPFWF58SRhLvXUXMmgfhDB9l7dDf79+xm9255nCUhywrLiFE88vSjjInxwk92Nsxtxf86EW5/nuTtm9i8fh37TidTUamBszaYW9SRnHiQLVuOcjLdjZ7TX+XBsV2I8qkX6eaScboU58ff54mxkfTwkRLM9TTWlZC0LRenQV6UndzF9i8WsDy9Gt/p05jaN5wwB9lVaWvXn6Awe6xK00nevZ+DiYc4uF/m+SBnisB16CM8Oa0XwS51FCWcp6LGBu9R/UWeQdPqti+NL4zO3q50jrHg7OaFrF2/k3W7ssiqciCgZ1+cqp2IndCd4EA3OiD/raJyzcg2LbdnycvL45VXXlH+Ld8E/eY3v8HRUU5cto8bo1Gr16Nr0GMi9UnNpEZt409q1JqbS/3XtvMPBgw68Z1G+RpWZLc2g9KE5Tw9bRudX/8rEyb3padseYqOq9SdlXMvMl2p4arDoLEUYS3atlLPVS8auA4TCzNlvqZJxKs3MVE0ay0UO2nY1k6Dmfxyk4ivvvGinw5IXVhFs1ZjrqSpl3GJgplayv13jEYKl8Ynymoi54tEnHLf5jY6szItg0jETOrMioq4icaoKrcxsk231aiV4tenTp0iPj5e+aFhe7kB96toFGai0dlYoRGNRTRdzEQjt7K1xfaiwwYbGxFuYX4ZYWTxPXPR4K2FjbC1sbEWdmYyVHEEliJcft9WpGEpugbNk7kyXXHOxgYrTYtDkciGK1fuivwoAtbGvAg7a6Pg9o/tpAMwxndRnlvyIh2K/I4sm8in1aUORXJpfMYwU5EHK1l2GZ/8FGUQztfKVjhC1aGo3GBuyxW1Kioqvx6354ra9mBuh6V7FEPvHkmPMA/cVN0VFZXrwvWYqL01nYqlB/ZhE3jpf3/mvmHhhF7mLbGKikrHkStqZ82axSOPPNK6ovaee+5RPtuLOvxRUVFpZfDgwcyZM+eiFbUvvfSS8tleVKeioqLSyoEDB5gxY4byBuhaJ2pvkEbtUbZ/s5FT4i+5MV8LZmYavL1j6DliGJFhPrhdcSWriorKL82VNGp9fX15/PHHjVZX5wb0VKRG7VG2fr6Y3YnZpOcXUVQkj3wK8s6QvG0ly9cd5kBqsbosXUXlV+YWmqi1xdohlqmvf877X89Rxmxz5szi68//wWMDTDi5Ywcb9yaQf1lBWpVrQVdfT111HfX1aqWqtJ9bfKLWGgubIHreM4xYXQ71KedIVGXOrhvFSUkk7EsgKUmtVJX2cz0mam/AnEoqp1av44vHtxK0fBZTu7kR3CK5pquBnPm88thJmvoNFz2ZqfS3kIv3C9mz7Af2HSmmoMwSd/NKcn3HM/We7sSFOBt1RqS0WzzL/vQF6/clXbKHkD+977qfyb+5k4Gu7YlPatQeZs4Tn7CtpJKC5kgE8geCIfR+5Dmmjoqmv5/4Uy8GaYVbWPbDEtbvTVd++4O5lTAbxPgHHuDOuBC6Osj4Toj41mDzyMP0HBotwmR8LXneQIl3NyLuiiW6fBNv/WUhp8tqqJImbej9yFsi3QA8Mw+w6p0jeP3rzwwJdcRH+cHjZdKwyKPibHN8RSYB2FhpaKyvJdPgzjTx3dFtv1shyvuWKO9pUd4qdzwjBjD8yfuZHuWBXdV+1s5dwQ9LD5ElzdvgGdFf2P1D2MWz6XVjOZR6Nhqo3LLINv3JJ5/Qt29fnn32WVasWKHMp9x999107drVaHV1fsWeihadNpfUPetIMzVgcHPG3UL4mboqUle/w/a0OrQ+3Rg4tDexfWOJ0q5n1Y6DbEtokcKWvrCc/MR86kx8CR85lalTJ4ojBo/SYirSzlMq2nD74pMataVkHMrBzDuWuLEyrqlMnjiWoTHVnNywlS17EsimmrqqE6x+52uOFtji2WusYjd1wmimdjpPzuKN7Nsm7WR8RSK+eLLPV1DVOgJpyXMKGTJ/TbZYuETQ/86JTJjam862Fpid1+AzdCrjJ09lYIQ33nZ11JTmcvZAIrkXaeNemkYtJVmn2LVgPicsowkbMozRU0YzbEgY0ZYnmL9gF6eySqgV/5XIfZi++IL5Wd44xY1m7NhIOltls+uTH9iZJc6b+hDYbSCjp45m3MhgNKcKsTPWyx3D+hPtbkBj1qYcP5LuVLlV8fb2Zvjw4Wzbto2goCAl7CZdUXupZIA85ogbfRGrDhbj0DOciO6dcKcebW0mB+dsotAklC7D72TKtDsYNfVOpvaoJmfvMY4dyaLUGGszLgR0G8nEJ17ghRdmiGMqw4K98FDOdSQ+WRWeRI24h2lPybhe4LkZv+PRqf40lWWSmZ0nehJSAEpPjc4BZ+cAgoM6ERLihpuzA271mZzbtI/TJ8+JflE70Thi7dOHib97mqdeuJ+JfXvSo1McIx59gWefe4HJfYMJau9PlBsKOZ+awJb1ubiOnc7oaZOZMG0Ck6eNZvpYV3LXbyEh9TyF2gpKMlLYPz8RQ5RIU/TCnnvutzw0uQ8xogcpf6+ptwmm69DJPPTC73jq8XH0tA2gv7FeHr1vIgM7gaWZMV2V2wo5Uevk5KRsIGZl1awBcpNO1NbTUJvKrtkf8b93/82//y2P93n/f6s4YHM/9z18F/cMDcWpqRxt9WmO7HHFvEaHrjKbpCQxtElLp9jKG4fETKrSsklp79xjh+KTvYg6yvMzyUhJUuySk1M5m1WDSYA3nn6uwunZYeXQnbGvPEaMWS5p67/gvzNFWf7zAf9efIwD56vaDGF+HF9SUrI4sjh/kfRke5C/uK6mSDiDtDMtcaWSkppHiU7f/Jq+5jxluUXE50bSI9oHF2epJyMav7MLPtE9iMyNpyi3jPMVFdRW1FN8Pop7RnUj2ssBO7tQwofdx5//9xITwuxRpGjaRQM1Zflkp7bkKYlzWfmUVF9hEziVm55baKJW3LjOg3nymy2s2nOEI0eaj/27dzLnn08wMsy3eZ6kXtyMeelk6OOZ/+/HeWR4sw5szz6D6DnxTeYc2cuZilKK2jv3WNeR+GQzSGJFG7s+/Ucx8anDmPsE0qeHP27CFdSVx7P8pd/y7UlnHCfPZOZSUZaDuzmy6i9M7xli7CFJfhxfz579xfEU7+yOF2c6glEb97GRTBrUEtcoht7xGrOLKsg3Wsm3bGZmgfj5mGF8G4j8h5mPH4FmZs27B1RWUFNcQ7aw82prd01ksH/BP/nD2JY89eSuGaJed11hEziVm55ba0WtiRkaK2uspHyBTcshZQM0mJlKEQOBpRVmnp3oZNaFqc+/z0eLNyg7zyvHxi1s3f497zw3jv4uSoxXR3Tf2h+fnJQNY2xbu7VL2DhnPANOfceB75ez/IxwUtpiMk4NoOfwoeIChOCryBaIw9rCKO3QwmXi27BaHP/h2T6dxZmOILVx+zL9g0V8u6IlrgUsnfcK97iKnoXRSirqNemzyT+vp76lKyT+oT8vehP6JnFWYO+AjYsNPsKusK3dNdGJuEkv8sZ8mZ+14viOh/0yOLdrEwv2lBhtVG4lrseK2hvnVNqDmSMWDlH06FlNuXAweq8udBs0iAF9etDV/Aynz+aSUlSPRv4quUkPpSWUam0x2NrjeDnp+Y7Ep7gDe7xCY+jWb5CiKj5o4AAG9YrCpbKA0qw88qv1GAw11FdnUdlQjV5vwEJbjTb3FPuXrCEx5zwXtrK+THyDRHyDoglxFT23ZqN2IrVx5dxRX3r1b4mrL/2Ec/ITTlkZ+dq44+jlTJhXEicTCigrb5491ZaXUZBwkiSvMJy9HHF3cMTGyQoP9wRW7xRDloJqamuFI9i/iv+99jVb0msoaffEqw3OPmF0FT2/QYMGiqMXQbaiN1dSSJ46e3tLcgtN1LYXGyxsgunzQE/cG1M4tWEx38uFcnPn8f3y9exOyOV8ZRklOafYO2c+P3y/gSRLe+yCvPBveU19Ee2JT2fUgpX/X0LqgY1sWGRcoDdvEXOWp5Fj1w2/zp3p7GKFhZUXsWOsacjczo7Fs5kzewHz521g695MCsvrjXH9Clh54hkawYjhjuRtXcquNVvYsWEHW9bsYunWPByHjyAiVNhYOeDcKYgeU3wpO7qEdYu/Z/bsRSxavoOdSflUNOgRvrKdVJB3Zj/bl8j6mieO5Rwrs8PBL4gIv581rlL5lZATtVI6Um4gJsXCJDfhRK0FVvYueIV3wtXaDIurpKixcSTyvn/yZIwtjieWMvPtt3nnky/4OiOUgaNGcGcfFxrP7mbVOx/y3tcHqOzWic59Amj2qbJ3YCsajQ8eXk7YixHI1eMLxUn2BMxt8QizIPfgMhZ/+jZvC7u3RRpvf32Ikm7TGDTxDkYGiaGDYy/u++eTxNimcWLpp7z94Td8ujSdqvDxdI+OJsLNXvQcZHwOIj5/3JxtEMU28uP8XcAKezfR6AM8cNYIy9Zx1JXq79I07PAIimXE9PsIPbeGPQsWMPezuSxYsIc150K5b/oIYoM8RA9J2IX34Y4Xn+U+p0MkLv1MdHU3siXbmT5/fJTRwaIeWidqr1YOK6pz9rNppqyvd8TxNUdMutF1yHDG91CVdW9Fzp49y3ffiWHsww9z4sQJJayjE7U3YPGboVmjVis1ai0wb5k/+UnEd3SN6HTiey3795iao9FIqUkTRddV1yDOK8EaRdNWhjfTrIdrkPKPijykDPup+ExFA27Wj9VJ/VlRHRdXiKloWDIN8dmShkGkL/Vy9U00GWSYiXJeRKFo7JppRJyGJhGfyKHGqDPbWujL5U8i9W1FL0F0dUzFkOaCHOWV6k/m+dI0RJioG22DjvzjJ8kt1mPm5ku3WG/Mf/RdGacob4s2rqkZ5iIe84vmhS6XhvGUUg7xfVkHxhCJqZl0RKJehe2FeFRuBWSblnKScj5l1KhRvPfee9ekUXsDnIrKr4G2upqGRgMmGkvs7FRpPJWrcxusqFX5JbGws8Pe2V51KCod4jacqFVRUfk1uUUmalVUVG4VrsdErepUVFRUWpFroORyiunTpys/lpW8+OKLymd7UZ2KiopKK3JFrZyk/e9//8vatWuVsH/84x/KZ3u5QW9/qqmrSGbLB8s5XllLmTG0lS5jGDMwjrFd3Y0BKioqNxrZpuWrY/ljQrlPuqurK1qt9mbUqJXU0lCTyp6vF7PrQBLJeSWUlJRQdD6XzANLWLD9GAfPXVjgrqKi8utwi03UyuWYQQx95K+88flsZs+ezXdff8YHj8YS6XvZNfYqV0F2MhtraqitrhdPlFb1JhWVa0adqP3/HL3omuYdOcKxfSlkZ3fsaaKicjmux0TtDZpTKaQ8bwdv9foG+zdeY+TdA+nrIiVqi8mZ/yiPJY9g8NBxvDEhTLSUFg3YxayTGrBSRk3RgB3M+AcfYLzUgJVarKkbFS3WU5fVdn2bqaMHMMAtj+qMjcz5ZiFbE2ookIb2nth2HcG0x6YzJtDOqNnaljPsnbWQZd9u5pAx5AL22DrHKHqvY8LOkz5/O/vWpaLr5kTurl2cq6/HunNvBoybwv1TByqSBM0/l6kkL+0oWxct5UiuL866YrQuYbj1HCbsOl+wq0zg1I41fPLuGtLEn/JnCM20TdcRH22z3Wfvb6LBIxZn02pRNh1mYT2450/PMFJE2Pw7nRzSTm1i/iffsktEWK/zp/OoOxk3bQxTQ22Uev7s7cVsPZb+I7W6zqMeEXaPCrt2XA9Fk1dq/H7M1uIraPyOjmGA1Pht0el99QvW7Uv8sbbw3fcz5TfjL9IW3nukmMJSC9yM2sJ33RvbRlv4eBud3piLtYBfXU+Jj9TQHUB3w4/t9HUVomhv8fbicszjxot0R9LbMoP4Od/wxdYEEpUbRtJcjvF/fI7xrWncfrSsqO3Tpw+///3vWb58OX5+fkpPJTIy0mh1dcz+1lGxBCM7d+5UJnPuv/9+Y8hPoC2lNuc0y2YX4T1pEJHRPniK69TUWEvl6ZWsKg4mIDCMoZ0tqas8xfp/fczhejfsQ3vSK6YbkZ2DibTKJvNQBVpTWzw6i3OYoDNxwjfMhsasEiqyTfGeOIVhsZHExvUkzEdH3dmdrP3we045xxIaEav84C8ywJVAfQbHN1bgEOKOi5dosMZsNpPJyVV7Oba/DGtjfNFdI0WleuBkqCNnay4eUybQxaOIrA3rWL/sMIcsQ+g3OJqImE54mGZTnHeWnTVh9Pd3xEpjSlHCeg7v3siWyij6dIukc4iPcAQFFBSeZVOJW6sdNedIPXSMxfOKCJl+B71iY+j+o3R1VBxdxfaNu9lr1o/xdwyke0yQaHDnKSk8x+5CD3rHeGJvWUP2gdWsW7mRRQXB9B3cjx4BptTn5JOVUYtjTBSelnp0Bltc/eyxMdSSLdJwvXMKfXt1p3dcD7oEOeGgb8f16GKFpjyRNX9bT1VUf7oMGkB/Uc4u4cF4W2Zz5FQDelsHgqM8cFRcZSrbPt1ChtYN71GjGRobLurXktK9uZg4BeDfvwchwoGkrf8Xa1ItMLh0pWdUCAG+jliW7GVPsQizdBR1oadWSXcj9T374tfFn+YfR7eksZ1sgyuu/UPppL/EzqyEmqydfPfu5yzcmk+jX1eioj3xOreeNz9KQu8XTUzvOHp28ydYOMPMFWdx6jeQkNY0bj9km87KyuKuu+7i5MmTygStXq9XpCXj4uKMVlfnxgx/GhtpqqyitMkJC1sLqZ10BZrkz+eoMzg1a8AG+BAY6Iyzgx3OdRmkbdrfrAErtV29+zDhiad48vn7mdA3jlip7frI8zwz43km9wkiyKkJvcFU3PTixvUMIiTYU3hdEZdI26YoiWOLdpKcXdxG/6Qtdri0ie/55+XxEA9O6EMXcVbTbCRowtTOEaduQxn/1DP87vkZPDwhlmBDPpvnHCSjVks9JWQdOcZp0WDMYqcwYcpIxt47mTuHBxJmcq6NXQsOWNnGMeaxJ3nicunWZZJ8JJFTZ80Iu/8pJt87RonvvvsGMDSkicSlG0goqqNK1yyKnXigDtcRz/DoM8/x3Iz7mDo4ghBrExoMGgwOUQyc+hseVdIYTIx1EAPv/R0PP/M894/pQ4xHO6+HzJdyK3kSNfxu7n2yuc5m/P4JHpnaiaayLKPGb1uatYUnPC5tfy+OqQy9SFs4g4NzNlNoEqZoC0++dywjp9zJlNhqco3awtcuA9VAdUEyiVsXckTni42JPcpmAKLnUp8ez8YEOwJ63cVDSjme4MnHxhBna9WsTnibIydq7e3tlcnZlona6upq5bO93Bin0iRuzkbRcKwsMDUzVTqTl8cOK/sYRr/8CNFmuZzb+DWff/Uf/vPeR/xn6XEOXqQBezXc8Ow8gHHP3U1I+k72rPgvn34m4vrfd3yyMZWz9boO6sReDhd8A7px1/Sh+NtYYokTnmH96BoYje/eI8RXaynXppKdVkVmkj1elkWcOytu5sREMiu0aGvMcRV2p6Wd/KmveCo0GfRKPWlMTC5/ccrTyc1qorgunD6x7uImaLay9fWnk3iyBKcd58z5RipqiigvtsTCEM39YyPxt9Jg6dSDIb95lBl/uo+h7mB51avfkeshR9F1lOVnkH4mUSljUlIKqZltNX7bSYu28F6pLSzqqSJTiS/57DmKLL2wT2rWFk5Vxoc/TjcxMUkcmVfUAtZWie+e2suKDQmEP/0Ig8NDCJQnzKwwd/Ak0NMMfanoiSnxpXAmJZfiFi3g2xw5Ufv9999fNFErf1DYEW6MU6mrpbEwj6RwHywdbH7C40sN2ARWvNisAeswaSYzl7RowP6V6b3aasBeDTH+PrGeeS/N4JvysQx6fgk/rBVx7VnJlllPMsjZ7hd88tQK/5BBTp4YgmUXUVpxhj2H5/DmxJ4M6mPUcx3+CI//ax6nhV2GtJN3f0UZlQ1VpESIYZTGjCv3sl2wtvLGz0e0gxaNEwcnbNzcFV0ZxWkXy3RNKb/UrkN05HrIFp7Ein9dovH7dIvGb4Bw8+1E0RYW9aI/zbw28bVqCx/e82Nt4bZ2ihbw0/znClrA2bsXsGbtSuaH/5PH+joS2iJP6hKKy9DnmDXDjtIFL/KUEp/UAn79Ei3g25dbZkVtvXAqxUV5BIuxcpCbixhXXwmjBuzpQfQaPpQhg4PxsbJW9nS1Fk9aTaseSHuQqvEmFJ4TN/bjg+nRxRt3GZcYe1lZatromPwSWItG3AkfLzOsfF1xsg+hT/d7eHH2Jlat38SmTeLYvIUt21axftW/+W1XR7xFTzMnM5nk9FOYBPnhY2beLBN5Wcqory8g77x4qLe8Sa6qoK5UDLXEP5UHuItMtwnHS+06REeuh3Rl4dzxwod8vNRYxvXLxPCuReN3KcsvnpW9MlJb2Ev0vMwiuKttfEq9bWP7zjm8+/ydDGjVFr4k3U1rxfEOv+/bRZy5hKRlbNxYwL7Ckfz52b64OFhe0IgxMcXMwpyAABMKQkbT5/kP+WHTIpb/8Cr3XqQFfPtyPVbU3gCnUkt5WSnJpxuJiwvCy9X2J4Y/LRqwGVTWV6FrqwG7ePUlGrBXoxG9roya6iwqtA3yNRfmtUWUJB5mz9L1pImuQZ3R8topp7LqLKfPpHJep0MrekcZ6Uc5lH2G8716EGlvgaNVKH5BTniH1pPS4Il/r770HjiQHn7mmJYmsuZUBXozgxgWiu52SgZ5qU306hGNvRQEN6ZyEQ7+ePmCk+VZjp4qRdvYLJFUm5cjekZ5nAuIIsRdg72dB87uWuFgEli2NZWcBpG/yngOLFvArP+tYn+pGAa0VVe6LB25HrJl2uEVGk23vgMZKMo4cEB/BrZq/OaTL4fmirZw8dW1he270qOX1Ba2ROfZmRgRX//esUSaJXEyJYczhXWYt2oLX5LuQJHuQFEPLm0n4aVXzWb/5rWk11oROvwu7gx0wvqCGpagmvraBDYt2Y9VQBwDxk5i5MA+9O0dfkEL+DZHSh+MHDmSrVu3EhwcrITt3btX+WwvV27f14misyc4tHk9K/flgtcGNhXYcdwoV9jUUE3pgRzO5x3mpLUbm3260y3Im9ixNpzI2sGOxbmkaczRF+aQeySLwvJQRE++nTjg7OVBt6F64nctZk2KFy66RmozEzh3opBabaeLFMuujSaqK/JJOyy60nlueJlVUpqdyLlGD3o90IdgGwtsxG0dEBdFVEUuJw6uZFG9G54Wpujy40kvqCXdOZAGfT7J29eyY/NxjifXYZOynaULRX9HuToFZJ84yZn6PEo3bCH83h54dA0jKncHa5bMZVNNd7ytteSfOsiBND3+E0YT5WmFg8YN/+4hBOeks2/TLH6oC8OnLpPUxGpqHaIIFm3s6msJpCavNz3E9Th+1esha7NZ47dRf44U2ZqbRJhwIIrGbxcfPGpPsmf2IbJKD5Bo6U50sBcBP6kt3IsTx1M4vWEx3yWI4WpjHaXJmzhsGMWgTl07eP2kUxF1qQ0nOrYnk8bF0ImG5lNGdFXnKTy7he/3Q+cXQomL8BJXr7ADD7Jbn7YTtfLtj1ym39GJ2l/8lfLp5bNYOutzVlfYUZEinMfBvYrnk8e+g4c5nqvHpCCRpHOVpDYEMO7OgfTt5Sh6FDvZsW4jK7YmcfysGX69e+PY5E1EXDidewW26YqWkZ9YQGWdLd4j+xNuj+iWy3A7HMUQoHO0Bee2LWbdht1s3JNFdpUjgT374lTtTI8JsYQEul4yHLtSfDVU5BeRdboKzwkjCHcv4/zedJJPFVPjX8rhxevYv/MwBU0xwpE9ykv3dcVNY6Z0Be28OuHr6oRXwhq+XbRO1N1uDheIJ1/kaF56dAyRLidZ/sJ/Wb07nXTRu6k7u5dD+1vq6STxaTlU2FQTv/oUljEDxRO5C0GaMk7+sFicqyL92GH2nSymzDWWh196gF4u5libWuES6Imbm46qHfPYsHE/ew/Xo4kZwuiHxjMhUPQYWx/Sl5bNWjglGW6JxsKdKHE9in7yenjjXFfAme37OZ4qHiKHjXnfd5i9x+txHz6dOydHEFa7h4V//S/zjudiOXwko0b2pp+XrP1mh5S2Nx8Tn2A69YwgxMkC96he+BclkrJjHT+s2MS+o6c4btaLu++eyvg+YXhaNdBYVyLSzcNpcD+CwrzxUroTl8YXjJ9pkbBLxmr8i0ycPIY7u0jDi+08AqwxP72ZpYxn0pRe9AlzEG71Smncfsg2LYc8BQUF/OEPf2DdunU4OzvzwAMPKEv328svvvjtwDd/Z9POQ5Q/sIRX+oKjsZdyEce/4F/LC9lv0pdv3pmIn0EnHht69G00YM3MpDatifL2yMzYWJtp1naVD0WTi7RdJVKzVY9ODE30LVqs8q2KabOerJmFmaK7etFXrhhfs1asXgw3ZLiZ6THW/H2xGN83Ev7Fv7nbuwlbMV6RWq9mZuaKZu2FeGU+RFlEPhpFmZQKlxq1ZmZozPViTL+X/038jpxO/ejx8sOM91K+1IYi0eh38c7A2Tj97XVG39Wf3o566qpryD10WAxtnPEK9iMk1FWU6ZI8Sz3fRll++besP6kha9ZG01dyadkumbuSmrw/eT2MmrwNYsgpbqeLbyip8SvSlNq3ii6uyIsINRFhGpmX1nyI74tzBhNxbaXOrxIs8iXqTCfz1qotLPKuaBKLNBVtYZmuTsSnUfJyoVht4xPh8m+RvyZ5bUS9XzZdmcemRrR6qdfbbCNK+RNp3F7INi01auV8yogRI/jggw+U9SqnT59myZIlRqur84s7laqCLMorqtF7RuInnvri+v6Y6nyyiuWMhD2hgS7i+Shv25udo6wWTmXHria6fPMOD/iB7TUNJmVrr1J6R1orR+z9PHH5kQJko7jxK8g5UYCZfyec3BwUJX7pqBqqqmhoMhfDFEusm8dLKirXxPVaUXu5Jn5dsff0p1N4JIGi93RZhyKx88Y/MIAo4VBkz/I2fRBcAVkpjnhHhhMQfDmHIhG9Dws3Ant3pZNXs0ORmIintZXoljo626oOReW6cD0man9xp3L74kqnmB70HNWDMNufcJgqKrcQt86K2tuSQLpPuZf72706VUXl5keuqJWyJL/97W+V+RSJ/C1QR1CbgoqKSittV9ROmTJFCVM1alVUVK4ZuaL2mWee4bPPPmtdUfvmm28qn+1FdSoqKiqttEzUbtmypXWids+ePcpne/lZr5RXrlzJCy+8YAxRUVG5lZHbnGZkZPD0008r61UiIiKoqqrCwcGhQ0Oga3Yqsnskj8vR2NjIuXPn8PHxoa6ujvr6esUDqmFqmBp284d169aNt956i6+++krprUh1fX9/f2PrvjrXvEw/NjZWke3/3e9+96Nj8uTJLFiwQFlII38/IF9TzZ8/Xw1Tw9SwWyDs66+/ZtKkScooRC7Zl2+Dpk2bZmz5V+eaeypXQi6U+de//sWMGTNYtmyZsiJPZlb+Ww1Tw9SwWy/s3nvvVYZC7eW6O5X09HRlbJadnY2HhwcNDQ1Kl0r+Ww1Tw9SwWy9MDpHkCKS9XPe3P/LHXnZ2dsoqPNmVksifT6thapgadmuG1dbWKp/t5bo7lbS0NGWcJt9tywkgd3d3JkyYoIapYWrYLRrW0Te8133409TUpLz9kV5OfkqZAXmoYWqYGnZrhsnRR0e47k5FRUXl/2/UFbUqKirXFdWpqKioXFdUp6KionIdgf8HXJEStAhpSIAAAAAASUVORK5CYII=;" vertex="1" parent="1">
          <mxGeometry x="1382" y="186" width="212.83" height="126.01" as="geometry" />
        </mxCell>
        <mxCell id="tFcRdSrbqhkbJn0zH4gM-30" value="" style="shape=image;verticalLabelPosition=bottom;labelBackgroundColor=default;verticalAlign=top;aspect=fixed;imageAspect=0;image=data:image/png,iVBORw0KGgoAAAANSUhEUgAAAQsAAACCCAYAAABRne32AAAAAXNSR0IArs4c6QAAAARnQU1BAACxjwv8YQUAAAAJcEhZcwAAEnQAABJ0Ad5mH3gAAEHySURBVHhe7Z0HfFVF1sD/yUvvvSckgRCSEEIgECAJoUkTERRdG+tasHfddV11dXWbZe3uJxZWBARBQOmdAClAIAmQEFJI773Xl7xv7n0vkISoAUVB7z/c3+PNPW/anXvmzNy5Z/Q0AhQUFBR+AH3dp4KCgsL3oigLBQWFQaEoCwUFhUGhKAsFBYVBoSgLBQWFQaEoCwUFhUGhKAsFBYVBoSgLBQWFQaEoCwUFhUGhKAsFBYVBoSgLBQWFQaEoCwUFhUGhKAsFBYVB8ZO8ddqQtoV9CSmktbgxeu7dTPMGUwPdSQUFhV8FP9KykPRMMwWH93Fo4wq+2raNL46U09LRpT2toPArp7E4lZxTB0kp19DZ1UxN1jHycnMobtUJ/Ir4ccpCo4bOPNLSuzG38ibA35ajsYnUtXdwOdWFZAx1trTQ2txOZ6eimH4MXZ2dtDe30tLSKderwsVRk76dw5vfZsWBM5w6c5SEjV9wMO4wZxp1Ar8ifpyy6O6AkqOktHphEXIN14/wZOj2eFLaOqjRiVwOujs6KDl2jKT4TAoKGnShCpdCQ0EBmfFJHDtWQkdHty5UYbB4hkwkYKg9le+GM2fydbxw0JZO6zFEO+oEfkX8qDmLjsYK0pYt5L9VixkbEcpE/US+fOkTSu77gidn+zPG1aRHUhxpfPP8p+xISCdTG6jDk3ELf8f82yYRwjFWPfABMdUNlOvOYmAOvot46pGZRA+pJf/ANv7vnT202wdjo2qmsqkblV8oN/7xfqaJC2SqyiRh+QESdmShDrah5NAhctvbMRk+jkmz5/O7BRFI11ElciHJpZzsxuvcb4VZeXobB8Rwamm8NYte/RMzbVJJ3rCJrzYmUqjN0TmcAyYy5d6XuD0ojT1/k8rWhWribO79xwKCxHkjqjm97Uu2fbWHA40jtfENteZctZyrl53kVDfTYt1BUWIiOSLUddxc5i6Yy4yJgdjLshIivoQ9HNp7nPQyB9woocolirHTJwg5dyF3Pr5ql1GMuG0uEZZNImgVz396FvWIKaKeRZiNsJEr97H0jfUkZ3Whb+GIeVcdp6qNmfHEg8yNHkmgZR1N1T3Xw5/gOxew6M6JDJdtxkrilr7Bpn1FVHpM61X3l5C/c4Ub4HrUxbHty4Hq3hHv0F7pCrmEPZv4ZlsiiT2CnuMYN3cB82dMFGkMNt27RHxp7PzrhXLVcUv5ctMpktXBIt1ecg7eeM4JxaNJlLVZDMpP7+TQ8UrKrMf3qhdtHFc7P8KyaKKjLUuYYG1Y2bvi4eeP9xA/ZkxzIiUujdzyelp0ktq5jVqKTxXS2OmAd5S4EebOFIc/NuVlVGeVUi2sBXV7FTnxuXTZBzJyiiQjjjlCLnI4XrZqSpIPEB8TT6ZDOOEzo5kybxoRwSYYVR1l2ZojFLV0iObYSFVeEof3H2RjcjsuUdOInhvFKLsSio+t5c2t2TS2iuGTLHeW7JSzlLQJa0XKYkMayQd2suaLHRyKO0VefSethi54Bo1nytzJTIv0QHO8GCNd/qZOCiPAXoOhSlu2sqxkckuT2HSkhjbRSzek7eFEWiJHsipoFvGVSPH1GTX11MtB9sYkc6TCnMC5s5k1dyJDO+M5fGg7X8YVaUUFRXFfkpB0krNGAUyYFELIpAkEGKVxMilGJ9cT3xlypDqtKaXhxEZefW8/uSonnH08cTERddRSxJE1yzhaZYRJcATT5k0heqaoU4dMuX4PJOfTIGqy53rUlBwh5expDqU1CKuuhZoja4jPyub0qQLqe9XfRedPuofPMcD16KimNKuasnIb/EVbmCm1h7kh+Bi26dJVC7ls4r5cy6HDJXQOjdK2GekY2omoQGK+jCNbpKseVLoaEV8/Ocl6rjnCnm+2sHHtPo72l8ttps3an8AxEUwONqMhJ43DexN0crpy/Eq4dGXRVkN7STIxJSNxcfXAx9kGa1cfQmZEYnUqieKSKir7XBQJO9EjzGLBA8/wzDNPiuMmpg91xVl3VpsdF0Zdcwu3PSLJiOPJR3nmjoniZq8nLzGVlEx9ht3+CIuE1p932yJuuy2SqcO6OLVuB2lVbTRKekD0fnrmVliMjGb+I4/xsEjrnvmh+HYVsu2LI+QLpSKuYy+kK9pM8fFtoqfNo0DjxhARIj/QMR9K8LQbueuZh3jkgXmMt/AmUpe/+25fyGQvMJZ7Dju8gobg66eiaOseMvMLOB6TQrHaBNuxQqkICUNJbEDU6Nu54RF5LbeKMj/5zBMsjnZGPy+TA9vThJXVJf7KSdt+gLMFBjhMWsgtt81i1m23sHCSCQYFaTo5qeQ6GoupTDnA7jU72Fc3lHHzruO6KcEMNW6krSqNHetO0TVsKpG33Sbqch5zRV0+cvsw9DNTSE08Q4E8Qae9HoFRPtiqaigQiiQ9XyiarUdpcB+Kq58f3pKYnOpF5m/QOOM6dDo3yfUitYk7WDApQJeudN3aaW43wtDUHd+hwwkOdsfT0x13g1rqhJV2fHcKBULq4tOVUAuFWcHZ/Ss5Vq4WLcQeV92ZvgxW7urmkpVFV00ltUkJHHJwoa27jpaSTDLLqik0tCEw7zA5Z4rJrhTa/aeiLoei/C6qWoYTHuqIkZE26xYeQ/B0d2No9nHOlHZQ3y6F2uHhPZqb75zGEDNjjLHBZfgkRvqMxuPQMVKbOqjrNTzXdHXQUnWc3VsOUGntxsTbbyRShBtrTw8ay+GiJw0aw8TsVezauZlvkq0wGRLGlJnDdBLfhRujwsSYd+5YYWDriz9HfMbPIdDAFrOUdFI6O+nsTCE9xYCmUmMs9SrIzBT1LY4KPUuMS5swkOWgU+7JRHnOit5t3Vo+WFFJxMMPc+0EP/wsxKn2ejpKz3A8eyhu7p4M8ZACRUMwMsIxNJzhLVV0CYWQUycHy9iPm0+okymup9awbudBNqf7ExARxqgxbloBjUhYfZH5qyunOEcroz0KKKlu7GWNCtSdqMVl7jQy+A5FK6nz4Uy681Yigixo2/spHy59mVdefZmXP9vFt2kVVGkFLwl1ey3V+QmsXbUfk6hoIqZEMEp3rjeDlbvauWRlUVNdxrGD6+hIeZd/3ns908LCCAubyZQ5z/FF5RE+2neUhBOSTv8pscPU1BVP0UZVPeNAK2vMHZzknuaHl3Y009WVS1GJmtZepkVHUw2J793DsuZQDELmcJNkBlwSVriPCGDOkhAS3/g7Ve6BeI2ZLFsVl0YNLa2lFBUKy6KwiNLWdLZ89SpPz5bqWnfMfppXv9pCuiRXIpS4rATzSEhI55tvMmjvSOXgkQKqqnvbUlJNeePkYI61lTZErlA3T1xNTUUt98eB4KmhBIYYcvBfr9F+7Z0EePkhjCotXaLfLrnI/PWXC7uDJ5duJ0GOUEdlOeUmwmYZ4oy7+Hrh0F+KrISD773I8m8yyR/9d15beYy4hGMc2/EWL94yUWeBXBq1WcfY/9+neN/hScaGjZStyIEYrNzVziUqi2Kqy4o5cXgct732FcvWb2Hzpk1s2rSZzRvWsfM/ixgjeo789Lx+k5k/lnrahLlXWiGaSY9d2dhIa0010ohYHoF8L6binvDAxVmFSY/ZUHuWhtjPeWVDCKMnTOWaKG90RssloIe+mQcOY+7mldXref6uSCKGqAZo5IPFBlMTJ1xdRRyurjiZDGPavEd5/nOprnXH5m1s37mKT9+6j7liPGci592DMfMX8/T//sk//r0Q8/WfEHssi9PnHhxJNVVEdU2rVH1apLu4opSK9jZRy/3RQ2UbTMj1z/DW2lX8aY4rfnb6IlSHpGicLjJ//eU2vc2Lt00hVI5QS2baUQobyzF2cxK210DKQipHCSVZfrgOmcKsG0fhY2aJtaUllhammBiqLr03LErg9P5DvBMzlfv+MIWRfvaoBopssHK/Ai6pWC35qWSlnybWYjKTZ0xhxvQpTJmiO6aJ48ZriDDJoz4tRZ4Uk+9scUPXdpihMbM435tdDFaeuLhpsDE6y/GTNXR0ascRLaWFFJeUkOMVhK+jIZZGUmg9DY1nSc3MplytFkZvA/l5yRwryqR87BgCrYywlltePeUFSez6Zhv6k24lOjSYIHtT6cSlozLB0Nqb4EmRBHrbM7joKiivyiajoEjYEt3ir4a0U4c4oW6iPdCfkaaGYkw+Ev9AFUZC0dVZDmOUqOvJ4hjj2ERdZRHHC9swFr2wnnwHm2Hr7s2IqCmMn72Im0aVkHL4sHbi0sgSQ0dfgrxyKCkpprBUa/h3d3ZQc/I4Z41s0Li54Nn/GhlaYe3mz+iIifg7G2Mh17MOPTFIMLnY/PmLOurVbqaMZaS3k86qkZRANqmJBXS1WBDoPxTpAdI55dSHVtpbymhuq6VDo8GkW41eTTZpu/dyIjVD1OylUEFG8gGOnczFbta9zA/0wK1PgXsYrNyvg0tSFpVnMsk6k0N12CT8HYyw6j2gVInK8goncqRoX3XJbFu/mZ2r1/LVyt2kG1th7uOCl7lO9mIw92F46DBxAzZzesMa9u1KIH53DNu3JJKQ04XbvGsY6Wyiy0sXTQ0lorFt4qt1a/hy9Sq+3nmC9HY7Rt8azlAzI9FcJRppULdS2O3Lot9PZZyPo+jLfwnUVJWmcyT2G1auXs3q1StZH1NIg7MXwdcECXNfsk68CLomGC/nRgpjeuRWs2r9JnYkpJFV3nbhJJ6hNaauY7nu9xOwrk7k6IEDxOSpMXEeyTXz3OjKSSBxy3ZidseTsGsfazacptk7kGGhw/G5qGskad5LyN+AtNHZmkvKt6vZF1dIflYRVSf3yXFpj50cPJVORvlZUnbFcqbaBtdQM6FMUjn2zSpxfg2rV4o096ZytrChn7XZQFnmUQ5+0xNX//gOivjaaVLXCAtLH41TIHf8YTIjzI117aU/g5X7dfDDw/wBqBWma5fKlslRoXgYG/WbCJTu1iAmXhfFqf3H+TZhJUtX5cjDEc+bHsE/3BsfWU7qJ8ywcXOmw8kac2HKqrDEwdcdc2thQl5gc9rgN2EakXU1xL+ylFX5kTgZ1FMkLm633ziW3DMNb9HAtXmxw6BLXLbKWFaszaSrrROXoOuYduMfuOe2IKxlGdE72rkwLGIWbnf+g7vGW2MrX2lRHgtbnIa6YSsyYXhOnYr8GQyUv/7l0Iae57vi640bxupySk5t5cOPpVUW4Bv1CDfePp/5U6XnMlp8Zt7PrYabMF+1ng9e1soJQa67MZo/XCdNjkqPn/rmRd/YHMdp97Do2POszj/JtqNjmH+LL9PuWcKx55eTuD6D/BgPrNUVxBbYcN1fI5k2wU/UdjWNA5a3B6n+HHH06MJatCLJYriU/J2nJ75SDBuPsubhjzgk6rzO4hRFy08Rr5PS0kF7kwEnXnwXl5HLuP2u27HdIymmd3g5R2p/w4mKCsE72AILJxuRop74k9JVUbs/hth3YtisjUhHT3z/EfE9AvaeBM+dx5Bb70M0Fx29yyvi05Pi+yG5Hkvq18ElLcrq6mxHre6i28AEEwMxdh2gQjTqdjqETGeXBv3ubrlX0Tc0wshQmNTnBnXifGsn3friRjQyEE2ji47mTvSEAlIZiLD+8Wq66FJ30lzfRHHicUo6xE3o447vMAeMTIwRWRGN4jib/7aO/TEdDPvo79zg3CU3Sj2VIQYibaNz49gu1O2dohzdaIx6l0MMA6ShS1sX+qYmIk49xD+BBo1If+D89S6HSKdPvr8rPgnp0U0cH87/giKvCYx5ejGzHbTDK30DIwylupLyJYdIaERc0pORTlG3WjkhqJUzFPUnCw6Ul25RVtFjd4uSGxhiKmksYa63t3VQlZ1DcW4FtUZujB3njoW1uUhTKtv3lVdCqj+1PLepf67uLzV/Ej3xVdBQk8Ab4R9j+uyfiF4wkXG2OpFziCHm9t3879FD+G1cxo2jbPAyktJVo01WhYGUIdGy9fSEghbDOKltdba20yna5IUWTu/4Pmb+cCth/Yp2Itqr8bkM9i+v+C7iU4uYv19OqpdfB1flXqcaoXzaGxpo6zbA2NQYU9EYzqNVFjEHuxnx2evc5iFGMJdkP/0cnFcWJd5RhD93D/N/5gf0na1izC81en0xhLMyRv+8JvuFkBaD1VGQVIZqyBBsHa37DnNlWmmqrqY0oxaToBE4WhgOYPlcDFmc3LyNpffuxUconxtCHPC9lKHyrxyh964+9PT1MbGxwcbOop+iULhYDE1Nhdks6tLG5ApQFBJGGBg74TtxFEPcBlIUEiLP9h74TQrG0/rHKgoJR1yDorjh5buZIsay9r/eOcofxVWpLL4fO9xHjmbMtNEME72DZAZeuUiZc2b45AmEhA3F/Uc+iFG4VGxw9B3D9AcXEOZmitA/CgNwVQ5DFBQUfn5+hZaFgoLC5eCSLIvPP/+c5cuX674pKChc7dx555384Q9/0H0bmEtSFn/7299Yu3Ytd999ty5EQUHhamXZsmXcfPPNvPTSS7qQgblkZXH8+HF5Tb+CgsLVzfz58xk7duwPKgtlzkJBQWFQKMpCQUFhUCjKQkFBYVAoykJBQYGdO3fKE50NDQ288sornD59WnfmPIqyUFBQoKmpiVOnTrF+/Xry8vLYtWuX/L03irJQUFAgOjpafiLyySefsGTJEvlp54EDB3RntSjKQkFBgY8//pgNGzawYsUKFi9ezMKFC7nvvvt0Z7Vc5nUWRZyNP8LmN47j8uqzRA8rI3fNOjZ+vodEnYQWRyydA/CPHs+1M6cz2sMU23Mb8SgoKFxOpHUW9vb2TJw4kc2bN3P//ffLn9L33qs6L7Nl0UpzdRFZ8akUNUgb7DRRnV9GZYk+zpHzmT1vvpzR+fMjiRpjhHHxt3z02n/5NjGX/D4+4RUUFC4nGRkZ5Ofny8MRafgxZMgQ/P39dWe1/ALDEAvsPcOYce9TPPrEUzz1lHTcwwN3XcPsEAcMsrewU9pGIKtKqJpfDk1XF83l5VSU1NLYeMFuSQoKvyqkCc6WlhbZwqiursbMzAwLC+2eMj2oXhbo/j9oJM1TWlrKrbfeqgv5Lmooz8zi+KZcbG+5ngCXeirjT5OXr8Hh+msItkLndl9YFeYeePiEMsH8EOv3NdNq4sDoMC+sNd2gbqCuqoxycfOWV1ZTXVNLdVMHapXk7s1A59dSGk21UldcQnmpkBMFlgqtPRpp69ZH39gQg+4mqnILRTyVVPScl+MDA3HeUL+D9oZqinIKyE48QebZauqa2tBI7u3MzOX86um10VRdS21ZLU1tzdSUCWupqora5jY6hf41NjGStbAeWrm66hbU534LXa31NFRXUFguEjU1x1DTIuQqKC0qPZ8n3dHQ3I7ayBJTg1bqS6Sy1csbKRlZmcgOVPVQ01pfRbW4HqU1Qr1K8an0UXW30t5cTWVZMWUV1VRVifjqm2nqFL8xNjmXFwUFyXFxSEgI48aNY+nSpTz33HPyFINarWb8+PE6KYE0Z3GxCP2iue6663Tfvo9MzYlN72gecrpO80ZcpeZs0zHNppef1Tw17Y+aj3M1mqZOnVgPnY2arqz/0zw1/SnNs3/brDkuhambNJq8/2mWPjlOE+VvoRHaTmNh66SxiLpH8/CGU5qjNfIvBW3iiNEsvWmKJkqS6XOM0Sx4ZrlmS2mFpq5kjeYFPy9NQO/ztm4ivn9qlsXnampqjmrilz2smWbrqJk66Q+axdHXaSL8pmrGXfu85n95Is9qKa0kzbZ//FXzaMD1mgfvuUczy8lJ4yHi8Y9aoHly6RaNENPIYjq55/r8VqOpObpcs+zhaRo3n5s0/0yo0uSe3aJZ/swCzZjeedIdAVNu0rwQ06apa+spW5Rmyk1LRUm1JdZoSjVHlz+jeXiMx/n4muVENKc2PKy5J8pC42Sri88/SjPuyaV98qKgIN3LRkZGmoULF2qys7M1Q4cO1axfv17T3t6uk9Ai98lXDCoD9D28cDOuR1VfI3pZ0XPXHOKjhz7kjOkcbv7HarZs2cKWdcvZ8nsLDFet58DX8WTofi47g21zZOSsh3huuZDbslEcr3LvqCF4tXfSpZGc0EJHsztT7/8Xr6+WZMTx7Vq2vHMbswMNKTi4k4PxuRgt+ZC/vv4Mz739D/7+5+nM8czjo3e3kN3YKuyFbtSdRRRUFhJTM4I7lq3k8y3L+cfNDpieWc5DHyVRIywf2VFuZzvtrR3abfukozqOgzt38+WGDJqFJdLRraHbdgIz73+Fj7asZM3yZ7jOJICbdfn731t/5a4QMDfUls3DrRMbhyy+2lJGS2uXiO4rkgsKKbQKYpKIT1+KT5NB/Ndfs35VLha//5Tl677VlvMfN/Og6Rn2PPQRh2uaqJWqTEFBcNttov3Pns0TTzzBO++8Iy/S+vLLL3VntVxZykKyi01MMFGpQfIQ3WGMoaknQdcvYJStHpr8eA4flnav2sKmnXHExqVxtqQaYcz3wgxbt+GMnBhNdHSUOEYxzN6K86Mvyfa2xHX4aEInSTLiiIogeswQXPWKyD1ZTGaxGALNnUVoWAABocFMiB7NWB9zWvft5WRpO3XyFIYpNi6+hF83i0hpQ53oWUyfEkGQrQVlXx8hUyiIvvmS3E7XkLZ7Ixl1LRiNimKMCJHdPRrZ4zIsmHHRE4mYEICnkS0+uvyFh47E16bHPaAZLsGj8B/hiumOFRxNPcmu/RU0mrkTMH00TkJC647SBpeR4wmZOIahtWfITN3G7t2i3rbuYef+4ySl5FLRqRZDJgUFLVfoBOf3IM1PNDXRrDZGI8bVpqZGqAwdcPW3R7+pgaqSUgqrpHmLKso7VTQLw+hCt+4/guZyqisNaO7yJSTQCkPdJh8mzm44u7riW3qWklo1LfJdZoG9kw+TpgbjKM11YI6N2wi8nD2xO31CKIROGnrtcNPd0UJZ8td8e7iYRtcAps2d8AM7qw+MqVsgw4JCmGxygph1KzlU6oy1XzgTQ3q7BbfCyskBWwdDmnOLKKoup1TaN7SxjZouA3njnYt+Xq7wq0aa4GxtbcXOzo6amhpx75leMMF5RSkLjVr0dvlnKcIW7B1xsxEmf0MGu/7xH/aVuuN67cu89MZKVn7xGSvfuYd5Qe4DbOL7YzHHyNAaW9Gbn3N2LSrO2MISB/HfH66wdrq7q6it66ajp+tWt9FWkcOej/7DXlUYdmOmco12p6VLwAInn+FMvn0i9fEHMQ0IZuioUN3GTT1UkbFnM9tWx5Lmey+L//gZHywV9bb0Zf56z1RZ9ordHUHhF0GyKEJDQ/nss8+45557SE5OvrJXcHZ3tFNy9BDp/i4YBXiLnreVrs4aCtJnEjF7KlOiPOUb9vKi27n83I7fgoZ6mqsqyBP/7bsd3kCYo1L54OGqwrRnYVlNNvUHPuGv30YyKWoqs0U5fhQm7tiMWsJbO2P4x31RXBhdJbXlrpgYXssdj4Ux1MJI3itUQeG7kFZwbty4kS+++ILf//73LFiw4IIVnFeIsmigtjSGvV/9hSXvV+PiPYLxIZ5y5jRCYWi695OZk0lxWRN6bbW0Zh9iy9sfczgrT9wWOqQtoMpKKGu1otvKFgd7XfjFYD8C76FGuFmeITaxjPZ27SCnoSCH3KJizgZOIsTDSLe6tJLq2hMcOpZEfkcHbVRzOnUPOzITyLtmAqPMjLGTLZNK8nIP8+XaA4x95F6mBvvj3XfLsotHTx89lVAA5uaYGBkMsN2BNJGbTU1dPMmplag7u9CrzuD01o3sWLdFnhD+YaWn8FviCp3grKcsaz/r/v40f/7j0zz9tHT8m1ff2s22LDN8Zt/NDZHBhLpIm2hYYGoRyLxHx2FRupVv3nqOp//0Ki+8toW4YjO61EaYCpO7JG0nq555lj+/8AVJthY4jPRA3PMXj5E7gRPDGBtkTMFnr/DJB6tZ+d7HfPjRfnZmmRP9+2sJtBdjOXkW0ZT2xgbyjq/k3y/+mT89/RfeX5dHleUU7r5nPO7mRrr5iHY0lg6YjL6NuxcGEexqLn55ufEgKDKEcREa8la+wEt/foan/7KUz3fkUthsjbT58xVlUir84gxmgvMyL8rqpL25i442M4ZMC8fHToNefQPNLa00qZtpa2mmuVk6xN1n7IlnaDQ33DCH8b7CMpB7b2l/UluGjLCns76c8uJKimpErAZuBEZOxNt5GCHjXbG3bKFobzJZanOGTJ9O9KSRjLSTJmekabwO6ku6sfHzY8hIT1wMOqkvBfeIMLy97LHro1SMsLS2wMxYRX3mWeobumisrKK6wxzbgHBuvHU6gVYqjPRKyTyQzdmMVkwnijFAQRltDe1YuI5nXOT1/G7qEGykRVxCUbTUtGPoMIKgRffyu1AbbE0lq6J/vRjrtljskvcKvTB//cvhjVufcUX/+OzEMEikZa+iIS+bnLIWGtqtcPANxD9kDMPdPAmdGYSrqSF9N7VW+C0iLcqqqKjAy8tLVhKZmZm4u7szYsQInJ2ddVLCoJUWW+j+P2h+Cw57u8TQoiw5mdJ2axyHuIpK1O69ruVq2k9VQeH7kd7PkpSEtFrzo48+4o033pA/pe+PPPKITkqxRr8TlZERbmFhhEYMx9PTSheqoPDrRFrm3XuCU3pFXXr7tDeKsvge9FQqVCr9K2TDYAWFy8ftt9/eZ4Jzx44drFq1SndWi6IsLgkPgmbOY/6D85hgh+5lOAWFq5erbwXnVYMzvhMjiV40WX5zVrfQU0HhquWqW8GpoKDwy3DVreBUUFD4ZVAmOBUUFAbFHXfcwZw5c3j88cd599132b59OytXrtSd1aIoCwUFBdLT0+X9QqZMmUJMTAze3t4EBEjvRZ/nkhdlffvtt/JSbQUFhaub//znP7ILvRkzZjBy5Eji4uLkT+l7cHCwTupHKIs333wTDw8PXYiCgsLVSlFRkezy/4dWcF6ysjhy5Ajr1q3ThSgoKFyt3HTTTezZs4d58+bJimLWrFnyp/Td0PC8eybl3RAFhd840rshDg4O8qZC0vTCgw8+KH9K3++66y6dlDLBqaCgIBjMBKeiLBQUFOQNhqQVnLa2ttTW1sorOKWNhnqjKAsFBQWioqLkFZzLli2Thx7SCs5Dhw7pzmpRlIWCgkIfH5x33nnngLuoK8pCQUFBWcGpoKAwOK6ACc5GaovOcPTrGE5XttM0oEvpGopOJnN8TxLZTaC+6Ae5CgoKP5YrYIKzjMLknSx/+C22ZTVS0a4L7kMuyRu/4st/rWF/Fei87ysoKPyMKBOcCgoKg6JngnPFihXnXlFXJjgVfhSS1/PSpCROHM6mqKhBF6pwtdMzwfnoo4/y/vvvDzjBeZmXe2dxcvM2lt67F5+Ny7ghxAFfc92pcwzgVr8llbTjccQeySCjQifm5I9/eCQRY4MYqXO23VAYy/ETRzmSWkTFgHLSJEkusZ9u5ejpAoq0Ejqc8BgzlfHR4UT2bP/X8EPp9sSXSIP9ULymh5/LCxSStvME2Wc1ON8yhzE2uRxddqFcQ+pm9sblkNnlS/Qt1wk5yYdnA/lpxzmZlEl+jTUOVFFvN4rhYwIZG+TAgL7FuzugLonY/Qc4mlpOUb0IUxmC6yjCp09lgp8bQ+Qh5/fXgX/UVCKmBzFUk8GetzeS0tBCre4sKhMRXzQ3LQwjxLmJ8hOH+XZtIo0ih4Yi3hZpO2i/wF7l0NZB2tFiun0tqDp5ktLOTow8/Bk5PoKpkSN1Gxz1rque34pxc/4RoYQOsznNgui7biHMMpfsQ3HsP5RBz+XowdYrkNHX/oEZPrkc/1wqWzf6geO59t5I3V6uok6P7OXw/mOcaBF1LcXnbo69Op+SrMPs33uEk6XQKQ17rT1wHjme6KmR5/LyW0Ja7l1ZWcm0adPkOYvy8nL5U/o+YcIEndRl32SohvLMNA6vjafY0YT6wgzOnj7JSdGIzh/HOHwgk9I2a3yun0awVQV5O9dw4FACxwrraGjokCdfWhrKqSpX09phhZe/NabNOSR8s4H9SamcqW2ltUbICLlqIZcn5OqFnN8IK0xJZevL/2Pv4bPkGZtg0KGTK8zhTHE31TgSEmoj5CrI3v4D6Z6LbwOn60wxDx+Dv6WuqGRzZNUODuzIp3v2FIIsU9n5Si85C3HTijzHffkBnyzbxf58Q3xmXyPkoCl7O7GHj5JwpgmN2hjDtmpRv0Xkt2loNbdjhH3/Pcza6GjO5eSaT9idnElGeSONje20NDfRUldMWakhhubWuHpK+ZV2Z05lc586aBRlyyV5WzpNJm64h/vi0ZHIlw98SEJDJ9V6etAuyt7aSYuRN8Ej7TEqT+DI1m9ZdagBl6HDcbDooqYgjdSz+eSYjSDU1wozwxwSV21gw9LdxLXqo99cQW1LFXXVeVTW11Nu6UeAKIuR6myvutLWgVF7Eaf3fMWqpSv5ZEcFntdeK+qshuqMdE6eSqewKouENQcp6NCjVeTP3NIO54Aw/O1S2fHq/9i6+RgZBqYYh4QSZGVIV0k88bs3sH7NXuL3VWAr4vNzbKP55C7it21hX47IV30Hzc2ttDRWU1dZT1m5JUMC7DE3Uv2mNo6WNhmqqqrC09NT3mgoKysLNzc32WFv702GfoY6aRPtLouDX7xDvLFqAK3dRlOlmegQvZiKpObzObYriQKGMPrmm7jWz5r2dtCkfsn65QnEpXYReN1dRNQnkxRfj57fjdy75EamOWpjKz3+If96O5lNQm7CgnuJkEPdCJ4ZRfhz9zDfVQ7Qyn2QRvzWGLLv8sZ2MOmei+9i6aa7s15YFWvZLqyKM/lqrOQdniWjroXT3ywnqdYP06l/5IWZ2oJU7nqJN4TVsLzSgmv+FIlkJJzfkKBZrtO9q4/QOP33zL4xgjBXM9obGyH5Y958eztHNCb4TvTotct87zqQZprj+HD+F5RoTwqkpuDDlLtfZMaiSNlr+TnUORz4OI4jKQ24PvQxTy9wwd5MRX3SSr7ZsJUXP97Mgoh7sZR3SROKS9NBsdUE/vnatQTaNVOx9z3WbtrHa0uDmfGvGZj02QVOqgM1jTl7SDh8nIOpnViJNiI3E5sxTFksHRXUlcTwr3GfYdknfz0z5m4MC9SjzaeWQ5tOMev2EbTG7CSzroVOv/FEFFbpdl4rJTvpJCeSOnH9w9PcHGSLoUafrpwYkrbEsfSVRkZe9xw2v8GNpHsmOKVX019//XXZzZ6RkRGjRo3SSfwscxZWWNhO5v7P9rAp9hjHjvU/VvDW/XOYJMtKrSiMm99+k8Uznela+QCLF4cxcWIYYYtf59Ud6fJO5qjEreO2kMc/ep0Xnrme6EvdWt3JFlNvZ9HUjFANJt1Lpo3Whkw2vvlfuqNnEDG7p7xiKMExTsVbod/ix2gx5OjBIWg0fi36WMWfEhJayfPYYeE4k8e3r+QG2yxOvHsrN94o8jppCmEPfMGK1FLKdZI/CVWnyclso6ghgMnhbhiLnlfCyssXX08PhqYeJCm/nZo2KdSJof4RPPTHhQy3MhOWjQNeIbMID4hi6LZ4Ulo7zg9zZKQOooSDq1ZTbGLNmPuWMFeEXOzNahsylZHBog72/JPtsftYud8ElfsYZt183nkLBBB13x958IUbCdj2LH9+WAyNporf3PAk934cT7qQGPDp/m+AK2eCU0+FoYkpJqZm8rPbvocJxoYqXUakhlPB4WWvs3bHWQoD/sTz7+/g2y072LH6ZZ68Poye6QX0DDA0Nhbar4Xy1E18vmQyc6ZNZuGSDcLoDmDWXQsZI8S0b+Pnc3T9azy3cDKTJ2sPWa5KjI1nBAhl0SWUxSDTlbkwvsmTl/Dcst0c1Un0pvbscQ598iwfWt5PaFgwUd668so7vxdS0pzBzq/f4IUbo8/FF33jC7zx9U4ymksoFGNrSfQ87bQJ5bPjb4+zJtUK85n/5rVPRV7FMGHHiidZNNpbDK5+QjTCMuq2xcTEFS93PQy0ugI9G1ssHJzw7u5CTxgI2tkvPfT0xfU2MtBdU+m7+L9+G5qOXFEWNS2yUtHS2VRL0kcP8nldEPrBM7lxpKG4FtKvLhJ9Wzz8A5izeDhH//MvyhxH4BEaRWCfLeZrObNrFes//ZqdFndz58sbWfm1qLd17/KfJ+biJyR+q7tQDmaC8+dRFoNG28ucPdyJWjWcUXNFLywueGREFFHhQfi52crmeF+MMLf3IWDaDcxfeAO3LBhLsFk19SnHSK8RPUW3JGOJ87CxTJx7AzfcoD0kuUmqXDoObGd3Vhdt6otJ98L4brhhGhMDvTg/wtNRmUZ2fByfbLUk9Lp5jAp0xa5nCkKaGzAzx8zAFq/+8d2yRPTOD/LwAzMZbS6UXp+7p5XOthJSd+pjKX43Zvo0IsaKvEZOImrcMDxszGQb7aelHXVXC80tYlDVMyXe0S7y0SoGHtJA64cwFMW1xNz8vLKhsYTGlC18sFqNxYhIxk0KxK3vVhUXgQEmdkPwib6ZRX+4h98tCCdsqLDAdGe1VFJ6ponyQleCbpjJxLGTiZwo6m1iCKOGuYireglK6leCtIIzNzdXntTct28fPj7inrqyX1GXWmE9orPBwMQKZ09LrDRd6DeVUXQqlQLRxUqT/hp1O03ZMew5mETc6Sa6bIMJv/UJHnz0Ce6/IxJ/fSEfG0tqg+i55FZsx5CQGcxf8oS8PZt8LLmGcJMKqvbvJbZQQ3vXD6d7ngHie+JW5k/wZ4hOQks9pacPkpx4miK3xdwe7Y+3Qy+1I3pcrPzx9bLBKziY4bN+z70irsfFcf8i0ZAnBOEqLpq3lchXnyvVSXdXA3UVhlg62uAo4jRXt6GuLST7aArFNfWIe1qLsApoaqJZbYzG2ATT/nOlg8HUHmvbdoz18kjLaKJTt8y2o6KcyrIych08cLRUYSJ3yy20tpULC6KMemFxqIViq6rMI6emgoahQvHaiTzL5l4L9aUnSdq2nlSz64WSC2Ocj/Ss5EdgaI2pWzjz73uQORN8uTC6Zlqb1HR2muMyzBZbUamGrTVUZWeQk55NtZD4YaX360SazG9ra8PGxoa6ujphRZrIln9vrjBlIel1c2xdSmioO05KXCLpaWmkH45h77rtJKZkai9oRwt1yetYvnw9y9bGEpeYLmtG6UhMq6C03QgzJztsRKOUOm+pV2yuLaUw67xcelYbVR32GNu74Ch6O5XeD6d78ZSSfjaX/BYTbnr6FsZamvV7DCrdNYGMjBZ9mvFZDsXEcVjkLU0qx47P+XzFWj7blSkrqr6NWIXKwAjHIVkUZh/l5NEk0k8mc+rgHrau2EpaYbno7Ttpa6qkJC2djMMnyO22wsDZEbdLuR9thuMX5MhQp2IS9xwlJ7uI4rwCTh9P5VR+Le2TphLiboytPIvYSG1tBkeOxhAv6vBkeiIH4mOJLSlDtWAigabGujqoobQyh/3JNcx55CYihg9glf3kmGBpWyd09AmSYg5zWrrGiXHEbt7Jgb2JlAmJPqO93xBX4QpO3QTn83cTNbyAgy/MJix8MmHz32NdsTtGdgF4CwmVmQ1uC9/i1WtdGZ74Oi/MDiMsTHvMfuE9djl5EfbYbSx0E1a+bPLmkbDmVZ7uJRc2+wU+LhA3wd3P83iYERZGP5zupeA06XdcI6eBSEMX2I+Am5/nvqjhhB58gfkib+FSOd7Lpt5rMo/dFo0ohjyOP48wr22n8PiyR/GrXcPHD0wjLGoR19y3gSTraJzMXXGigOyDH/NiuBhOzf87hzzM8ZroTV/DcrA4EDx1FpMneFD3+s08dd/LPH/3ozz87LesSXfvNZkp4SS6KX1qkt7j7msmExU2m2c/rsfA71mWiUqw7VUJVr7Cmnh0GU9NsRUWhy7wshJA1C2/4+bFHlS9N5/Zk8VQRbSD13e10uo6Ua4b7RzXb4/BTHBe5kVZrTTX1FKWWYdxoB8O5oaY9G31giZq8quoa9Bg5ueDo+idVJ3V1FSUUlJeS61oeOKWx9bWFP1OAwyMzHAKcpN7J3V1CRWl5ZTXNp03u4XpZGHvjLODkxj/SnZxg+hd8yivaRQp9UbI2Qo5VyFnr2vAHT+UrotIt4EyYb10iOGKpacLPT/tW44hohwNlJ/Oo05jiamrJz7nBAcor14HrcJMrygpp6BWVxIzW5yc3XAXFtKASkYMk2gXlkNRsShbC03tBqhU5tjbm9BZr4+Fsymmlmrq0gpkq8jYxQt3FydcLKVbWrJTpHrpKYcYZgj7pTBZ9P5DvLB1EGH9Z/rUjTRUlZGdXkxFjhiWqU0xd7TH1c8D93Pl0C6w27WzFqd/PsBEVQvGIi1jCyfsnN3xcLOQH2HqyXUg4qnqoNvdDz/xY0OVZAJ+V3vpRN0xUP76l6P39ZAYID5NI811YnhZWEa1qOqubtEOLERdGRqhblbhEuqJtZHBb0pp9PbB+c033/Dwww/Ln/19cCoOexUuiu6uLppKSmjsMsHcxlKMcXs/5BxgNW5/paNwxdGzgnPq1Kmis7GXF1xKn9L33is4r7BhiMKVjr5KhZWnJ+7ejv0UhcLVjDTB2d7ejrW1sDHr6zE2Nr7SJzgVrm5MsHQQQ7shTtiem1xWuBqQJjhHjx7N559/Lm84lJKSoryirnA5kVZIPsIT//c4C85NLitcDfT2wam8oq7wM6CPytAQI2NDDBSr4qriKlzBqaCg8Etw5azglB7zNZWRcTSebRs2yM9yV61azbZtcZzJr6VxQHd7CgoKPxdXxgRndwddQlEUJu5i/ecrePuN9/j3v//N66+9zscffsrX24+RkldH42/1dT8FhSuAK2OCs62YurTlPHnnM2zvDGHRa6vlV9PjDm7n9ccdObjyXd74+BsOVOnkFRQUfnYk/xUbdFb/4sWL5ZcZf/YJztqiHI7vWEvTjf/g/sWzWRDqKLsZN7dywCv8If5y6xBcDPP5NiZD9wuFK5W22lryDyeSeDif2tpe75krXPVIT0Dmzp0rr9784IMP2Lp1q6w4enOZV3BWkn1gK+ue/y+lT6xiSbQ3wY59F9I2p/wfH6wsJLl9LK++fz0+5HL40y0cSevvL1LCBhe/UCbfMpexOh+X9Xa+DJkxoZePy03sicslq8tHyM0XcpJPxULSDh8gdv9xzlRIz/NcGTFrOpFjhxPkKMZlsj/L48TuOyjSLaOoTojo/FlOmD6N8OFueJs10VqfzZ63DmM8eybDQ3xFmJTieb+c2ryMZKjmQrnujmaRxGrWHGxG5RdOhJxnablyHamx+0jLqKe2yRBr/RaqHCYQFT2M4W4WA7ySL+ioprXsGHt2xJCc10ZtqwgztcXEO5Qps2cQ5mKqW/Ys5fmMyMtGknv71pTfNHFlws0LCQ+xxCj3OPs+3clJESo54ZMxdcHCdzJ33zoW965MkvbEEXsolxZsMaZdxGWGT1Skrhzn66CkvpU2CzWVZ85QKkLtR0wgPDKcsCBvrC6oq++4bjfPZizH2bH2IMlZZaKG+uIxdhbh0ZGMteopmxe+syKJnh2Ep7wEXNTppjXEJVdS5yi1F107aEol7ZjkY/WMaAfauHAawQjJx2rYed+uvzWujBWc7eXUl1eRftafAD87rK0uXHFv7u2Hhx5Ynz1LelMXnZpCTmzazoEdR0gprKa6uufI5MS+fexdL716LuS6JbldxMekkdMsItKIhtiUxbGtX7Hiv/9jhSynEXJNFCbtYMfOHaw/kkl+ZTmV+ceJ2bSbg0eyKGxto6PlLElrVxATn0hafok2PSFXnXGQg9/GkZhSRLW4TdqbM0VD38jRUyWUnetYpfcUe+dlADl1E23lKexd+QmfvL+Cjbo8d3W0UJa0lpjEFFJyq2mob6KxppKSlJ1sPXqalCLJU0R/GqktTObw6i/YdyKDnFKRTym/pTmUntjHttWHSSuslX1MSK+Btzdnibys4+DhdM6USPVYTGlhEruXbiBBzl8dVTlJ7Pvoa2LTi8kr19V3bR21jW2ouxspPLaVA3v3EptVh8rWHntbFXVZsezde4CtxwqFSupCI9fBOtb+71tRvtMUV1dSVZ3P2cRv2HPoAHszpDdU+teV+DrQdasX103dTku9yEN1LtknYtku8ndQl7/6JqGQ1OfLtmPtWrYkpHC0sFVE1yaiE3k9tJVNqzb2ai9lZOz9lkN79pJ4tlBbRuk4mygU4SFi9mb8pt86HcwE5+Vdud8sera6Nsr13bB3VGEiv8LcDxtbrCy6sWivQugVuuUVxG4EX9PXZ2bv9w4uROvjsj51HdsTcsk45+NSuvQlHF2+ntiSIVjf8Bzv3O6DS9k23n4xltKT2WSHe2IjLIH9axJpmrGY2TdOYqxLL3+W72znCCb4TgpnqBTlRdNFR30uJUIprIkV1kONme4NVjUdzWUkLn2dE94vEX3DAu4YY01XSzVl3zzGfbtVdHSaM+amoH4u5mqoLEwnZmMmBkte4M4xQ/CwMKKzPJPa+DW88M8v8Q60x3WorezMRWtF+DDlrhd0vit1/iwTPtOdlzDH1CqUG/76374e2DXCzlBnsGbjXrLVowl57I88r/MRer3kI3R9Nns3xnFt1EL85ZZUTZXGBceQBTz958m4iNvvzBdP8F58DF/UD2Xms+P6WUrfcd1UoqE4TOGW58TR4yE+bS8+ffInlUNbtjERRtRqSjh+IJOoGbYUCKsiy8ING3cLkQcJqR3kc3xPMgWaHh+rVrQJRa5JXc36L3Q+Vhf6yz5Wf4tryXomOKW5i9dee03+lBTGz+yD8+dA6+PymzckH5fTmTRnDhPlcK2yKM9zJsAljFunBeCmMkPltoDH/+91XvzjAiY72Mr+LB/bsYKFNsJ6eaeXP8sHfwp/lg0UZxxl88drcP7Ts8wYOVL3mngtHa0pxG8fiqcwyX2HaG1glZExbuGTCcgsoyM9T/YL2RcvhkX9nme+fYeZWctY9de5Yqwp8nvNLcx4cTuHGtpEij8RXWJ4VnKUlDOSvw0/Qvv4CA3FT9zTlmdEj14iRkZyl+zNxKkzuPX2yULdq8SfGwHTbiXMyBWrhIF8iX7Xdbs4nKfexlgLcNz3Pl/GJbNirzuBU8IZE9XjWEAak43j5rf/c87H6h139PhYfY1Xt/9YH6tXP7/8BKeVNeb2Znh05VNe2oWw+C9EmKu1DSrqTVxwF92A6hLUem32cQ5+/Cc+sNL5uBzSy8dlaSGlLTZorO1xcdLXuk2T/XcaYWgoGrSe5M8ygx0vP8bqU9ZYzHqd15ftYtf2zexa8RQ39fFnKY25z7D5jYd54NooWRtHRU0Tx+O8HXeagaZoi+JEr7l9E196/4U7IxwYbq/LQ1sL6tJccjvSWffmIzw0b7I2vikzxRj7TdYkxpNVX42wuvvRSFnaPja+9BdW1U5h/L2f8dGXIr+bv+Drd+9kgo15P1dyPxJNF93drmIIaY+T4/llmXqOTtiL6+va3U3XuVkvffT1VRgYqHTu6fTQV0m+OOtoay6hoJ8v0e+8bheJnsqF4OgQAgLhwOv/oXnGHQR4D8dLfu1dQkq0nMOf/vucj9UXPtzF5q2i3r56hacWjuvnY/W3x2AmOC+vsjBwxdbFiZEh6Zw8U05tXd9+RaIh+wz5Kg31Qf4EC3u7r6/JQdDj43KbNWPnz2NUQD8fl+YWmBm0o9chlMKAE/iSP8tSTu1UYeUn+bOcSsSYSCIjJhJ5gT9Lqbps8Rk7lWnzF7FokXTcII5oQl3txJl+FMQSu+cMB7K9mHbrtYxwNcG8Z9pG3ER65lZY6tnj1zu+m37Hojse4Y9/e5A75o9l+AUvdgqzvbyGMwct8Z45hXER0USME/kVvWT4KC/shAL86ceWzbT3rz/xRQqTph1+GBNRXDMsxPDh3Mtl33fdLhpDLD1HMWr2rdx+953cMjeI4Y7mvYZvWgvz7BE1aoPhjLp2BhGjI4mIEPU2PhA/V5uBJ5J/Q6SlpckrOGfMmMHevXvx9fUlKChId1bL5VUW2GDnNoSx11hTtGc9x1MzKdIt19QIE7ep7Dg796SRo2eBZ5Q0k32x48V6StIOyD4uS9wXc9vk/j4uRWxWHrjaV1NbnUNiejVNGjWapiyO7z5AwtFsClu1/izrKwywcLDGwcFU68+ypoCsI0kU19Sdd6wjV5czI6ct4ub7H+fxx6XjEXHcwBRfF8lHlA5pXqWarNhvOZHfjWro9dwZ6YmZca/SGVpiaOfPyGEmOIVEMG7h3dwn4nvs4Qe4Z+4oAkcH4ubuhOsFO7i1yU5yG2qMcfCxw07a46K9kabiHDKOnqC8o/O8qa+WytpMvUakZWooxqC68MGiL8ored2yqxaWQTE5+dJjFy2t+TkUN7dRbafNoyQqK7LGMkqqRD2jEX9NFBakky+sD80QX/zFSEvrS/QHrtulICxTt5HTWXT/PcwYYU7f6CTTR+tjVWVsiZP7eR+rhSdPkV9YIs7+tpH8b0oTnJaWljQ0NMjzFZIfzt5cZmUh7lUXH4Kn/w7f9K+IP7CH3UdOcfr0adJST5Acs4pV8UJ5WPhz3YRLcVxXypncPAraTLnpqd8N4ONSujndGDLagHph7u/etY+E1JOkJmxk+XvLWbctiewmA9HrGePkfZbis4mcFAri9IlkTh7cy7aV2zldWKF7snAxaB8RJpzIx8DLl3m3zkBYyP28L1lhbBrIhAUGlJWdJDbhCEdFvaSeTCJh47u8t3wH25JKxO3WH6EczNVCCZ/m9OEEUpNPcDrpCIm7drN93V7yxFhP+muqLKbgRCrpSRkUWPtg62yJ3QWK5wfQFzaVYyhjxxpjqs4mJTaZvLwSSvLySI5NIVttivHYsYSKcZp286hqiopOcPh4HAmnU0k9ncCO/bGkmehhNXlkrzr4oev2UyOZM+bYupbSVJ9EStxRTqemcjohhr1f7+BYSpbsTey3TGRkpDzBuXz58nMrOGNjY3VntVx2ZYGpOzZBd/L28jcZXXOSpQ/cKvvAjJg8m2ffrSL6jsf5433SRKNO/iJxmngLM+76C4+NG8jHpVZZTBY99s1Roldbu5j54VMJn7+B7NCZRN8yVTvBaTeFx5Y9yrCaNSJ/kj/LG5kp+7OcovNneWl4L3ieRTffws3f4fjSyMKOcY8t48/DamhY+gCzJf+bU+cxf4MFoTPncsvUYC6sFi+GjbuWx96/CYsdj/HkjVGETXuA+989Ran3XIarTMWNl86hj1/k0ajrmfPY51TeFEzAUHvxy4tFV3+330qwcQEpf7uLJXe9wit3LeGuv6VQYBysm8zssQiFwq8rJvHrF5kfFk542HzePxTK+Kj7+Eu/Svj+6/ZTo5vg/MtdRPkVcOjFHh+r7/L1j/Sx+mthMBOcP49bPckdvTCVS4vLKa8R5qAwd/T0VJib2+Pk4Y6tjTmm53wqCrnT5XSYWGPp4YzduYbURE1BFfUNQv8M88LRuJGK9B4flx54nxPsLeet8w0pwspLRPrS3pu6XsZLDE8cxTBJSljnz7K0uGQAf5Z6mDvb4eBliUlHPUUp5ai8PLHp4weyd57txM1aK+RyaLbzxsHZAWdZcKCySVXfTlNpMSXlNVQ0CStL1AuiXrxEvTieq5d+dIlhUmsFRfklVDaqaVcbC7PRDBtrY9pEF2nvbymGH/XUFVRQZ2CAuZsvvk62WJlI/brWn+X5chii31BLWVYdJgF+2A/kJ7WjhvKiUvIyRHqFlTSIEjp6OuLm742rXA5paKndDjHbfjg+d81mjL528GZm64WTq6MYypiKW7anDgZ73aRwnR/NC/LXvxz9/YYOEF9njexjtbRC8rGqaweyj1UVKiNznANd5cfJl78HvbKQFmU5OjrKC7AknxaPPPKI/Cn54Lz77rt1Uj+XslD4VdDZIhRpRZW43S1xcLLAzKxnYHVeWZR4918fo3ClIymLiooK+fV0yXFvcXGx/Cl9Dw8P10n99pSowo/A0MwMW28vvLxteykKhV8DV8QEp8JvAa1Jb+fljrOr7YXbCChc8URERBASEiK71bvzzjs5ceIEcXFxurNaFGWh8BOgnUC86a2XePCZ6y95slrhl2MgH5xLlizRndWiKAuFnwh9DIx6VsXqghSuGn75FZwKCgpXBVfACk4FBYWrgcFMcF7yo9OYmBjZXFFQULi6kdZVBAYGyo9JP/nkE/71r3/Jn9L3hx56SCf1I5TFK6+8gpEYoyooKFzddHR0oK+vz7x583j77bdlD1nSp/TdwOD8oy3VywLd/wfN0KFD5eWg0qRI70MKl5zxSjOq0vhHSlR6k1IJU8KUsCs3rKCggOnTp8uLsN58803ZEJAWXNbU1BAaGqq76y/RsvgupIxIj196VoBJGksaB/VeFaaEKWFK2NURdllXcBoaGvaZIJGQMqCEKWFK2NUXdllXcGZnZ8tmTc8KMIn+q8KUMCVMCbs6wi7rCs7Jkyefe8VVWgEmIQ1LlDAlTAm7+sJ+klfUvw9p7CNpJWmys7m5maamJvn/SpgSpoRdXWF2dna6u1rLT64sFBQUfp0oKzgVFBQGhaIsFBQUBoWiLBQUFAaFoiwUFBQGhaIsFBQUBgH8P0JYGxBr+JHGAAAAAElFTkSuQmCC;" vertex="1" parent="1">
          <mxGeometry x="1362" y="473" width="203.32" height="99" as="geometry" />
        </mxCell>
        <mxCell id="tFcRdSrbqhkbJn0zH4gM-31" value="" style="shape=image;verticalLabelPosition=bottom;labelBackgroundColor=default;verticalAlign=top;aspect=fixed;imageAspect=0;image=data:image/png,iVBORw0KGgoAAAANSUhEUgAAAREAAAClCAYAAAB7uMlZAAAAAXNSR0IArs4c6QAAAARnQU1BAACxjwv8YQUAAAAJcEhZcwAAEnQAABJ0Ad5mH3gAAEwCSURBVHhe7Z0HYFVF1oC/9N57DwRIAoQaCL1KEaTZUcAOWMDFtrq7rq7sb1vUFVCRIgoWmhCK9B5qEkpoIQmBkEZ6T176++fe9wIBEwhEXcD5cMx7c+fOnZk798yZ8+aeMdAKkEgkklvEUP9XIpFIbgkpRCQSSbOQQkQikTQLKUQkEkmzkEJEIpE0CylEJBJJs5BCRCKRNAspRCQSSbOQQkQikTQLKUQkEkmzkEJEIpE0CylEJBJJs5BCRCKRNAspRCQSSbP4TV0B1FaWoslPJylbg4WzP84Ottia6Q9KJJK7kt9UE9GkHefE/AkM7d+TafP3EpGiPyCRSO5afkMhUkRedg4xkYb069eKxKw0ziRJKSKR3O38dkKkNJ2cnCyOlHdl5Ji+tEq/RGH8RZL1hyW3J6XZ2aSePkd8fC7V1bX6WImk6fxmNpGi2FXs2nWABad6M2sGrP77BrL9e9DrpYk85GupTyWoyCIzKZ5D++LIF19rdLECM0wt3Gg/WAggpxLyT54i9mgm2ZYt6TmmI56WplhQQXFmEucOHeRUvgMtevagjb8FxpkpnN2Xjo0419/JHBtjqC7OJPdcJDtOgW/37o2mE5MwKssyiFkbh0mXzng2OT83XM3EueXpxEQc5HxmBSUVVli7+tIyNISOrtaYVqQQfyKWk6dTKVDreAVdukEiXRaJOxPIK6ukyryGwtRUtV1svANpE9yGAF9XLrdeWTLJibHExqeSWpehvTfebYIJDvDF16IaShKJ3Hea8+n5lOqT1OEc0IU27TsT7FQvXUIuJaVaagxNMXZ0ILCf0qb6uunbpdLRHE15IYU5ORQbm+Lg354OIa3wdLQRd60hbtAuRrkkH0siI6MWuz7dCbAGYwOla8STFB9HZLK5vh8obS803MxETh46SpJomOoae1GPNqIeAaIepk2rr7PSxUtIjj1JcloZpRpjLA3LKbINpG07d1EPC1EPpb6izGtFmctccOsSTPvOvjijPzdyH7HnCym1a0m7Pl1FmbNI2J5AmY07Lh3aUL+Lq1p5ckN97e7E6F2B/nMzKCNh12oiI09R2G8KD3TzwiwpnBPZ1SQbtOWeEEdV5RH9RLTvSY5v+oF/vjiHLQmniD4STXRkBHu2RbB9/Tmsht5LgPNFTi5ewLw3v2X5yTIch3TDz94S6/JUEg+vYemHM5kz/wSVbbvh21p02agtLH5xGbniXD9nSxyMSsmLi2D31//kpQ8OURHYlRYNpRN9EPHIFmcfYP5DX3JRPBwOTc7PC9daoWmd/pn/fvY1a7cdJGLfSU7F55Bh5kzbFu5Ya06yf50o7zfL2bR/O+uWrGHXkRiijh8nJbcC0+DBdHA9Svhr8whfu5+DiWeJ2bqBbZH7iU3OoNTCHltPb7wslR5YSs6xcHZu+JFlazeyadcR0d6RRMYlk1JqgYmtJwEeRpjkHWDlvB/5OXwdG7dtYf2P69l7OpajR6PJNXbHQTxYbe3yyTv6LXM/W85eIajLagyoTD3GTys2k2oXgJO3J/4OJZRl7xft8gnbz54n6lgkUbu2sPPIYc6l54GbD45OTjibXft01FBZeoN2MUtg/4JV/PLTaUqHDKGtDZjWFJKyfxnLv5jDPxbE4ijavpWzCabFMRzZu4zPZy9kY8QxITBOcTazkkpbF4J97TEvuFF9Q2nnWEFpxgE2bdjA9t1nOHMimczYo0QkCMHh5ICDEIbOZkWiH+wV9X2LResSSHUUwqVza1qYVlOVd5SN8z9m4dxwdsTWiv44QJT5KGte/ZZIMWM37taFQFGHKySTsLehvnZ38htNZ86SFFtJRnwwfcO8MTP1pv/QQbjaWXL2+GnSRYorGoeCO7bOk5i5cRdboqKIilrNT58+x73iiIUugcANd3cX+g9IZM3mFDGCaCg8tYvYIzuJ8r+XQUbmIpdGKDxFXOQGZs0/S3FJlT6yGTSYXyFpx3fz0xufsNr+VZ76egs7dnzIzDEWnPn7LFbFFpNm3Z8xr81mlRBKuzZ+wCTnHjz/twUs3hHFum8/ZXqo0DjUzpXE2bxK8lo9yEdRh4iIWst7fVNJiFjB+yvPiuOVIkSx8v3FouP70ve9TaLNlHYT4b2+3JMQwa73VxJlZEGlx1he/mo5G9Q2fZUHHfvx8qJtrN0bxdL3JvNQsAZNcTzhs74iLfgRRn84lznf/Jt35n/K8jfsST20hy27TpGjFAulrrEcvGSB+wNvMC9qL3s2fc50l5V8v/IXljdoOW9Cu2j0SeuTs5ddW3bw49okfYRCDqfWLWf5wgMcCv2KL7YeYO+maTxgl0z07B8Iz7RA43aj+orWK8kjas4z7CpqTcgTb6v1/fvnM3k3ZBOrftlarx4mIgTTs2cJmuoktu7NoUZTTHr4LA7VOmLqKI7pEkrq8dsIkbMnia0wJC6wE2GeBpgZGWAQHEKQWS2tzx4n8pK4kVdJEXHcwBBDYyOMjY1FMMLIyFCnqdTDyrsNrUc9R7+o+ZyJWMePu0s4V9KWR17qhZWN2a/S6xAdb/cWjsQk0Oaf7zDSzq5xYdMkGsuvkLKicnIvtOPJ0b3p4eeCo2NHOo97ibkbPmZiiD2eFgYYGoq6iToaGYv6Glz5bmxkJL6rGQn8COs/iEfG98fb2AwzYx/aDXyELiZuWB84SbTo3JV05f6PP+Cxe9yoXfYyzz7bhwED+tDnmU94f3MsF2prVcUbpV1F3nVtqrSqoZFyfRGU7+V5VCQfY+9Jf7x8AmjVwkHECw3GwhKfHn0JKkxFE5/IGVWKKA9VEKPGj2TYoA64GdtgYRNI9wcm0yG5hPIzQvgpya6iKe2iT6qidIxL7P1pGWmmtnR8+hmGiRhdkmzyM8Q0tqojUx4ME6O9BTbuAxj76lu8P/tFRnmIdEqdrldfg3wqNDEc3OiHl0NLAvyv1Nc7rDeBZy9dUw8D3AaOp7O1FqedX7Js/3G+3+5O0IAwOvfxb6TP/bn5TYRI8qlIks5s4diBH5j1yotMf+lFXnxjLks3beFg0jF+3BZPWbmYhyuUCjW5qoxUXxfsxc283jISQ3OhavqGMmq4M+l71nD0QgnGnUbSz9dOCKqGi5685zt+OZbMCaeBTBgRgK+5cb1rlFFefJJfZr3BOzNEGV9Uwl957W/fsq1QTFn0qerTaH6lYn6cW0Z6hRjdgh1xsTERHdkaGzH3D+7SBk8xCTZrcutaYOfgiLuHg8hbCFjxfyuhTtsaVFCTdZHzuVBdW0Xm6QOcOptFpmUYPe+bxOMTJzHp8WH0au+HnT6nGyLyqS0vJb+kBW5uDjg76aYjBuLBM2vZGh8jIbzLNJSqCpfyyFjh6u6Mk4O1ECnioTS0wtbNG9vybKH+Z5FWqKSrx022S7WmiLjw/2PZBWuqWvfkvp5eOIt4NUlhNnn5xpSb+NO5rS02iiA2ccDFrwWtg31xFTfiiiBuhMoSqrMTiMvKZP/Kr5j79svqfX9p+qu8MmsjB44dJfmaepg5BtKxSytaO6Szbd5CkluPIjiwLQEO5voUdWQQu/sH5r2l9KPpInzE3B+OcvJCmf74n4NmChHdKHL6SBY1VRYEB3tiVlFBlQgVFXZ4+Dnj6lbBobWHuaipQNFiizJTSc9JJq+1D+4mRlx7W65GdEBzF9oOH07b4CC6dG1Plx7t8RJHfmWnqhEqf1oUW8MjOVniiVf/e+khEpqJh6I+WmqprhJzarWMShCfK6up1mp1I3kdN8xPl1qrPPRKR/6dhijlKlqt0s7pnN50kgtZdrgOepQHHnyBKVNe4IUnRjAwxAcHNfXNoIzZyj896gfd96ZVRZRM99813ES7aPIoSzjAj99Gk+XWkzbdQ2nvoj+mUncNfTmbVrCrUYqj3lstNdVVVFXq73tVLRVmAXQdHkrXzj446VLrscQtuCPt+/ejrY8XPUcIjcXdqQFBLXpTjT5PTSkVOSc5sH4bew/EkfwnkiPNEiLa2goqc/dy7IwdDu2n8tfPF7JwYb3wyeu8OqQllgf2su9SMTliVEg+H8+5xCSc2rTEVaic19NEVIxECud+PPTae7z03GgG+enjr6KGmopsMnZ+zaYzvti3uIdHGkxoKdTxjox567988GVdOT9j9qxnudfeul5HakJ+VvZYOlriaXqO03EF5BRXU1NTKkbhdM6dukBmaTWVTf7FtJzyihKKysrEtEXp7pUUFmRToDXH2NmXls61GBuKUTnDHUe3IDr38MRZPBiGoj0LMzIpKCwWOTQRQ2MMzITmYyXKmJVPTp5unqmtFuVNOkdKjZYSC3NUW64oiaK9lZSVUKoMDkIA19ZqyM25RJGZKzYuLnhe+2Q1uV2qKM86w/lt37PiwjD69OpNv46uahaXsXPFwaEGy6qLxMSJMlSJh7aqkNy0FJIS08kVcr5WJ7Max8wKY9dWtHHyIOzBF3n+/S/4Stz3BfPn8eVHf+etf7zAw0O70O5X9WhJ6/5PiD79CU/1sMfbVh9/FR60G/wk0z4R/Wj+bBZ+JKaj2VEcP3yU49dqaHcxzRIiNRqhtob/yE4TR8pat6TtVaOIwNcfj2Bn+mvWsyb8PMlpx0iKTSY73oF7e4VibvpbmayLxCzpGF/PX4fb4L4MHd6XYP2RW6Mp+dlhaWuGo18Mi9YeIDIlj8LCUxxfPZvnh87g25iChg2IDZLE+eRoDp2OFfqGEGDi/3t3/cT2ynSKerYnVKTQtdRBkpIPcyo2R6cppUexd9E3bN8l4tXjTcDCCTPfLvRtl0hq6gUSL+p6e40YTdMP7yXW1huzy/dSZ1g9fuYwxy6mkCN0SY0mnvBVX7HfxxLTYP9mtEsm588fYsmyCPq9OZmB7Vrhq55fH2cc3MopMTrKV6uiiNdUosnZy9r//Js3pn5OeLpQZq6ytTWEI6bmneh1byL7zh5mS4xSD6XvFoi+O4Opb8zmP2vrDMmSW6FZQqSyoorIvbFYe3nTKsCPa2UI+ODdsjtjJnmRdGQ2//fE63y8YAvhp/fxw0s9uadfD3r0UMJDTHjtM37OP8Sc5/7Cd1tiOHWTktxYjICBz3zN0yO70de3npp+i9w4P1u8Ovbn0Y9mMCbvUxY/fy9Dh77FP9eV0ubdvzAuyOYaA+L18EObn0rUz+8wrkdvevcYx5yIjoT2eZY3HwoW11YMnKE8+OYk+rROJuKdkfToPYge4+awKtUDU4dAkUNTsRAPeWvGvjoFz9jlrPvbdF5+9m1mPv8a4/+Tj1dYP4YNDNHfS51hVZtxiOWzXmBkjwEMue81fs6axjMPPsDDfXya1S42LbrS9fmvmTHAidaODd0xF9qPfoiHn+lJt8gXmSaE+YCRc/i5wJvOLzyiN6zqk14HUxsnQqfN57WAPAoWKPXoQe8hYxn3swUdBg3lwf7tVDvMzZPEoZX/x+sjRR/uPUTcjzWc87qHfsMG0PfWMrwjadZis6ryUhJ2riLFoRu+LQMIdvv15KSq6BK55yLYnJrIoZlbyLX2xmlYLzr8Sj0sRlN4ni0fnaXzx3+hs58HvhVa7Af2pLWV6M6XxZ2GytJ0jqw6g0m3UHwCLDG+FM+J7acp7DScsDZOeNgqnb+hdBc5vTsV2+GDaOlkjprslvPzwE1dbJbCkZ37OJdRTnG5NTZu/rTq0Zmu7laYXjb+NnSuEl8hwn6+GL2E0+bO2I3pik+hstQMHHy7EdS+DYH+YmRXYwRlSSTFneLU2WSS85WnxwlfXzuMNKZCa3cicER79Zcj3XMl1P6khuorqBUaRmkCB3ed4FxCHqVlBtSKaQ52DrQd1JtgtXxZFKTv5oNuiyiZeA+uwW64lJZgZGKOU4s+dO4sBggnZZFWQ9yoXXJJioohIbGMqg4DGSRusLl6gxsqs4gT9+PY/igu5Ir+VOOAS5sggjsG0t6l/gqv69RXTMOUdTbZp44RE5tEfHaJaCRx0KkF3Tp3po23E3bKvWzwHtWRLcqcSPolpU92F30yg7jNh4hNyhRHFPT3o21n2geL+moyGynL3ccftKG3ohYnsnPOAQqdW9NiRF86/cpKVURZQRwbZ0ZgPnoUbUNb01IIj7ubK0Ik3b8vYW89w2gxuv6RlGZlkZdZQKmYkgYEOGJyWVpfESI277zNPQ/2oYej/pBEUo9mTWeajiKGgxg07WnGjW9IgCjYYmnfjQc/eYX7+v8ZBMjtgZWrKz4hbQgKcq4nQCSSpiN7jUQiaRZ/0HRG0jDKXL2EzPgcqsxssPJ0weG2mTtXUVNVTPrpbIw8PbF1tMH6V4tzJBIpRCQSSTNplhApKytj7dq16l+JRHLnY2lpyZgxY9S/TaVZQiQ9PZ1u3bphZmaGnV2D1lKJRHKHUFhYqL4SoLwd7immsE3lNxEiX375Jffdd58+ViKR3Ils2LCBF1544X8jRObNm8eoUaP0sRKJ5E5k/fr1TJ069aaFiPyJVyKRNAspRCQSSbOQQkQikVymqqqKU6dOqUbWS5cucf78ef2RxpFCRCKRXCY7O5sRI0YQERHBggULeOWVV/RHGkcKEYlEchlnZ2fWrVvHmjVrUH5zGT16NCNHjlSFS2NIISKRSC6j0WhYvnw5gYGB6ve4uDgeeeSR6y4++4OEiM5H6Jmte4g+GMfFMg2VZeeI/HEpy+q7U1y4WIRwVm2OJCohixy5EFYi+UNRtA/FLmJoqBMNtbW1KDsyGKgOcxvmDxIiiqf3s+yau5g1P+0jprCYsoJIfn79b/znvY/5z+wv1QVrX375lQg/sPD7FSz7JYK9MWlN86MpkUh+E6ysrHjyySc5ffq0+r1du3Z89913lJZeu7/gFf6H0xnlldBgxv59EYt3RhMdrYR9InzEvx/SkLnlU955ezZrmuRHUyKR/BYoto97772XcePGqd9Xr17Npk2bcHH5tfPTOv7HNhFlWwFlQydlPxMlmIjgRXD/N3jtuVE8HJjKV7PCiS/W0GSfx5LbjqKUFBIOHBMDRDqVV+9iJrnNUISFsvxdebFWYezYseorLdczrP5By96vdQM4in7a67veqzi/ka0/b+XdH1yZufklerrb4lB6gbS4/WzbeoDjafpd9ex98ejQk0FD+hPqgG5jJJEu8dh+Vv54AJFMtcjosMTcJoDBUyYS5p3HpW072PNLIkl2XXn4zeEE21lgo+x5m3iMwyuXsyPNiy6PPETvzjaYnj9NxPdncRLndva2xtlUXD8nkdTDq/l6B4Tcf3+j6XT+Y+PZ/OEBzEeOIKjJ+QXQwkqcWxLL5qUrOJJYRl6ZPY7+Heg6ZgjDAxywKD3FgS172bb7DJlqHa/g6B8i0j0n0iUSueAQaYUayq2ryTpzRm0X57a96NW/N91DWlzZU6XwBCcj97LnwBnO1GXo1pa2vfrTr3sIHWzEvcyPZvXSnUTHX/rVRuW+3UbSc/BI+ntfSXcmoYxqQyuUffwyaqwJe+yBK3XTt4vGy4qikiwyk5PJMTXHq9Nghg4JI9DLGdXJXa0uvz3bdnLwxCWSlQsbiUbz6kSvoUPoHegl8lMSSm4VZdn7+PHjeeCBB9RpjGJkVd7QVz4rccpUpyH+x5pI45i5eeLm4UHLzItkFNZQVp1D8tFdRIRv4GByHqXlFaoBqCrvPGlRe/nlx0gulFXqNJaKTC6dOcL67/YTX1BKkZKuKofMxOPs+XYTxzPKRVw2SdGH2L10NTv3bGT9iWwyiqupyIrj/NGNrNu+k50Lwzly5hKZFYoT4BNEiHNj1HOVa2SRcXYva+YvYP68n9nTWDoVDRWliRxasuEm86ugOPMsRzcsYfGus5zKLKKkJJ3UUwdZ//1WjmeWU1xVS21NNdVVRZQWxLH/u3VEnkwhrUTUubqaGm0NWm0apzat4eelv7D+QCL5VRVUVuWRcWIDOyN2sVXdM7PO+B1OxM4ITmQU6tpXCRknOC3idm89I1KIlNq6aypteozd3/7CkdRicsuqqK6poVYrjpVnErd1KVsPniKx1Bh7T1dcHQ0ojN3Mhm2HORCXRZnaLgmiXb7lh2W72Xc6XbRFGeWlaSQfXEp4xFGOJhep7aczxH/H3qhTnM8r0ZWrvJSq5IMcDI8g8qgQPiKlpHncxobVW0BIPXM7c1xrL5GXW0NFhXjoz8RzNlaLx+ApvPiXF5g27QVeGNGOsNIzRHz4MzFFZWLMr8MJa/vhPDPrcz5dsIAFC/6Pd14aRQ9x5IoTbwdchKDqeU8tMdtjuJCYzoVj0cSdOUtu1yF0Uzyb61NeTRWlaUc4E7WDtTFgLoSAbl+YW6Wx/ArJPHuEzZ+tJ85vMo/8YzZz5rzKX8a2wOTgYWJzKimy6kSf8X9h5oJP+XzWFIbbt2PsxL/y1n8X8NHfpvFgkNC/VG9p+eQbWmPWeSwvL5jPlyL99P4i9sQ+flx7RrSbEDZCPzm5P5ZLJT50GD2F1157gRdfFG3c1wnXEwc5sHQXZw3NqHbuy4Ov/ouP1TZ9lIE2HXnozc/44IsF/OPZ0Qz0KUWTd5YNizZT1GYk97z8Gn95azJP/3U6H07xovREJIeEpnNJFbKKdzchQI08aCW0prcWfMUXn77JU63iOLB5H9sPJeuEjSaJgxtOo3HoxaDxU3nlFVGuZyfxQqcKStZsIXJnDBeV7CTN4g4zrN4swfSd/DrP/+MB2m78K2++2IdBg0IJHTeDZ+cfJFakuDzw3wSWPoG0HjWFgdHzOLM3nO93l3KuNITHpvfC0qbhDRGUTb5P7t5MdMw5gmfOZJRt8zcNbzi/IsqKKsi72JFnx/YUUzBH7OxC6DTuZeZt/YynOtrj1eS9bfzpOXAw4x/vhydG4p8nwQPHE2rqge1BZdNwUzHZCOXhz2YxaagbNUunMnFiKD17ijae+BEzN8U2fYMsTS4VyUfZe6ol3j4tCfDTTZaMxDTFM6wfQUWplCckclpVHfQG9sdGqfvdOGOBqUVrQh98ns4ppVTGJol764iNyzCmb1rK/Q7xxHw+ngcfFOXqNYDQqUtYeirjV1M5ya1xBxpWr0NRIaU5paQY+ePuYYSlRQ6n1y3khzk/ssHuJabO2sG6bYc4tHURX785BjHgqj7lVQoLKK4oJj7IB1cTY/0O841hgYVtS8a9OoDsPWtIzCzBYchDdBPaW2PaxdmV77PiVCGn2z7HNJHQRiS8ouwVU5ofwfxnhzKuf3e6d1fCMAaPeIcl2YVc0qeqT6P5FRXo2sDQHw9PY9EGanJx0AADw5vdoEtJrTNkX0bJR2goGs0lUtNrxFTkEhFz3mXpugSSO/6L978V070I0cYb/sPfH+55ExtkKRgJ1bgFrs5W2NXtMWRkBJ7eeJhb4HiVJU4pl1ocPbpyGojWKijMIytHg6bgNGtff4bvYhywHfUFc5eJcu3fxaHwt3g8tAVu+jMlzeNWDKu3rRApTUsmNS+DC2FdaSueKjvDbDISKsi95EfnhwfTvUMY3Tt3o1vnYIL8XVTjW10fzEpL5HxaHOUBosMaG91AiBhhaGKHS+f7GPXk8zz5+L3c08kVG3HkV41TrYHY1axYV0CWcScGjOih7tFqfFVCU0zMfely32M8NOlpnn5aCY8xYXx/OliaYa1PpXKj/MzMMbE0xVZbSEmJmKsqy21+c8Q1lF37bWrEPFhM56LFxc3b0mXkAMLadqN7qGjjTq3xd7W9QTteizJNEUKwrEpMRXUxaEVcSTEl1dU629UNscFctIGVpYaq8kuc3mGJU3A3Qgf1JSxElCu0K906CAFra3FlAJE0C8WQ+tNPP121YlUxtt4GK1abijI8FZNz8QC7dx1iX2Il/mPC8LUwFR1YzIxLK6iqNMXJ1xY7I0OMy3LIijtDwqk41aimdFtlapB8LpGL5wpoExKEg9BEbuik3FB0QZtgeox6mGGDr92Zvo5KKjXJHF23hNiqIFp2GMjwBhOaCXXcj9CxT/LYM1NVJy9Tpz7BUxMH0cnKXBVOOpqQn5kdVg4WuNueJSI6mYu5GvFAZpF5NpKNP2wlRjGsNlmwFFBQlE5qdo5oYWXT8GIuJp3iQm0NtS0CCLLRYmxQRElBNQYmQlNwt8JGW4NBcToXjx3nwsW0X/0S0yjGFhjZueHreoGMjCwuZemkiLaqiuKzJ0kyNKfKyQFntV8qdy2HjOx0MgrF9I1qqqtziYs9QoqtA1ZeHvhZVlNbW0yRGAwt7K1wcDDHUgjg6twk4vZHkZKbT+MzdsnNoBhWq4WQr29YNRIa5G1qWFUERhm5KQnEnzzGsWNKOCpCNHt2/MSqfRc4Vx7E00ODsDJXxhlL7JzLMLE4xfGdezl+5AjH9u9h7/rt7NtznCzRGWspIef8Po4diiMxTksLMw1xp0/p847l7Pk0cqqLSItPJDO/hLKbGtlLqag8z7aobIKH9Oaefh1vUr2/lqbkZ4utqzMBPcs5tHsLuw4c4NChHWxfs4KvZocTma6p9wvQjcgnLe0Eh6JFmx07wpFje9m46zBxliY49m8vpoPKjr82OPvkoCkW92HPfo4pbbx3JztWb+foyfMihyZiZo+5Z0cG99VSmBTDyUMxJMYncSE2jn1bj3DJvRVu7VrTRjWV6AyrCfGHOXBkP/uPRRJ1ZC9rtkWS3VZokh38RLsYYyQEk2ebZC4lHhb3/RDHIiOJ3rmdjct3cDYtR9x5yW/BHWZYVXp/LGv+71meUgykoUroI8JfeXulBW7DXuFfM19mrGfdps3B9H30YR6e4E3256MZ3j+M0OFv89E2MV/26CmOVoquFsWKGR8xf/4m1pyKYMnUUAb0qst7HONnzGJl3kE+f2YaizeJzq38engTGFs5Ejx5Ec/cp2zyrY9sBjfOzw6vTgMY//FrPJA/i2+mDGXQoDf5xzoNwe+/zkPBNjdlWCU/jaiVbzM6NIyw0NHMiehMt76T+fvDyt7+igUolIf//jR9xcMa8fZwQsP6Ezr6c1ameWHqGKzk0EQssLBpzdjXn8crdhlr33yRl57+O+9OnsHDHxXg3bO/3oiqoDOsknWIZR9NZXhoXwYNn8HP2TOY/PBDPKo2jCM2jgOYvmgarfOXMX/qIEL7PsCQyas5atsfVysPaRP5jbgVw+oftNhMGW1KyErIpdLMGmsPezHmFZF+Jpn8ymp1KZoORWWyxNzOBgdHBxzsrLGqP9mtFtpDkVB9M7LJLxO5asV82coCc2NjqjXVOLe9wJIHFpJo2Qb/J0bT71c7s+dTknOUxU9sw+/ff6V3r7a0M9Fi7u+Dk3iGDC9rbPqNm87k6DZucjDGsCSXzPPZVIhR1NvJEmt1VVtD6QrJTirCrFULHCyNdYvfbjk/0VbGIk5oT+kXRFuViLaqNsXM2h4HL3c8rU0xulzohs5V4pXW1S30O+8spk3PjqS7SblyQLSzJy6uTjjZm1+xKVSJaU9uFlnZhRSW6+6HnZ05htWGGJlY4tTaVbXr6EafcsoKGqqvQLF/VOaSkpRJekIa2ZnFlJk44NPKDY/W/jir5buy3y/Tn6JDv2DaGFdiYGiMpYMv7u5CExOakloNfX5ZGZnkFGgorRRtaGghpjZmolsYYOmktIm9bmGa5JZQFps988wzquaxatUqfH198fHxUT8rcY0JkrvIUbOyWCqDU5vjKbPxwLVzEP6/sgXpdn4/uvosJqFd8W7pfs3O73cjV4SIbrXwH79peEVhISWFZZQbWQvBYC3m2HWCT24afjtRt2L1/vvvp3379pdXrCqflbg7bsXqzaPMebxoP3wg3Xs3JEAULDC1CqDHxJF0Df4zCJDbAzM7O5x8PfDysqknQCS3I4pOUVNTc9mQqny/jQ2rkj8G5ebb4BLgh6ePE3a31W+hxmKK5IBnSCvcncXUVbV9Sf6XKNrGpEmTOHPmjPo9ODiYJUuWXNewKved+VOgFSOK/qO6iOt2QpRNMZkp5ZJKyv8UZTqjuENUft5V3CMqv2oeOXKE8PDwyz/5NoTURP4U6FeA3nYCREGUSVl9KwXIbcFdtWJVIpH88dwFK1YlEsn/EmlYlUgkzeJWDKtSiEgkksvUrVhV1oUoKAbWP2TFqjJfsre318dKJJI7kYKCAnX7TEXzWLFiBX5+fuqqVeWzEve7rlhVLLghISH6WIlEcidy8uRJdXn7za5YletEJBKJirJO5NFHH1WVgk6dOqkCRLGFKJ+VuMZ+oZE2EYlEchlpWJVIJM3iVgyrUohIJJLLKMJi48aNqvBQUPyKjBgxQq5YlUgkTUOZtvzwww8EBSmuz+Hs2bM8/vjjjRpVFaQQkUgkV6H81lJ/xer1VqsqSCEikUguo2gcEydOvMqwunTpUmlYlUgkTeM2NqxWihDNylfe5ctZa9nTwKapmrTjnFjwNEMHPM2/1xy/aSfKEomk+dzGhlVlPVsRWeeSSEvOofDabQ5KL3AxZhuL5m/h4MHTXMwuofR32ahJIpFcjzvUsJrDxSM72bs5gsNaP3wxunqXOInkGhTHz7kpl0hPL6am5pYXXEsa4WYNq3/QsvfGPY6XZW9g1azvWb8vC7PH7sPy7V/w/fBf3PNgNzoa5ZJxLpMC7HFr5Y6TnQVmyiZV1WXkXTxPVokRJo5uuLg7YmdYTklGOml5pZRW1qkxSuUtcPbzwdneGqtrt8KrLkVTrGxBkUOBRtmCQsSZWmJh54yruwuOJkLKKlmIdCUFOaRczFG3f7zSYIqPUGvcWvrhaFlJeWYmWekllJk44hPsjq2JkUhRTUVJAXkpyWRqLHDwVcpigmFpIdkXizET59rrt1qorRDn5qVxPhPsvL0aTScKpG4PkRGbg6GnB7ZNzk9pA3FudREZF1PIK6mmstoUUys7HL3ccbc2wai6kJyMbDKzitBtLHEFXboAka6EvMRcyqpqqDWupbyoSG0XM1tnnF2dcbSzumoLisK8bLJyiiiqy9DcFltnV1wc7bAX51OVR2pSFvnFGnXiWx9LR0+c3TxwsbiSLv1cKtkZyhYUjvi2dsO9le+VuunbpdpCtHx1OeVlZVQYGmFhL9KJfmJjYXZlCwqRX3ZGFjmFGsqUCxuIRrOwx9ndHWcbi1/3l7ucui0jbvYFPEXS3DJpaWlaT09P7bp16/QxjVEuwg7t3FFPaP82baF2bbouViF67ijt42OHawe9Nl97NG259hXPodqZX0doD+YmaGPWv6udYGCltTKYoH13fYw2QT2jRFuSvV+7YLSbtr1jsHb4dCW/Em15fpR25xsjtD38HbVCcuqDmQih2ufm7xP5qSdfTe5BbczK57QTQg20Vmb6c3xCte1fmKtdcEFcqepKun3zn9OGiuNml/NWgqPWzm209l/7s7WJJdHa9e9O0A438Nc6eb2h/T4tX5upO1mbuG++9l+hZlo7s7qyKHX7XPuiOPc/6rlqQm1J4j7t/n/10rrZ9bpuOq3IOT9thfYNL9FWN5WfEivOzf5e+8ZoJ62/o1IHH61/jxe0b+y8oM0vFxVOX6tdOH24NviqeuqCf49RIl25SLdTvZdTQsdqxw8ffrldgoc/p/14/UFtvdur5rf+4+Ha4cH18goW3z9er+sHVaKwFxZoXx/cXutTd7xeCJ3wrnZu9NXpeol7NKzneHHfeon7dk3d9O0yZfh47djQULUeZlZ2Ip9/aVfGJIq7oUef39wX2mtDffTXM7PSGoRO0D63Mkaf358L5TlWRILSFsrnd999VyuUA21tba0+RcP876YzlSUQPZsFG6socBvMo4/3x0tEX3H4LeqjVTZ0bs3w4amciLvI0ZNixEuL48L6uexy7U2ApRtBSrXzUinct4a317rS48l5/Lw9ksjILezc+C8mOtvi1qCyFUvE8hWsXJqK87RwNu46KM4R5331HG86JLD9mdnsyxcjrj61VusmRs+J/GvjTrYo6SJ/5odPnuNekbd5XRpccXdzpl//c6zenEJymoaik7s4G72DSL/hDDI005dFqZviPLleuYpOEhe5nllfn6GopFJ/rIF0l1GOKX8aSddgfkWkHd/Nsjdm8bPdqzw5bwvbt3/Ae6MsOPM3ERdbTJpVP8a8OpsVavu9L9ovjClvLeAb0aZrv/mUaaFgY6LklcSZ3ApyAx7gw8iD7I0M570+qSRErOD9lbHiuN6Y/v5iIhJ86fPeRl37KuG9PgxOiGDn+yuJNrKg0mMM079cxga1TV/hQYc+TF+4lTV7Ilny3nM8FKwRGmM84bO+JC3oEUZ/MIc53/ybd+Z9wrLX7Ug9uIctu06q+zEL9UK0RSwH0i1we+B1vozcw66NnzPNeSVLV/7C8ogUkSaPkvzdzH5mDgkOj/DcV9t15dolyjjNGeulK9mzPEL0kD8fd9CK1WLRKY6x+vPlJJt3omOfgQxpY69u5Hj17EtMByycCB43Fv+ME2Tv38jWqCR2HzKk3QN98fd1QX2vsLqCajHduJBtip1HIO07KdtmdqRThxa4mwjVXs3rWpzx7T6QHkPCaJV2kMN7v+PHHxey8Ps1rNwczfGzaeRVVYuJQx1CDTZxp0UHUV51W872tGvlgbLX0pVGNMHGuyXtRwzB++BK4qIi2LQ/g4QsB7o/3hd3K7NGylLIhehdHD92AoPhj9Dd3FLN99ZpLL9CirKyObfflO4DhFDr04feve9hyLgHmfL8fXRxt8DGUqjzvq1pr7ZfS9F+tnj5BRIk2rRDcCu8bcRdUStsT4v2nek36h66h3anW+hA+g/sjU9JDdm7ThEn7l01nrQdOYbubcWU69wOtm5dyOLFoo1/2syG3TGcvZhFkZhCaM1c8G7Tjg5qm/rgYmyPd1AnQrqEEtzCE1fjAsrTY9ixR4uNf0c69OpM66CWBLQPpv+wLrhlnCPjVAIJhUq5lMI5E9KvN32G9Bdl60l3cZ/vuacntqfEdPdEEhfV/YdaEfbUJEIdKik7uV6o8qJc3yxm4cpd7Dx0lvNZBZQp2f3JuEMMqxUUZcRyZOMyFsc7EtR3IPf2amyzKVFAE3Ps2g2jT4AoquiI23bGcN55BIN7tsbdSX+ShSMW/mGMDjOl/NQWflkyn/nzl/LdD7uIKSsXIqshrLCwNsfMrJr8lCIKq2sQyjxaUzO0ltc0WEU5lTVi1BVajZWhoW5O3Qgmtu64htzDvX65JO1dw57TJWh8BjIszAdz04bPzDktRv3Dpzle68/ICYMIsTRHPKt6KqjUXOTI2iUsW6zU68Z1azS/ikLK8jVkFgXSr5sf/o4Wov5uuAf34L5Jw+nsbo5tk+0A4kH3b0lIB3+Rt+JF3gaXFiF4GhlhdCGR2GJD0Z42WDuYoK0uJz+zlCLRvkIxFu1rKQRHnf7WBKo01BRmcjGrJR7ubni46kSxgYkQ2kEhtKjRYJKbT7b61Ctd2oXgkDa0auEmBhllM3AnPNt1w6Moj9LUS1wsM8HA0AY7FyMqCkopKCgXAkOUS9RCa2OL1vhPZgy5BkVrFVOaX31ujD9ciFSXpnH+sFCp524naegU7hsZSp+WjUu5upGl47298HYTHa+oCP+xD9DOQoyaugRCv/bGtvP9vP2oJbmHlvPNfz/ji/lL+Pb7nRwvrWhkx/gc4nduZfvqIyQGPcmjL8/h48++5uvP3uT1CX3VHfrrplYVOZlkF2WRGuiDm4mRGMeuh9A2rLzoO+kerDW5WNg70LL/ABTf2b/aN0pbI+qTyqGfl7MrzZSKbo9wv0hoeVXCSvEMXSRaCJGfvqkTIo3U7Ub5KcKwrJJCA3usbQwQz+DvgIaq6hKKimuorU0n6ocV7DlaSnXPaUz/+9fM/VK08ccvMmlgO9z1ZzQNpR/YYyUqY16nzimGUFtbMb0yvsE9qaOY8goNpWUaKorFlPU/X3MgzwevkX/jr/8S5fpqDl+/P5FhQZ446M/4s6FoHBMmTCA2VjeZU1asfv/997fXitWCmF0cCN/BT6lj+evzfWjfuomKu3N/xrw+h7nffsb0bmCtzH3qYSQGD09vyGw7lgFvL2Zz9DZ2bZrJEy52NLz1bDb5WZ6YmYxkosiwtciwsY6YnHSW2PMxGLXwFiNtEzqsmOfjOY6Xv1rBJzMn87Cy6X5DKHahw7OZ/4uzGDyHMrnBhDZYOfZjyjfbWRsRTXS0Ehqp243ys7XDytkKn5okMtJrEM/S74AjlhYeeHvWYGyURmZSJ1oGDmWMKIunOHrrm9wpE8sksnKE5lC3ELFGCM30VC5pNJdtV9fHAzs7R1ydNVRX5ZESO5Q+wwcxoK+PGKYkCnUrVhVbiMJt6AogSUi4EyQVmzB25nT62tk0c+5fRx4lhfuY/XY4zp5t6NElpImdIpbcvJ0cjEqnolJ0yJxYTq5dzoYfwlWjms4eEkvS2WRy4h24t2c3MQpeI71umWJKS47y9fx1uA3uy9Dh/WhM1jSNpuRnh6WtGY7+MSwMP0hkap5Q7E5yfPVspg6dweKYAtKaLFiSOJ8czcHTsaRTI/6ls2fnT2yvvERhzxCEnFdtXHCQpOTDnIzNEQ99pXjoo9iz8Bu27xbx6vEmYOGEmW8X+rVPJC3lPInJOilSU1lB+uG9xNp4Yd6mJW3Vm67ctViOnYnkWHKK0Dc1aDTxrFn5Fft9rDAL8te3i1LRTaJcJ0kS01k0eWjidrHmw7nsjztPlprmz4ciLBShUd+wqgiV28iwKuaezu1wCh3N5OFeeJgr6yiaT0VOOikRG1lV3oWAjgF0EtOjG2vqvnQYGEbvgcYkf/c6r09/nqkz5rJocyrpNa5CCFWJxolj9xeLWLU8gp1nYole9DqvKummThXhn8z8Uqjqxaf5+ePZbI48x4XGNb4GEJ3dVEwpuj7DmHvD6B8kHnD9kVujKfnZ4RrYhWEvj6R10gKWvz+D6dM/Y/baRCq7hRLoZCqmBvqkN8QeTc4FIjfN5fWpz/P81NdZvNcOt5ChPDo6WOhPxhgQxIDHe9PG5RwH585g6vPTmfr6d6w7WU1Jjb3IoYkYWmHuGMzIp4diE7+RHbM/YfbHC/l21hz+Pj8Nyw7dCevZFk+17EqXdqYk9RDrv/2AGVNf4uXXZrHmXC/6DhvI4B6+ol1ssLTpwP2v98c+cz2rPhDleunvvPLvDRzMdcag1pLrTbDvZm7FsGr0rkD/+aYpLi5mwYIF6jZ7dTtmNU41ZXlarNr1o9vQoYwLsddb+euoFVP6WsoKzfDp3QV/Hzusa8U0X/kVYEAo/vamWF4lcZT8jHEKbIOPvz02Rdlc8riHYQPbEuxpKUbBa/NzxOEqJcIKe2d7HJwtqMjMILvEgBpjVzzbtKdd51CC/b3oNKiWI7M2EJdjjmXvHrQXatOVTe3NsBCalFsrc1J/icNWPIQeHn609vbCv1tbfMQTbHw5bUN1E3EGzgQ+PJVR3X1o6ahUrqltcKv5ueLuaItLCy+sCi5RqdFSpXXGpVVXBjw6jH6+NlhfLvS159a1n9DYSCHqpzgKTG2wCfLAsqBUCAxTvNvex+D+fRkQ4oq5+jDb4OrjgLlpLaW5BWSXismMqSetugqBFRhCSPtWtO3uj5NIqesKNVRVNFRfQ4yMzHHxcqYit5iqwnJKiispK6mk3D6IweOG0jvEF1fTUsqLL7JvQRx0CcDGUQgfkcbY1IEWoY8xZlBHOvjaipKaYGRih3drZ7SaYooKNBRWWmBi409I31608mlDx+6BtAp0a7qguwuIj49n1apVqgBxd3enqqqKyspK9bNiGzFpxIgmHTU3irLOIYYVM34hx7Mz7Z4aQ/9fzZHENCr7CN9MWovlc88Sdk8nQmz1h+5aGl99/EdRlJJCRnI2habudOzohqlpnaUli4L03XzQbRE277zNPQ/2ocdvM1/+U3CrK1b/4OnMnYQy7Hbj4c/e5YXXGxIgCo5YuwxhulDpn73/zyBAbg9sfXxoI7Sjbt086wkQyW/BHWBYlUgktzN3gGFVcuejGCmCGPDik4x9tA8d7XSxtwc2WNqHcv/HLzOibyuuu/xI0iCKYVVZF6LYQBSU9SLKupHb3BWA5M5CmT540m7YALr1CsSveT8p/cZYYGrZkrDHR9Al2B39wlbJTaKsUK0zldb/3BhSiEgkkssoGofyk67y066C8kuN8pPvbbViVSKR3L7cAYbVHFJObuCnf09jYmgoPdS3YUMZOXIi7364gqh0UBaOSiSS/w23vWH14u7FrPp5MxtSvWj7wGSefHYykydPZuyQVtgUHGT5v75g6/kScpSlCBKJ5A/n9jWsaqugOJbDG05wNtUcj/73cr8QHs+KoAiRxx4bx4CuHthn72fZ5hhiM4rUJU13C9UaDQUpqaSmFKDR6N7I+bNQJkawrJQsMZL9Gb1z3JncrGH1j1mxWqOBzC3MnpmEYeeuDJ7c99cvh+XFknHoO4Z8aMrz/3ycsQMC8VR9ZhZy6UyK6iDoiv9NZWm2peo71cVB8a1ZS624Ru6ldIo0RupybUMjI2osnPH0sMLCyFBIywo0BQWqH1LTAH8cFD+kVQUU5OZxIbsWNxHnZFJCcWY2GVmFDfgXtcfRuyUeVqXkns9BU1VDjbFWdRqsPB5mds44C1XQyf5q/6I5l7JJOZdOVlKG6ivW3d8VT8Xxjocz9ia1IlEpWedyqDK1wUqN050qHj8K0vMoLgFzP0+cTEvJSbxROm+RTowM1Uq9ssnOKaTwsl9TO+ycXXBxshfnKre8krKsTDJzC8gtvdKyIiF2ru768umjVJT2U3zeppMvviklv8I198OwguqyXJISM8lISCG3SIuBrRM+rd117az6gG3gfqhDms5P6qUz2Rh5emJrKzpxkWjDizlqO9fvrIbGJjj4tMXdzgQL0Y6aYnHvMnLIFwl1/nLFvbd3wtXNVdcul19DkDTEbe5jtRFqa1X/jbqQoc1LXa593XOI9j3Vx6qSQPGZuVT7hqeT1k/vc1MXTEUX6ap99nK6Em1xfqR2/hsjtA8MG68d22usdvywJ7Qj3tihjczXiKMK8dqYdf/VvuA66rIf0tr4ddp174y/4ic14Wr/okrz1F3zin9RxVfsJO3krmO0jw674l80aPiz2o/XHdCmqdfSkxauXThtuLano5+2X6+ntU/36qf1c+ypHT5toTZcTdi471mtNlq77t2/al8Z9Lp2/oVybUlVU9Lp/cKK665T/JoG1WuzIMWv6Tr9dZVE57VRc1/QPt7V50oaJRCklu/qaygo7feOdoJoE6v66dVwzf0oSdRm7XtXO8rNTtsreLh6P4YH9xLtPEr77r4svQ/YX98PHco9Xy7uud7XbsI1/m1VOaK7rpWTl3bC92naGMWZbc4BbcyKZ6/xl9tV9Zc7/3yttrjOX66kUe44H6uVJdlEzRnBU6O6qdpMt25DGTTiLZZkHyYmu5gC1dWdgjIcBjH2bwv4ZkcUUVFb2bVxJpPq+dLIS4hi/5d/YYf90zz25j+Y9c0s/vHmWJ62/46/fLmXqIQGvE3ErmDB/LXMPebKX779lAnt7PHy6ceY12azUr3G++IaPZiqv+66xZ8yPRRs1JfQLhKbV0le6wf5MOoQEVFrmdk3jXjFv+gKxYmAYh1OZ8+PyzhZ4UundxYz/5u3efub+Sx+pxO+FSdZ9uMekUKX8rdD0SiiWKH4NY33pe/MTaK9lDYTYWZfBsdHsOv9FURVaqiMWsWCX8TVO77Jkk1Kmv0ifMXrfduL1m4MW9W3yeRF2wjfq8/3V/ejiLS4SMLnrUQz/nOm//dj9X58/N/pfD5ew8p54UTGpYlUTcQ2hI7j/s4SUb4Davnu4+lHxT0WZY7YsZH37nWhtaPOX+6K79Nwnr6WTbsP6co2bzJvOSSw45k57M+74i9X0jiKtnGH+FgFI6FqeoVNYOzjOrvI5MnP8cwTDzI0WIutSTVi9qJH0UGtcPYNJKhjV7p27UDHDv6q71T1eSaLvLQLRK2vwT2oE23atyEgMED8bUWnIAdq1kdyIS3vin+IajG1iv2Znxdu50yRF90eHs+jvQPwsRXqtJk9zj6taadeQ+df1FN/3ZCgVngp/kVVlbief9Gu3QjtOoABA3rjW1pLzu5TxNVWUZ0TQ3RUCaXGAXQaEEZgoD/+gYGEDehEgHEpJVHRxOSIGc/V84JmoiwE86LdqHGEtffAJmE7mzfPZ9Gi+cz/cSPrd5/gbHI2xdoatMU5XMoTA4+VD8EdlHbtIkJrfMV0rPH1Y0YYGdvhGdiR9mJa2rVrA/ejNI2sxHNERFsT2KcP7boEq/cjuEs7+vQJxDo6gnOJWaQ11W2CsRXWzn4Ei/J1UcvnhLuLH61EmTt37EALRzGVMXbBN2wwvYb0oHXqfg7uWcz334s6L1nNcsVfrhBaedX1/eVKGuOOWrFqZGqJZ9jjjB2vFyJPP8rEMd3xtfDC0coMi6a64KzIoiDzIjGnNaQfCmftT4v4+uuvWfTTWsIPpaM5HcPFzAKyVEut4q80hei1m9i8PprUcit82ocQJISDyU3Nl/X+RUP8qPMv6lzfv2hhDVVFqWTmOGNu5U1AvWWdln4BeFuZ45yTSWqJ0ERUIVJA6qk9bFn6tVp2XVjNluhzpKpn1XGjdMrttMHKzhhtVTn5WWWUKP4xRTCwssbA3EJNhZGZkDVh9O3siFPhEXaq+S0UYQP7LmbpvabfIhWFlOaXk17QhuA2DtjpnbYa29rh0CaYNgXplOeXUlhhjomZsdBsski+VEiZ3uBcXV1FYXERebW19WxgN8JStLMZJqZV5KWUUFSjpVqps6ivUm/JzSGmM7fhilVlo6CKbFLjU0hNb9iLdm1JLsXnojmYEYSFrdAImvpORkU5VWVC0yhPJnrd9yz/diELF4qwJJxlO1MwDbTA2FQ8VKoQqRQaTi5HEixE5zWgsjCFM5HxZItjqiGu2YiyqP5F6/KzFtqNBZb1h3bxxcLM7Jpd/gpIOR3BVsXbvFJ2Naxhy9FzKBscXOFG6XTTqOgfVrD3aBk1vV5i2t/mMeeLecz7+AUmDmyr82tqLIRJ4P08Ndobz+K9LP1sFl8s/IYFC3/hQHIzhYiKCYYG9tgqflx1MkRc0wQDG1vsDQz1hmc7bJ2dCOxeyoWj+zh2+KDq+vFg1HH2HDtHrFBFm+7jKZuEXVvZseYo54OeZPz02Xz8qajzp3/ltcf7XOUvV3J9bt8Vq8qvM5fWMvv5/zJ3fgRn9NH10eRlc/FoJKcDwvBp6Yxvvdfqr/t8C4Fj5RxAe8e+PL+w/lxdCQeIjFzCP8bVvaYvRmmHnkxZNIf/rnmHMX7lpC37gfB0KLsp44SuRFeVS5XWDqp/UR9P8cyo855LFBYKAVf/qcwR06/CQnFEN1HT4U/PR/7BJ6ptoi4s5dPJw+mpT6HjRumUSqSRebETLdoMYfRD9fya6keT+mV2dhHt3qYXLhM/YZ1oq0NRX/HGdW0iTaWUmpokUtPq+XHVCKGWlkpSTY1eONjiFdidB6Y9RNvjL/PPSf3p3r07/e+bxJOf7GV/cUXT7SZC7On85Y5gwvRQWl32l6vUVvHiLmkqiu1DsYHUX7Gq2Ej+9ytWjcRs2bM7nYLjiI9fwezv9pAuHlzFz65uFesSliz+nOk/WvDQ82MJC/QSXUygdLz0DNHxfFQHw/b1BMsVfHDy8KZD/xi+3XCAw6l5KDZZTdpxYhY/z9DnF7P6eJoadxXO/Rk4LIQewWl8OWsNCcUa1etm07io+hc9VN+/6K4r/kVDRX1N1fqKx6AigeOnr0iRnNPHSRCaT1FwJ7qLJ/z3cYdxkKSUa/yaLlrM9l0HRckV9AbYBb8ImWbMoKH9m+lEuR62vri09CEs4BSHj14kO0/XqrpB4jCn1EHCRTdIiKmrTdvnmD57D+t36p1Q7/yZ3Z8+xhP2lpcN501D5y/3QH1/ueErrvGXK7kRdStWV69erX6/fVasGgid1rQFvSeOZ0wXZ5z3fsPs16bw0tQpTJkyg/c//YUz2d4MfWYaE3r509I+gzPrF/H5i2/x+qy1ZPZvSws/BzzqVOOrMMOxZQf6PfMMYzTb2fzp35g+ZQov/vNzPtpXSWBIIN6Otpd3qbuMiR1eoX0I69mKNvEL+GjFEc6kNrxDza/R+xfdOIfXpkxl6pTX+GavPe4hwxg/ui02or4GSn1H96elcRIxX85k1kff8d1Hs5j5ZQxJxi3pP7o3LYRsveJC8bdA/5r+BL1f0zkzmDJ1GlNe+5a1il/TWgfV3V9thYaciHC2ZjmhbdGOgZ3sVKPob1IUZY+XNp0Y8Ug3Ktf+h2WffsmXH4nw6TL+s7aSbo+MoFMbT5yUohqaYWTpgVdAR9p37EKXLiJ0bEuHAFfcjI30hvOm4HfZX27Kt6/x+rSpTJkxh4VbFH+57ihj6B/T0e98lGnL0qVLadu2rfpdMaxOnDjxuobVP8jHqtI9zbD39sPT2gL78mKyi0opMTRAa2CKg0sgIWFDGHX/PbRzMcbCqJDMhAtcTMyl0N6XzuPuZWB7ca6l8m634vtTi6boiu9PFzsbHDwD8K3KIaeglNLyaoxsXHEMHsBjo/rS1sMKSyPFf6coh5irtxzQFX8HU2xtbbGytMSpOpcs+w6EtnDBzbbha/zKv6iZLbbBHlgVlon5vxne7e5jUP8+9A9xEQJLX19nOwyraqnMKaSkuIbyomI0lr5Ca+rP0AEh+ArJZqD3FescFIh/sC/ul6VdFRUlRlg6e9GiezA+ltVU5N8oXTuRzgYPvV/TstxCcsqEQDPzonXXrmJ+G0JIu1YEd/HGMv0CmXbdaB/WlV5BIr2aV2NlUfh1+1mqqsu1bSUEgJ0Vju5OQhvMoqZcTBWLhJZXY4aJb2fGPTaMzl422Daq9jTW9gqNlc9StLUDDs7mVGRlkVNqSK2xq5guhdC2c1fatmhB50FBIr2JuCuSxqjzsaoIEFdXV6qVX7REUD5LH6u/GYp19ub9i2ry8sg8m0AmbrQOcsPRUf8ryZ+AHDGSZebXYujgJjqi3N3ldkb6WL2NsXB0xL9XGGFiqvZnEiAKzmIEa9ernRQgdwi3r2FVIpHcEdy+htW7Bp3hcuBLTzHutvMvKpE0H8Wwqkxd6htWJ02adHuuWL0zUayBnrQd2p/Q286/qETSfJQVqkZGRletWK2pqbnuqlUpRCQSyWUsLS157LHHrlqx+uOPP1JW1rg/mD9WiAhppki0GwZ9colE8sdyGxtW9SskX3lS9a2q+FVtOPQQYSL/Xn2ck79aYiqRSH5vbmPDqqJbFJOdWIiRfXt6jld21b82PM4T47vicj6F0pwSSm/qXRaJRPJbcAcYVu3xbtePoY8/x3PPXRsmMOmxAXS0NL/mDdffB9X3Z7L0/SmR1OfuM6zWVlBTmk5K/FFOHNO/tXrsBEfjU0gXqkqF6oujnLKCTJKOnCXp/AXiT5wgRqQ7duIU8SnZQqOpveIPVORXXZJOwvGjHNl9gAPbRNh9hKPHE0gvqdbnp1BFTVUuKTHHOHH5bVklRItwhqTsEkqqdde9KM7NuOpcieTORTGsjh8/nri4OPW78jrLTz/9dBsZVm8WTRpFpxcwZ8ZgxgzpQY8eIgwZw+AZc1hwuog09QXRFM5FLOODfpN5/5//ZvqYMYwW6YaMGc+MOWs4XVR25e1ckV9+zAJeHT6YN9/5miWLl/D1O28yePirLIjJ1+enkE9x9ibmjhjC6DD9ddXQh7Duk/i/Ncc5VaS77sfDXuX7EwX1zpVI7lwU24fyLtwY8RwphIeHs2HDhjt1xWoKCVG/MGfaSkqGf86nq/bqtIFVnxI+vITYaXPYG5Wgd8ZTRHlNApuS3Bk0cx4/Ru1g1aePMrxkLtPm7Nb7WC0kLe4w4V/pfX9+/hGzFs3io8/1vj+/CudwXH2XAcrLRsHX+HZ97yrfrhLJ3YYiLO4YH6s3xg6nlqH0ffpRupTFcf7QTyxfPo95i75n0eoDHIy5wKVijX5rB3NMLbzpM3YYPfv1IrRLT8J69KNv9w7wy1EupOaSJaZFWYmJet+fvWnXOZiWgS0J7tyO3nrfn4mJWWKapGYoUN7EtcTZtw2BHZTX1EPoEOKP22XfrhLJ3cddtmLVDGNTC6zsaihIK6GwvJYqQyOMzMwxtLfH4KpNREwxNfWga6+2eDnZiDPNsLD1wrtNB9yS4riUVUhWkd73Z2Fgg74/AwvrfH+q0U1E8dl6kejwb/lxkRBw8+ax+IcVbDwUS3ZllXSEI7njuMsMq+LBj4ti82c/ccR+CL0e/z/e/eArvvp8JrNev48ONhbX8Upeh2LtLKCsrIpyVTgovj/tsLW+xventS12l31/3gyVVJUnc3TDj6xc8g3ffKN4Vv+a775fzr6LBeRLa6vkDuMuM6wWUlZkTG7qaB6a0ocurR10LhMFjUnFa+O1WiMhSlvgqnetaKD4/qxNIjX9Gt+f6akk1Sq+P+trN7rVLddH8dnal8kLt7JmTySRkdtZ8t4jdIr9irmrEoiT1lbJHcZdZlhVuERl5XoORp8nV/HVWZhM2r4NrPzP1xwpLqnnyLeIisoY9h4+SGye4mO1kLTUw6zcsJgjAzrg5eGEj50fzorvz5aN+P5sqXMQ7ae8mXutb1f5tq7kT0LditU6w+r9999/J7sCcMM7qCvjpnekasdHfPbWC0ye9j7vfxNNXI0fDhjX85tqTm21NUWJ65j/4VtMmzyNf36ymUjNOCY/3ZcOLR0xM3LU+f58tDuV4R+z7JMv+PLDL/nik2V8HF5J90cV359VpGxcxOcvvMlr/1lLxgCdb1fPRl35laEpjmHdR6/wt5eU/XP+wv8t2kGC31geGOCNr4t0xie5s1AMq999991lw+qZM2d44oknbgfDqvIUetFu+EC69wlq5BV6C8ysAgibOJIuwR64mdni6NeVvpMm0q+NJy7W5hhZOWDfKpSu9z/NU88NoqufEzolwRRjIzf8vH1xtbLGykhoDy5tCe03iSf7tsZP9SZmho17MJ1GTuS+rp7YVReRk5ZDUbUdnl3vY+LITgS722JhYIihuQNWnp25d2IfQsQ1dNOoa8tnh5NfCH2fGEFnTysczI0wUq7r2Y4u901kZCc33G3qDC8SyZ3BrRhW7wIfqwmcWL+Rr5/dQYs133B/R2daNi40LyN9f0okV1PnY1XRRBSHzYp/VR8fH/WzEteYXeQ2t4n8fkjfnxLJr7kLDasSieSP5C4zrDYVN7w73sPjn77EsABrpC1TIrl1FMPqt99+S7t27dTvp0+fvl0Mq78ntjj6tqPX40MJcTNH2jIlkltHMaQqm1TV1uoWShoaGqobWF3PdCqnMxKJ5DLKitVHH330qhWry5Ytu4NdAUgkkj8UaViVSCTN4k9qWJVIJL8Vf1LDqkQi+a2QhlWJRNIsLCwseOSRR64yrC5fvlwaViUSSdPIyclh9OjRlw2ra9euZd26ddKwKpFImoYiLG7Wx+pv8gJe+/bt1Zd1JBLJnUtycjL79u1TtZAuXbqoRtaSkhI6d+7M2LFj1TUkDWH0rkD/+aZRjC/FxcVq5srrw/XDli1b1GPKa8S//PKLOrfauXOnjJNxMu42jbO2tlYFiaIUKBqJYlBVgrOzM8HBwZiaNuyivFmLxO3s7Pjggw/0367m1VdfxdbWVn2VWCnIhAkTMDY2vvx6sYyTcTLu9o1TVqkqcYqQUQyrylqRRn/mVaYzvwdC0mmFkqMdPXq0NiUlRevt7a1du3atjJNxMu4OixOCRf9UN8zvZlidMWOG+lcxzEycOJGlS5deZayRcTJOxt0ZcTdasdosw+r12LZtGwcOHFANMy1btuTEiRMEBARcNtbIOBkn4+6MOMXIqhhbfxfD6vWoK4Sy4u2xxx4jOjpalWrKvErGyTgZd+fEPfXUU+oq1sb43TQRiUTy50AuNpNIJM1CChGJRNIspBCRSCTNQgoRiUTSLKQQkUgkzUIKEYlE0iykEJFIJM1CChGJRNIspBCRSCTNQgoRiUTSLKQQkUgkzUIKEYlE0iykEJFIJM1CChGJRNIM4P8B2CHMLx8pYs0AAAAASUVORK5CYII=;" vertex="1" parent="1">
          <mxGeometry x="1724" y="457.5" width="215.09" height="130" as="geometry" />
        </mxCell>
        <mxCell id="tFcRdSrbqhkbJn0zH4gM-32" value="" style="shape=image;verticalLabelPosition=bottom;labelBackgroundColor=default;verticalAlign=top;aspect=fixed;imageAspect=0;image=data:image/png,iVBORw0KGgoAAAANSUhEUgAAARIAAAC9CAYAAAB/CvKsAAAAAXNSR0IArs4c6QAAAARnQU1BAACxjwv8YQUAAAAJcEhZcwAAEnQAABJ0Ad5mH3gAAFLPSURBVHhe7Z0HfBXF2oef9N5IT0gICS0Qeuih995EUUDEAlaueou3fF7Ld6te9X4WigIqiErvXUpCTQghPSGF9IT03sv5ZvecYEJRISCg8/gbw5l9d1qy7868O+e/ehoBEolE0gb0dT8lEonktpGORCKRtBnpSCQSSZuRjkQikbQZ6UgkEkmbkY5EIpG0GelIJBJJm5GORCKRtJmftiGtsQ5yI9myYS+7g84Tn5eHoaEpnTuPZsrjixg2sDMe1jpbiUTyq+PHHUldARXpp1n/n40Ea/xwaO9CFycNek316JXEczbFHu+ACUyfOYzeNrpzbkgakXuPEhldjfnsF5jsA2aGukMSieSB5kcdSXXOBRKPvMOfvtKjy8ylzJ08iABvC5oaqilK3s+qD7YRbelPvzmP84ehDrqzqihNSyQj9hKJGSUUiZxG0ok8Hk9hdUcm/vtd5glHYiEdiUTyi+BHHEktWaF7OfTB79kfsIXfT+vOIA8z3TEtBd+9xX+O1nDJejLr/zQCS5FXnR9B5NH9BO0LIjQ2T8xFoEExdh7CgInz+OtvRuBMhXBERVTXN9Jo2ERtWRnVwsTE2gF7R3va2VhgpJyjUF9KaVE++YVllNXo8kytsbZ3xLGdDTbifOqLyErLp7i8GrEQa4V5O1fsnRxpZ1TOlfhCDFxdsLK11DkypfsV5Iu21BuLPBf7q+Xl5+ZTWFpNlVKgnr6YQtni4OyMvZWZOLcJTWMNFVdyyC6uoLKuUSlMMRTJDAfP9thfraMltVRXFJGbmUOJ6HCTxlS0z160rx2O5oqx0pZsUW+lcMctUexE3U72wk5pcz1V+bnkFZZSpDawGVOsHZ1xFP2wNmykvuIKuUXFlJbXUXfDfjTQWH+jcZFIbgHFkdycRE3E7v9qnneernnnVL4muUKX3ZLsnZo1y/+sWTz9Y80x8bFGpNCPf6/541/+qHl+53nN5aYmTZ1ITVeTcpJidUzz8fTFmmX+szSPTpqk8dfT05iI5DvpGc07e85qshWzZrJ3afa8M0kzyVdPoyds1OQrPr+zR7NLMawXDUv5TPP7sX4aj+bjLZL/wjc1H4fmaoqzNmv+4D5B87+fntKcLdQW3bItf1m+plV5Hz/vp/H30JVjYqHR81+oeWZLhO7cCk1N8XnNsT9M0Qz2ateiPhOR/DXPtKqjJWJMT72pWeivp7EwUex9RfveEe1TKm5uy2B1PL4vs9lujbBTyqgXKUWM8/OiHI/r7Cbp+lFfU6xJOfYHzfOLvTQeN+3HzcZFIvnp/PBTm7ISKgsqydD3wtXdAPPWkxEtDk60s27CpjqHjIxqGjJ2cvhyEyXJqZidXsmb//xf/vnPZSxf/j988tUpxI1Ph3JXTSW2sJZCn7n8K+QsQSE7eTsgk8STm/nHljhxXLmFhrLlH59zMtGTgLf3ExISok1vBzA28STH/rGFUAMz6lxnsnzFt+wN2cbG917lIbsAlq85zI7AENa//QzzfHV1KtVeNwnTftZmF1FRfIIPn/qIRLtHeGbld9r6jou6X3LAcsMWAjedJK4ok9JTO3h9lxODn1jFtu+Udh3i2P63WORgjfMNJ3oFRO3axKY1pznnv4KPD50icP+LzLVOJ/TDjezMFrO5RuU8TwY//Bf+s1/XV5H2fzmPXpoY9n8m+lsnZl2hW/lsfyOaXq/xpWp3SqQV/D6gO92UIqqzKI/bxn/+HItZr7f559facs6KfuwU/cgU/dis9ENtlzhBOeeHJqcSyQ/ww46kQZn2imWHnhnGxnro38jayBhDQw2GTXXUVtdDVgxxly6Q0uSAY6+5zA0YwYiAaUweak9d3EX2fX6CS+I0damDLR39+jJi+jgG+g9kgP9oRo4ehkdFI/nHo4WdgbBzo/vUmQzs7op10lEOH17D55+vYc03B9l7IoL4tDzKxHRdY+JI+y496OXvR49OHjga2tK+Wx969vPHt6MbTuZqhT8B0VeLTgxa8jj+dnVURe1hzx5R37rPWbPlOMfOxXM5r4SqhloaSgpIyTfGxrUrfn388ffvTZ9eHXExMsREV1pr8slNLKY805nR02YwZtAghoyYwqzH5vHYvAC6WoGhOsZmWDt50am3UqY29e7uhIWdHuWN9RhrGtEryye7UFz4Fp50V+36i9QFT7E0UbtqaIWZSz+mPbeMhyaPZ9wAbTn9+/WiV3tjanPzyFP6odhKJG3khx2JiSnG5kZYNxVTUa6hXnv1t6aqkuoafWoMLbG2aEKvooySBmMMOoiLePgUZowYxagRM5gyZQheJpmki7t2sLjz1qohBXGxe3nTs5cXVuiJ/6xw7NgTNwMDDFKSiSvXp15jhaWdEZqGGopzKykTd02xOkJjbi6ch6nahJ9Ok0j5xJ/cw671n/Lpp0paK9I+TguHVKDaGKGnb4WNowG1JZWUlNSIi03UJ1qnsbJGY6gLIJi1w8xrEDMGGVMTfYh9ankb+HLjcSKqaijXWrWmKp+iQmMa9TszdpAbDsYGGJp70W3YCMZPG4yvcCRGSoiFEjJjgjj0VXMbP+WrHTHkYkOX/h3F+Jhg4D6Q4X3aYV8axjHV7pp+GFlj6tKXSY9PY7CvNXqpZwja/Clr1m7gm31Z6Ht0xqdTB7Th8evHZe3nX7DjeBiXi8qpVW0kkpvzw47Ewh4rRxt8bJJJTaukolL5g2tNfXYmeTV6lDp64u2gh6GZCaZuI/Ht2oO+HXRGCjZeuLWvwckihph4cd6NnNJVqsXxCsrKG2lqyub8xs0EhlXSMOQllv9lNR+vWM3qd17g8dE9cNGd8dNQ2l8gLphd7Pyi+SJdI9JeTl11JNXUlify3burOVPkgfvUP/PaW6K+lR+x+h+LmNjNDTvFzKo91n3n8Pp8cwrPbWLdfz/gk0/X88VXxwivrKVCLesaFKdbq0eNkRXW1mLwVadxI0rIiA5s5Ug27UmgqryBbs56YuZnhqbLXJbMbI9beSAb3nuHj0Q/VrfqR0uqyI0/fdWRbDtciGUHbzqLmZqNmERePy6rWL36Yz79bB3fRV4mq/IHf1kSyY/tbPXA3tWdfmOjCY5MJ79Qea7SmoLYcBLMGykb0pMBBoYYu3vgZWaOs+747dEOczNX2rs1YmiQRW5qH7y7TmDmw75ioYNY8NwuymzCl1l/FsujY6GEhirprEgreW2EH91Um2oa6ovIiJtAwKQxjBruobtrX4/ornCOkNt9FqNe/5yDoUc4fuB/WSycr6vOphVKPMmmEdvqHDLFrKyx+UHPdXgx5JHXef9gcxtFOricpdYhJP77H3x4Hsrr1OKo6TIEx8ffZ4/oR3CrfrTEgZ4zf8//bBXlBB8ndM8cOl/8msBvdxGkep1rx+Ukx/d+yJyKLRzeH8zxqDLFSCK5KT/iSMQl3d6HAZPmYbzhN2zZd5CTGdo/qsa6CrJDP+T1zxNJr/Jk5mhfcWUZg+sgepsGUZFxluPaSJ6WghguJ1qQUTqYIQPEqkl9tpvK5fRQzsbEkU2j+C+bwOPfcLQuh9LBfggz3SPgs6SmhxAVJ/7qlV222aEErv2coydEvnr8TqM8Yz5AVHwUaUp/q4uovnSCnf/+mNOXLpOn2hRRUXqKD/+6Cwe3Lgzq1/OmDud7HLBzqqXSMIyV4qJOqK6juiCQXf/5G68996Eu2KozvQ5HkWy1/2wOQn+2n/w8Q0aPH6E6rpYOtjornMgvnmPCc1/w6XdZ6H5tqvPKzhLHr78nSCS3zY/vbG0ooyYvjhObdnA6U0Oe+OPXa6oWHkiDjbiR1dr1p9eIEYwa1g0vdX9DBamH1nM0JIfoOifcu9riJC69ksxSKmvE8sZ3MOMf6SRmLKdZNeNDjhTVUD7IB5fKeiyopE5jhW2vUQwZNZZHerQT5eUSs+kzTlyMI7LcCL16C8SViEV9Kgkxxhj4jGX57hcYJiy1Ac5EIvfsZ/XTR+m4Yx1zejvgLU5BaUP2Cf45YC1Wb7zOuIcCGKwUr0YATvPJjPVkew1n0J8eY5JlMhfX/h+HMsrJqjZFr9YMvSoNVg2JnDntQt9l83n0hY7YBa5g2T+KmfiH3zF7Un+629ysjmaUJcZhjh7ew2dH83B0csGqpp564/Z49BvOwsdH0cnyNJ/OfIfvUmqo7iPGVG27oNIATb0V7r59Gff4JLzS3+Gv/03HpN8MFjw7j6GOrfvR74WpDCkJYtOOKDJziqnWa6DJVFnENInhq6Ferzsjxo5n2gQPbEuOija/RUSnbph1dMHZtF4sKauoKW2i+8MvMj5gIP2dbxw+lkgUDN4U6P59Y/RNMLRwoVOXDuhX11BWUkKpuJ3pi9mHg5s/Y6ZNIqCvN+7qH7yy6DfB1tFZnSzXV5VSY26KubiAaupd8O43kKGjeuJh2igcUQbnv7lEibEVVt1cMS+pFGcb0777NMaOHM6onk6YqhMmK5w87DA1FhdAYQn54oLC2I1O/f3p2rUnPf060X2gF/bCUju9aqReXFMa5YnQKH+8bI1R93mJC0jT2ERVqQkew/rh5dEOOzGB0tJAVZEh9l274NXdB3dLG9p3dkBTXS76W01pnRlGVl70HD6UTh5d6D2wKx09zDDMzyfHdRwTR3fH181ctP6H6lAwwtJB5NlbYVmSQ3mlHhrD9vgMFv2dNJgBTiYYiAu+qqiaRmND9K7uyBMYOeHZfyTDJ41iWEcD6rIvk23tj9+gfgz1FeOjGn3fD5++3fFp700Xi3KqiwspEb8zZRKipyw/3TrSf9xERvl3o6utoWizOK+0Do2VMfrqWOljaGJDx4DZTBzZl25u1qJvEsnN+Wlf2rvjXDsLeIoZNwwqSCSSB4EfjZFIJBLJjyEdiUQiaTP3aGmjPJrIJebgJaqsXHHsqwRqtUckEsmDxz1yJBKJ5JfEDzqSnJwcsrOzdZ8kEsmDjpubG66ud+HJhuJIbsabb76pOBmZZJLpF5KUa/pu8IMzkrfeeoujR4/ywQcf6HIkEsmDyiuvvMLYsWN54403dDl3jh91JBcuXGD37t26HIlE8qAyY8YM+vfvf1cciXz8K5FI2ox0JBKJpM1IRyKRSNqMdCQSya+MoKAgJk+eTH5+vhqAVYSz2op0JBLJr4g9e/awd+9epk2bpj5MUfaVKAHYtiIdiUTyK0NPT0/ZP3b1553gDjmSWqpLckmPSOJKRQO1TVWUZKeQ2CwTeDVFEh6ZTEJGPsVVTTRcLwErkUjuIsrso1u3buzcuZNZs2YRHx+vbvFoM8o+kpuh7IKbPn267tMPkaB9kZbTdM27p5UXaYVqdr+5QDNRFP/9i5uU5KFp12GuZsKrn2o2hZVrrtzohVsSieSuoFzLyiWv/MzMzNS4u7trdu/erb64rq3cxaWNMz4DFvGXXecJOnee8+eV9DVbV01gquVu/rXsBVYcCEfqCkskPx9Lly5l9uzZPP7446xfv54dO3bw2Wef6Y7ePnfRkRhhauWCZ8/+9O3XX51S9e8/gMHDxjFx0nwW9soh4tRpjp+/TKnuDIlEcndRljFxcXHMmTOH7du34+vre0eCrXdoi/y1gstpxPxnCyeCmui29h0ea0+rF1M31RRTfPyvPL/CFPdxU3n+N6Po1KxRci6YS8l55FeYYGTqjNdQf3q3t8PerJLCtCQiDoaqyvHq61hUFDsXYTdK2JkKu1qqC7PIjAjnTGoRNfXNsuwmGJu50GvCKDo7mGJSmUZWegzhiRkUFWnV1bF0pF2Hrvj17kEnS+EK9fJJu3CZ7BwNtiMH6/KgNjeey5fiOZdqerU86xb9k0juR5Qt8sq3+ZXv23h4eHDp0iX1p/K5rc7kB8WfAwMDVSmBRx99VJdzM4rITUjkwu4U7ObPxNellPwzsaSmaXCYOZ6e1mDcYu6jp9eEuWUpEVsz0W/ngsfwrrhrSim4vJsv1n3Jpt3HOBUcS2TYZVI0NrR3d8TJppC00ztZ9cT/8nVCEhcjw4m8GEZo8EWCgxOJ1/PDx8sGV/M8csKOsvm/a1l75Cznw8KIuHiGU8fOcHRvEpYTJ9PJpo7ymCMc2beRr0+c4PSJMC6EhhESl0x0fj0VJp509bDA3PASpz/bxv5NsVSNH093K9GPxhLST33Lpk8+5o11l7AX5XV2ML9G5Fkiuf/45ptv6NKlC3369GHLli0888wzHD9+HAMDgzY7knvz+Ff3ZilXs1L0S4vIL6imuiSena/+ha15w+j9xx0cCFrPnvf7UvnfjzgYmKCLpVhhYTecZWuPsDNIG3cJOryaT37rwLn3VnA8OpGM9Aiij4fwn3MD+O0nhzms2m3nm/efYbIoQX0PekEQxzef5MjJzsz993mOndSWdXTlM8y3S+Sjpz7iRFG5cI83ID+Q44eO8vXONF2GRPLgoGw+U+IiX375JYsXL1bjJYpDaSv3xpFch/J2uzwy4rowof9AJvbywMHMHdveT/D+4VUsn91bndXcFCMD8PXE0dqcHzK7isNIZv3uf3hn5W+Y5Sacy096dZ+y9skm8OtvyDK1od/Spd87JonkAWHZsmWtgq1KnOTB3dnaJC7KgnwKay3QWFhha1pNY8EVUiuU9wM74elsgpHufTo+vTrj7mCpi7FUUV0eyZ5//5a/vLRMHZSXfvce//2mkO5jetLVzRYbp150GzKK34wqIeTD1/iravc6b3+yl2BRgvKOOoxssPfwxLuzA1Z1yZxe8TvefGUZr7z+NftjzAh4cg69LMzF/Od7GqrKiN/+v3yTZktj52FMG+yC8u6r+8QTSyQ/CWU/V8tga/fu3fH399cdvX3uyXWgqa+nPD6KFBsH9Nu70qH5bXJXhZx+BD09dVeekoyNjLATF32XwjDyM4u5Qgc6dO/BQ8PqCQ6LJ015m75qqzu3FdrM5rLMTM1oZ26MfVMxFeVN37/ovLqQyoRTfPVlOIWuQ+gysD89fvz9nBLJfYnyt648Y2n+eSf4mR1JAw21xeKCj+PkkTByO3tg392LDsZmGDi44GWZRnZmPum5tdQ31dJQkUNSRAKZ+RVoX4hvjplVL6b/4T/87cNVrFol0oev8+8XumG75b+cCIwnMq+WxoZiqupqKfdfzML/eZcPV73N689PY5AoQYmJ1pdkkp6aSlx6FXVGPgx97l3eeH8VH7+zlEUDIW3NCgLTKyhQ3uNFPTW5sSQf2cj2jEkEDB7KiF7Ke3glkgePu7Wz9S47EuHthMdTvJ42lVKY9R2Hv3qVx/+vFPcOvgzp7SHszDBUXknZPZHDF4I5GJFOflUWxRFf8OrE5/hwR0SrjWvfl6ckU5HhjkZPrH2UmQXpJEYf57N/nWD41En09HS/Lm5SEPQh7/397yz5dyDnszXUNWjLKi3VKCsuXTnN5JJ8+RwbNp1ixGvPMNqvM0qLJZIHkQcw2JrH5fMb+Nt0f4YP8lfXYf7+jzJ32WH2Vc7gT59+wguTm4OoZpjZ+jLr/X8wz+kMEf+azaThC5n2ykUsX1nOlFFddXZlVBQFsfrJccwcritz+FwmLT9IwbyPeXiqP71Kw4i6mMyJ3suYNsSS9q1e4q3FYeRvWDprJIvqt/J/on0jdO0b8+wf+W92Nb7/+B0P+VrhroukWvsMYMBLa/ntqHZ0vkF5EsmDwt0Ktt6hDWllFKWnExeUjdX4EXS0r6A4MoqYC0lk6iy0WGJi6Yhjx/Z07eyDq40RZlc3cmk3pMUGn+fS5TwKKkwwNHWi45D+9HK3o51ZlagjichDF0gRls3hC2WjmaGxsOsp7DrbYVGdTEpqBqEl7Rk/wgd7UyMMr2ufKcZF6WRfiiEiPlN9zKtuW7O0xNLNE5/OvejjbImxQSHpYVEkXa6iwW8EI3wsMVV2pN2gPCu5IU1yn6NsSMvKylI3oHl5eRETE6P+VD7369dPZ3V7SPFnieRXguJIlA2mY8aMabWzVfnc1ic38umlRPIrQpl5XBtsDQsL0x29faQjkUh+RfzCd7ZKJJKfg1/WzlaJRHJPUL5TpuxsnTt3Ltu2bVN3tg4YMEB39PaRjkQi+RWhr6+v7mhtampS/608a1H+3VakI5FIfkX07duXrl27smvXLmbOnKk+ubl48aLu6O0jHYlE8itizZo16hObzz//nCeeeEJ1Jk8//bTu6O0jHYlE8iuiWbNVeWLTrNn6s+xsXbduHRMnTtTlSCSSB5VDhw7h4OBwb3a2KlMg5fV+EonkwebAgQM4OjrelZ2tcou8RPIrQdki7+LiwuDBg1X91tdee039qXxu66Y0GSORSH5FyGCrRCJpM0qwVZFZVHa2btiw4Y4FW6UjkUh+RSg7W5Ug67x589RXUvTo0UPubJVIJLeGsptVSY2Njer7bJRdrXJnq0QiuSXkzlaJRNJmZLBVIpG0mbsVbL1D+0jyyIyIIvDLOByef4J+HoVkHzrC8T3BxOgstNhh3q4jXv39GD5kIF2dTLAy0R2SSCR3lWbNVmUDmre3N1FRUepP5XNbd7beoRlJKUXp0ZzZeJiovBrKGwpIvxhKyIFQEquNwMAIIyMlNdJQncblizv5Yt0OTsTlkKu+O0YikfwcNAdbGxoaMDQ0fBCCrba4dh3Pgr+t4L8fr2DFCiW9wd9eG88UrwIit6xgy3cXCM2soF53xq3SUFNDVWk5ZWW1YjBuOrG6J9RXVlJZKlLl7fZOIrnzNAdblVWGMkN5QIOt1ti5j2X8wvdY/7IdWeeCOHwimgL1mAaNzjveKCkrsO9dhfJCqyZK09NJOB1G6PksamsbRJ7u8FW0dj9cnlKvYqd+uDmK/bVltWpTM0p5TeTFxRF1Ooq4uDxhe42dcl7Lcq4mpQ6dzVWUvGvsrq1XfG51vEVqXZ62LLW/al1K0h1qiZJ/g7Ja9UM99wY2Sr7ORHL/cbeCrXcoRpJI5J79rH76KB13rGNO7zRi/rOFE0FNdFv7Do+1R/cScC2a+nLq4z/l1d/mYDFqLAv+PIiO+edYt/BdDueXkqOz+x4vhs5/nHlPzmKkXTXkHuS/b31NaKIGY1tXrBoLCck2YsqfXmHW2D70tFHOUV4XHsGmlz9id1A0cUrWVZrLG0E/zQVR7w7Mly1l8NVzW1NdlEjKhS9ZueMYUbE1YgYkMq1dsew5gYXPPcnUjrqXaVVnUZKwjzd/+xX5hp2wMjemrqqcpAZHFr73JlO72Aq7dBKDDvDly6s5Jk6pUSpQscbUpg9jfv8miwfbal/EJcorT9nHupVfcTiqgpwb1VsXRfjRnbz7tx3it9DyfT+I8hxFeV+J8hxFeaVkJYZw6OtNBGd40K4hj9p2XXEcNJ7Fj/jiLOwN1LNu3j7Ldn10/Wig8fw+DmzaxeqzqbrjCs74DJjIY2+8zCRRoJm2QMl9gjIDcXNzU79bo0gIvP766+pP5bOi5doWDN4U6P59HYGBgep7MB599FFdzs0oIjchkQu7U7CbPxNfl1Lyz8SSmqbBYeZ49S15xi3mPnr6TRiYFxO1LYY6a2ecBnnhWhPPgb8fp2HwBPpPnsiEYQMYMKCvSDZUBOdgZOeF59AewgWkcvazf3EwvwMu/ccxbdJAenRzo13ZKc5dMQcrB3y97TBVL6kkAlcEccWwA53mzGX68GvL64xno1LvUeoHDsHD15P2urfrXaXyMknnjrF+ZTBNg6YzsN8QAgYMoHc3VxxJYd/OQtp1csLFzYCqpHMErf+Ug02jGD5hDKNG9qKTyDcpOse+VAe8Ozrg7lhJXmQEx9ZGYvHoYsaMHsbIwbryDNPZf6QSNz9n3NrXUBx5jN3vrCfWYxR9Bo5guPiFDxB2vqLeEFGvpajX3s0GSyMrrJ098RN9Kw++grF9d3op/Q0YQL8+vejYzojy2D2cCzrEsdohjB/Sm149fXAxyaMwN45dOfYM97LBzEi58vPIuq59HXA1aeTKsWxc5kynW00wp3aHsD/ClL7ij3P88AEMGuiEyZUyqq4Y4jJtPH7X/M4l9x7lC3rK6ycsLS0JCAjg+PHj6jJH+berq6vO6va4N79qPVGtlZW4AGrRq62mqkrJVJriQNeAacxY9LQ63Xr66SUiTWGop7hgFBMxk6nJi+bQrsvo+QQwZO4sJk0fzaiZk3ni4W6YXo4i4UI8qWp5zYhZQPfhjH/sBuX9JPQwtnDEpctYJk95gscf17Zt8UMTmOhTR+zBEBKziyitzSU3KZbvjhTiMuFhRs+exPjp45k0ezQPT3Ch8Mh3xCYJGzW4bIyxqSf9pi/k4cW68hZMZfIwS7KSEskvLUcx0zO2EE5BODw7B5zt9DExqae+ooTK1GhCd53R1mvihHO34cwSfVui9q0zvXX9fWLRY4zqZE47s3zSwiKJPVuAeb9pjJ86gtHTRftGeuFjkMnpjcGkVNUh5no6rm3fPOaM70sncUSdWBakkny5jMym7kx55GmWPKnYzGJ8Px/E5FNyH/MABlt/AGU1VVtLbaP4szRUnubo8n+MujLq85KITPEWU7T2eLhZqNn6RsbY9x5Ap5oiNJk5pJWq2T8RZWVXSX5qHLFhIYSEhHA+9AIxl7MoqqqlwaIjPgGzefnfzzLR2wiD3HguhYdw4WIc8en12HRoj52lOaaVeZTkFHEpx5c+fi60szFWSze2aYeLXx98cy5RlFNCXqWS20hjQwlZsWFEXtDWqZaXIcoTF6N7O0tsaIeDVz9GLBqHa6o4fuxbvt78BV9s3su3wVlk1DWqi7efRH0SmZdLSYk1wqoumUjliZqoMyazmJLCJqyDLxBdXkfJT/17snDG2dlWzGhKyIgIIfS80ocYErMKuaWhl/zsNAdb9+zZw/Tp0x/wna2NYtmRnUFOjS1N4kJzctDl/ySUe6IXjg4W2KgvFhcYiDw3d1zNzLDTZf10lKcq8ewWjuKZSUMZOnQoI8eM54m/fsZ3iVmUXo0gKW8HzuHUxy/x6qyhjJn6Ii//t5CBryxjVPfmO7E5BgYdcHc1QDRFi/iHgas7HQwMxNFmyqgsOsWaZVN4aIy2TrW8/+QwaHIfenjYYSVssiIO8vVvX+aLskkEvLSZjXuCCQ7czqE1SxluZyFsfiIF+RSVJXLmwkb+NXcoY4dr6xw6aSnPvbOJONJJy2mk5vspyQ/T7SEenhfAAvdTfDR7COPU8pbw+zWHCdaZSO5PlGCrsj1eUT588sknH+ydrY11tWQHnyS+qwvGvl5izX8rKLGPFPIKKiltvv2pjimTnOpq9YXgt4YyHfJl1p/X8PnR85w/H8TRPf/H3MqtHDkQzPHo5kqU+IEbI5av5MN9wi5oPXve70nlB3/iwIkItGZVNDSmkpndSFXzRVldRaNoW6po4/crLmss2g1n6doj7AxS6tSWd+B9Pxw/eJ7NW0I5mV5KVbkhhZkzefi54fTr3E7MUm4TByfaWXdhmP8i/rLrPEHndHWq6SgnDr3PM72VQLDO/idgYwsmnbzJHf4XVh0JIuj8Bt5fOokhuuOS+5NmzdbmF2Q9oDIClZTni2n1wQ95fV0WFh070bOnZ4s79Y9gbI2Rc2d6e18mOyuT9Gx1nUBTfR0FYrmRaGqPvocbXsoV1yRmEOJOXFhricbCGtubXoV6Iplj79GZLj37iqlfb3r18MG+MZ/ionKyowIJ2rqSl//vFOdSNeg7dMKnR1+6d+uKs5UF9RmpFJVWUGnqjK2bPb5ucVyMvkJRiXanXW1JEVeiLxLn5ou9my3O6mrMQEyibHDt0pPuvZU6Rerdix7eXhhlpVBQUE5pbQNNDUVUVcSTK8pvbGjEQCyf8qPOcvyb3SQIT9UqFPRDGHXCw8caJ59SLuSb0c7Xj+6izi424veRfJovArOo0DSiUf4aKiupKa0hT9+VdvYGmNxw53Ea0aHniYosxX/uAkYOGMjAvl3xdlVmUpL7mQdQRqCS4qxwAr9ayZrVK1m5UkkbWLfxCAcuZFDkOo5x/j3p79m8PvkJGFlj6uTHpNmd0UsO4syWbezd8R1Ht+9lzbcJ1HXqSbf+rljmhXJ05WesWbWHaHMrrDq74nVTb6UEBvKJC9zJ9s+VNq5h3Vf7iDX2o1OX9ni7mNFYWUJx+HEOrhPHVmn7smrDVjZeyME4YDBdOjrgbO2ES6fujJvgRN6hrzm2bR8Hdxxk37ZjfH0oD6cJ4+jeyQUn9cKspa46lfM7PmfjGt3YrNnK+n25VPpNx6+ru3CGNti7uzNgsgl5QRvZvm4VK1dtYOPmU4TEl1PfcCu7NRzw7N+HvkOdMQ7dzsa1n7JK6cNX29l5Op68KmW/SRYxB7azddXX7ApOpHJQT7raG2Hd4rF9M1Wp5zgTkU5UlTuzJ3bF0dRQG4SV3PfcrWDrHXr8W0V5XjE5ibW4Th1FJ4c6alKSSYqNITIhnKiIcMLDlZRNaoE1Vn7jWPTkQsb2cMJVvcDraKgp4fK5QuxHDKajT/MFp3SwhPTQfAw9fPDs1x0faws8fWxIPxdCcngCCQk5pEdHE5jRjpEL5jFpmD0GCafY8+6X7E4ownLMWMaN8WegkzpNuaa8jrjrF4p6w4nPTBSeWmljlPp0xWzgY8yZGcBQcQF2cHTFrzacM/v2cTJMzKhEX6JSM8mycmHQoiXM9PcS7TLH3MIcF3dTLu05wOXkAlLikoiPyxAXnDePvfo4Ad7tsDdSxiqLlItRRKfFEhulG5uoVBJzbej+2G+YO64zvq62WNu2o7OfKRlnDhB4MoxTF/MpqLfHe8BgHMTPflP60LFD85Ln2r51pUML52nh3B5XeztcEo+x5UAgoaFhxJRaYN1jPC8tHEdXu1TOrd7IngPniTNxpOei2Tzk64aN+ki49e/XMecsl4qtqO02jiemdMBW3I70KSM/sZCqBmvcRw+ik6Xw+/dk4Sy5Gcrj386dO9OnTx/1nb9LlixRr3HFofTv319ndXs80OLPRUlJZCTlUGTiwdCh7cU0/P65L+aIccvIF8sRRw/xS2rbM3qJ5E6gbEjbu3ev+rTmk08+YciQIepP5bPyGs+28EDfM2w8POgyVNlk5oax8f21jdLB1xe/oX74+t7SIymJ5K6i7GBVgq2LFi26KiOwevVq3dHb54F2JAYmJphZW2Jpadxmj3qnMTIXSx1luWP+UzfJSCR3n+DgYDXY+vDDD7Np0yY12Dpo0CDd0dtHrmIlkl8Rik5rc7BVkfZQAq2KfmtbkY5EIvkV8cva2SqRSO4Jv6idrRKJ5N5wt4Ktd1Cz9RwHP9pNmPh04y+TudBj7ERGTxlOn9ve6y2RSG4X5fFvZmYmY8eOVbVaIyMj8fHxUT8rS562cIdmJHro6RtgaGKCiZpKyYkMI/TgBZJrTdA3UvKMMTI0+IVNgZQgVRbR+7cR+N15ovO1uRLJ/Yqy+UwJuNbX12NsbKwGWpXAa1u5SxvSLrDnrZsrpN2vKBqwdTX1NOgbq4+U9fVbPlJWhqmOytwcivKLKa5U9DuUuVcUW1/fQkWnmQxf/jKPdVONJZL7DmVG4uzsrCqibd68md/+9rfqI2BlY1pb4yT3dIJwvebntRqiGpqEx2xsFMfEgZaHVE1RcUw57/t8nY6oek5zuv7c69FqnpakpXPpdBjnz2dRIxxK6/MaRZ1ZxG19lxVPzubRYcMYNmy0SMv5IKsLJv5DGK06EaXNSl+0qbkdN9Vj1fXjanuVz63q1Zan+HslT/mp/aw91jyGLYtWbXT1a9O1devqbanBqnJteTexa/F7a87XnteiH7p0fR2Se8natWvViYHy86mnnlKDrcrPtnKPZiTKkiCXE5u+JOhcHleKTHEyLCHDYzbzF/gzUP3KfBHl+edYu+AdDuf3oO+yR1jw7Ai6N5/7wZtsOZROrudEHnvzFSYrGqFFJwjav4VNO89wpllK1GsoQ2c9wrwpIxjlqMtrSaOiAXuAD978mguJGoxs3bBuLCBY1YB9lVnj+tDLRsxFyouJWPtnNlV3xL5zLwI6uXz/TVdTexwd2+FkX0tNfqho8w4qOttSWJxGalwcWaaWdBqzkCVPTBN9c9d+N0ZX76Yvv2ZXYDJxuSLPyBRhyOwlTzBrYGdRrzIG2vIsli1j0Lh2mEWcYutbwbi9/xbjumST/OV3hIY14tU8Bgb5RAbt59iBYKKynfAggzy3sQyaHMCUEZ44qrOoCDb9Zg/57n3xWzK7xbjEErSqubwXRHkR7H71erv8Ex/w+ZZwQur7iLFfLuxySdn6JRt3BbJf7UgzXgx99HHmtapDcq9QZiTu7u7qBrQvv/ySN954Q/2pfH722Wd1VrfHPZmR1FeVEb/1LY6n6WHkO4qZD01k9NSxjDA6yM6jZzgckSesGmisLyMnphy9hhgSsi4RGF5KU20lBUFfcCYrn/SMSgyTcyisU2YP8Rxb9w1BFyqxDFjEiy++qE0BlthdCOL4umPEK3WrLWimltrKNIK+WENkQ3vcx89l/pNzmbVwBvN6XSEs6BTHz1+mtDaf6pwgdpyvpjYjgcLUMIIiQ7h48RCHDl2koEL0w9QCI7XNhaLNxzgQcoUytwFMe3EpzyweQ++yb9i074Sub2VUlYUKh/Ap4aXt6TZlibatzyzmxd5lFG7ax+nDEaSp5ZWI8i6TW1hBVWMt1aX5ZEankF/ZQG1TNaW52WSpY4AYA0g7to7TF+PJdh7JnIfGMvahOYx0TiD+4lHWHUsTdSv3jXIKUtLJySyirNXyuGV5YlajucauqRYx+Ozffog9u0OIV+wqa2iKO8SmPWmkNfVl+iJl3J8VaRw9NLU0XleH5F7yC9rZWk1d1WWCN56hxKAT3UaMY+L0UQyfMpZp/RsoPBtB5IU0tHFLpXkOdBvui5NRCXknjhGenMbJ/bHUdeyMh28n3FU7JZahj4G1K/bt3Ghva46NTS0NDcJR5ItZwbkwwk/HkS2sWn1h+qoGbIqqATt4zky1LSNnTNJpwEaTEBZPamERNWlnOX4pgyqNLXYW9tgYGmJkoIdxTSIhe89yLjRV12YFfax9xCxq6iweEtPGJYseY/YAawrPxer6pgSnjTGw98LFzglXW2PMzUVbqyupzblE7NEQYmPTda/p+KloA78xh0LJyDLDZfAkpk4fzvDpU5k02BqzrERCD8UIC63lrVNPffUVYg9sILrSBI25G55KdqNwzTnxXEwSDsppKDMffUpMlZ8QaTJDbkkbV/JzcLeCrT+/I2kqEcuEaC4EW9NQUERRRrTqJc+HRZBUY4lhrJgBpGSS1GLqYNdnEn3drHBL2s22vd9xOKMn3Qf1p2dP5SUKCsoX9jrQS8xqeniaUBW8V9itZ8OG9aw/fJEzGaU31hLVacBGpXrjJqZ8N9WAzRd31vwrpOdlUt1lMsOmLePFx55k4YIXeWVpHxrCjnH22DliVZ0lpS2eDBszGP/eHcUyxhhDk/Z0GTGdzvllVKt9s8DEohvDnpiOtyaXtFPb2bJTtHXjt6wPTCKmqAatZNMtoBEDVhtJfLSGwrRamgrj1XFVUnxhE7VphWii44kUk4p6dTGrzD4uC0eptdEm4Tgzb6y7Wl9VwJWEY3y7M0LM+IYzbPgArbKdvlizWnvQ0c0c85osktXyQkQSDrhYzKLUsyX3C71791alBPbt28fUqVNJSEggIiJCd/T2+fkdSXU1jTliGtwYw6Z3nmfZlABVDj9g5HgC5r3LpvBgkitKKGh1O7bHb1Rfuvcx5ux7H9AwdRG+np1aKJYr99hsgj56i6/2JJHR923++cU5Tpw6x7l97/KXeYPFav1mKMEbLxztW2rACmfg4o5LSw1YI0v0fJ9h1ICO9PLQ5RkYg+tA+nRLQL/2EuI6/RFyKC0rIr+gmuqSaHb99mnWR7XDduYKPtkk2nr6BOd2/ImF/h1x0p3xkxF3FnKyuFJziYNb/8UfZ+nGVUmz/sQ72w+TWJ9Hdo7WVFE5C77WLuApXlt3I91VDUUJ5zm+8g+scnqZ/v49CGgeA2NL6P8if3yiE50z1vLGjGEMCxgjylrO+6dj1eWk5P5B2dGqxDyVHa7Kkxol2KrscG0rP78jMTPH0K0jXgY9WfAXRSc1lNDQlmkrH/1uJiOv/fa9TU/6zP4fPj12kL9OVl74pMtX0U7rc1P70LHrBGbO88VN5Pw0YQFlWqfVgC25qgErymupASvabOTmga9wMLeg53YD3LC1VsSuq2moLyI9bgIBk8YweriHWMC1EcX5ubXH1cyXqY+8znsHrx3XfWxeuZxZYmC0L67yYsh1dhv4YKlYkqgFtiDtJNFHT/KfkzP53dIA/FoPvoqD8HzVXYfguOg99oSeITh0Fa+N8LtFPV7J3UbRbJ0zZ87Vna2KwNEDqNkq0LcRN3c//IcUky3W10WmrniJ6VbPbj64lwZx5HQUwZdL0Fz77XsDcyzsPejUozsedkaYXrcvpY762hSKy7IpqazDuKkevYJ4wvfuI/RizA3e3icwUTRgu+g0YDPIaKkBG9FCA9bFFmO3bgw2OEBaWjZJSrxUNRROqCCWxFRP0d4OeHdQMhWnliry4kjIzRPLhFpqazMIOr6DSCcrTH1EH4yUx7eV1FXHU1BaSFVNA0a1ZdSmhxH01TYi07MpVoq6FfTEgBn3pltPDU22lSTX2OKujKtIXpoEYsPPsycsD43ylgx1e4wpVg5iSdK9tzrd1aYual+vPo1SySEmLJDzMel4P7yMyd4uOLcafK0K/8kDZymutmPQ1NkE9O5F397euFubcwt60pKfAWUJGx0dzSOPPMK3336Ln5/fgxpsNcPEwotBC0eJP/AkYvdtYKXygvHVn7FyRyDh6aVUNtyqtohyi22P30hn7IxiCfl2JStWrGbFym3sD0whI69We+1ci6E1pk49mDS7C3rJJzmzeSt7tx/hu217VA3Y+k698PXvRgdrYefQnUnDnahJusCJgwfYG3iE48d3sXNXGBUuQ+natz89rk4r9LmSco7v9ip9W8nqtV+x44IprkP70rd/BzH7EGNg5sng2Y40Zhzluw2ivSs/57N1BzgeVkBxeUOL9irh4TxiA3ewfd3XbNp/mujqVM5s/5yNn23hwPmLRGQlcW57CJer7fGeNBhfjzqKTnyrHVeRVm46yInoTEpq9W88Dj9IKSX61ph1HMjiBQPoZGHcyjlo6msoizvIvogqam07MGaQp+qIbr0eyc/B3Qq23iHN1mspIz+piKoGK9zHXK/fqQYzffvjWZxE6vkg9h09Q2RcMonmA5kzewYT/X1wMqmjobaUlOAC2g1vqePaTMs6hog67OnU1Qo9cZFFB37HvpOxRCSCXZfuuDh2xsfDE78J4t/izO+XPAZiYC3w7GRD+tnzXA5PJDExh4yYGK0G7GMPMXFYNzxNFDsrYdeRgrhoMdtIIKEwi8L0GMLirRkwZzojhvsKu0pqytM59dllKr0MyFUCuceDiUsswLz7iyyaO5zhvvaYiP+MjB3w7W9LcZLyKorTHA1OIyHbDK9BA3EwbE8P/6507eeCbW2hGINILglnERObRMqVUhodjShPjyMxOpWcskIKK6qIO1lLr8WD6dGzF130qmmMDmTTviAiIyKI1/jQZ8QUFkwagKd5k7jIS0i/UICRhw8erbRdW46pvxjTErIvpoFYLg6at5jF/cQST/09fm/nOqwnDrF7OVnXl05DhzFloBPmzfqxN6xDcq9QNFuV79Yos0/lReKLFy8mKChI1SXp16+fzuo2UTak3QzhYzTTp0/XffrlU5iYqIk4EKQ5dixFU1NTr8u9FXI1xVmbNH9wm6D539UnNWcLddl3k8KzmpOr/1czwe0Pmk1ZxaIFEsmNUa5lfX19zYwZMzTp6ekaDw8Pza5duzRiVqKzuH3uwdLm/kXRgO08rN99qQErkdwJfjnB1vsYVQPWyuK+1IC9KRbedB45jVffe4gBtuZtfKok+aXTHGydP3/+gx5s/SWjBJI7MXjxNPp3d8X5hm+pu8OYOOHctQ8T5w+go7kxprpsieRGNAdb6+rqHvCdrb9orDCz6cfsf7zE5AAfOmo3ykok9w2/nJ2tEonknvHL2dkqkUjuGXcr2HqH9EhyyVA0Wz/8Yc1Wv7GTtJqttrosiUTys9FSs1XZT6Isae4zzVblDedGGJuZYaamcnKjwgk7fJHL9WYYmih5phgbGdBKvfAXibJFPpOofVs5ceQ8UVLHVXIf0Rxsra2tVfWV71SwVWq2/ghaHdc6GvRNfkDHNZvCvNY6rtv+uo2KTjMYsfxlHpU6rpL7gBtptio/lc9KvKQt3MMYiU4PVHhExSuqP2+gLdrU0FL3U/xf0yQ86LVaoIqOaYPqWdWk02m9ekzREm0+1jIp9baqrwWKBqk4XpyWptVxDcmkurrumnoVHddMYrf+h5VPzWHB8OEMHz5WpJf5b3ZnTAcMYVSzjqvSZl1fm9ui6Mle58ebtU+va+c1/b06BuI/5RzlszBQP6vjqoyBzlzwvZZti5+t6lbGUCmztf6rWmKr8m5i17J8nZ1yXmPL34uahM11dUh+Lq4NtirO5U4EW++hZusVVbM18Fw+VwpNcDIsVTVbH1U0W7s0a7aGsvaxHZg/u5TB4/rSqzGB/LMbeeydDAKWv8RsJU/RNS05y9o33uHQxVJyypxx9RvJxOWLeaqPC1alJ9mxbjNffnOGZhnXZlz9Rgi7D4UdWCnfim1G0VO9coAP3tpIaAIY2yk6rvmcyzJmyp9f0dUr5iLlxYSv/TObqzvi0KV3ax1Xk3Y4ONnj1K5Gq+Mq+lHeWfSqOI0UnY5r57GLWLJ4quhv++91XEW9m77cyM6WOq6dxzJ7yWJmD+zyvY7r1XGxxzRcq+Pq/v5bjO2q6LgeITSsiY5vvMJkF0U2IJ/IwH0cbaXjOk7VcZ06slnHNZxNyxV91n74PdlaxzVwVXN5L4jywtn9yvV2io7rus0XCWnoy4I3lgu7K6qO61c7b6TjupiHW9Uh+Tlo1mxVZiCff/65en0rP5XPD6xma9wWRbNVH2Pf0cx6eBJjpo9jlPEBdh47zaEI5Q9Pp1cae5m8wkqqsiOIOLKd11bF4ThmIr07u+FiWkl+4nkO/d8KvinohfeUJTz11CgCXAo4+96XfJcijht502PkLB5fvoRnHh+CW1oD3n2mMO2p5Sx5ZAbDPMQ132o3vE7H9UtFx9WD9hMfYv5Tc5m1aBaP9L7CxaDTHD+fTMk1Oq75KRc4EX6OsLCDHDwYRn6FWI+amH+v4xp7jIPncylrP5AZy59l2ZJxWh3X/Sd0/dXquG55azXhZR50n/YUy5cvZ/myJSzvXUbRpv2cPhQhnOE149JYS01ZPlkxKeRXNVDXVE1Zbg7Zip5qPersIPXYWk6HXyLHZTQPPTye8Q8/xGiXBC6Ff8faY4p7Ve4lFRSkZpCTdb2O6/flidmI5hq7Zh3XbVod10uKXZWi43qYb3enk67pz8zFoh/LnxdpAn7U03RdHZKfi1/QztZmzdazOs3WsUycNorhk8cwtX8jhWcjibqQ3kL/VJAXTdzRQxw+lswVzzHMXziVgG7OOJmUUpSeTOi2NCz7zmPao0+Kadp85s8ewbCO7bAw0kfP3JMugycw58lHWTB/ND3N3ek3VDiSBU/ysHBeA1zFjKOlI7lWx1X5NrJo38jpE1ncrON64RJpOh3XE/EZVGGHvaUDdsbKS8CEc6zV6rgGn79Wx9WPvlNmMVdMJZ9Y+Kiq41p0Lk7XX62Oq5GjN652TrhYG2JqWk11ZTnV2fFaHde4dAp1pf00tIHf2EMXVB1X18ETmTItgIBpU5g42AazrCQuHIoVFlrLW6dZx3U90dUmYtrp3krHNTxZOCinIcyYr/xeFos0iSGejlLH9R5yt4KtP78j0Wm2hoVoNVsL06M4d+4cIRfCSay2xDBGp9mqPkPW3inzzh9g/8YjnIwzYtTSJYz2tMBBWYo0lFJVWkN+Xg9mju5Bd2crLCw64jNsFsv/9SwTvC21drfCVR1Xn5vruGa10HEtyKS68ySGTl3KC48uYeFjL/DKM31oDDvO2ePX6rgOuk7HtVN+qVbHtU7Rce3K0Men4qXJJf30Trbu/oqvvtnMVycvt0HHNeqqjmtDYZw61kqKK2y4quMadY2O66UwrY02RXHpx3Rcd0WqOq4BrXRcPa/quCap5QWLFKfquN5yPyR3jOadrfv372fKlCkkJiY+qJqtNTrN1lg2vfsCz00bwYgRIo2eyIhH/sPmyBAuK5qt6q1X8ZSX2LtPzDpCkyguSeDUOXHh1jZqg3VlwpEUVpFp0AEXFwPM7tgXTZSAjueNdVxNr9Fx7XZjHdfeP1nH9YpWx7WwmqqSGHb97hk2RNljM/MTPvn2LGdPCYe0/Y+3r+N6pVnH9d/8aZZurJU0+y+8u+MISQ0tdVzTCb7WbsQz/PGGOq5NWh3XFX9glePL9O/fQ10mqqg6ri9c1XF9c0YAw0eME2W9zAenY8VvVHKvUIKte/bs4bPPPuOZZ55h+vTpLFmyRHf09vn5HYmZmU6z1e/mmq2/b9ZsVS5oX2b95X/4185/sXy+L9Ur3mVHQjlZ1eKQjS3mDhZ4NqaQk91IlZJ3R1AcWOqNdVxr7p6Oa+NVHdfRd07H1VWr4zpt/uu8f+jasVZ0XH/D7Ks6rh0Yep3dBj5Y9gM6rqdm8bulw39Ax3Uojo+/r9NxXckfRkgd13vJsmXLmD17trqzdf369ezYseNB1Wy1/V6ztaGWQhNnPHv1wq+rN24lJzh0KpKzycU0qZqtyp4Nc9q5t6dDv9EMGjGEmT1T2PTNccJT86k0sMHCxhQHlxi2H40i+koZlZXJJAZu4d2XP2RfUgViBXJr6HRc++h0XNNb6riGN+u4umt1XN27McRgv1bHtfnBhKrjGkOCTsfVp6WOa0osCbm5lPyIjmt+aYFwii10XDdsbZOOq28vDY02FSRWWeOmjLVInk3xRIcFsys0l6YWOq6W9u3x8u1FL2GjTZ3xcr5exzX6glbH1eeRpUz2dhYztZaP5RQd1zhO7j9DcbUtg6fMIqBXT/r0kjqu9xpluaoEWxXVw+Zgq/LUpq3cg2CrqVazddFoOmqSiVV0TT8R0/hVn7Jie5C4YMqoariBtqiJEy7d+jN+Xj8sIzdzMDCU86ka2nXozKBHutAQ+S17FO3TFV+xcecZLhTWqvskbllWRKfjOnGOouMaxNnNW9iz7TDfbd3NZ1d1XLtqdVztuzNxhAs1SaGqjuueE4c5dmwnO3aGUekylG59+9O9pY5rajBH9ij9XcGqNRvYrui4Dmut4zpkjiNNGUc5smEFn6xYx6drD3D8YiElN9JxPbGDbWs3smn/Ka2O67Z1fPXpFvaHXCQ8M4lz24K5XN2OjpOG4OtRT0ngt6xQxlqkld8eIjAmm7L629NxLTUQs0HvQSx+TKvj2nJVqeq4xh5kX2S1quM6epAnYrFzG/VI7jR3K9h6VzVbqxutcR898Maard364VGcRFroKfYfO0tU/GWSLAYye05rzdbUkELsdZqtrnaWWLi4YZOwj9Ca9tg4ehPQx4v2PV1pCj9A1PkIzkeIWYl1D0a/tJBZXWyxNW6u+PryWmvANqPTcfWxIeNcKMkRSSQl5pAeG8vJrBvouPp4UxAXQ1JaAomF2RRlxHLxkg0D5k5jeEBrHdcqLwPy8pOJPhFCfFIhFoqO65zhBLTQce3WT9FxFUuKU2c5FpJOYo4ZHQYNwsHIne79v9dxTQ2JIiE7idi4ZFLETKzRyZiKjHiSYtK4Ul5IUUU18adq6anouPr1pIteFQ3RQWw+cJKoyEgu4U2fEZN57KqOaynpYYWqxqrnDXRctb9LRce1lOzwNPS6jmfQvMd5/BodV8XORdVx3c+pur74DGup43qzOiQ/BzfSbD158qTUbP05aNZxPX5c6rhKHmyaNVtnzpypSUtL03h6emqEQ9GIGYnO4va5B0ubB4tmHVd/f6njKnnw+eUEWx8wHkwdVx86j5zOb9+fx0Cp4yppwdmzZ4mKiuKxxx5Tlzo9e/ZkyJDrnsndMtKR3HW0Oq5DnpiOf4+fS8fVEeeuvZnwiD9eUsdV0gIlHqIEXGtqajA1NVUDrcrLstqKdCR3Ha2O66y/v8ikYVLHVXJv+eXsbJVIJPeMX87OVolEcs+4W8HWO6hHUqZ+V2Tf218TUlJ5/bdU/WYyc8xgZvZx1mVIJJKfE0WPJCMjQ9VoVZY3Fy9eVH8qn/v06aOzuj3u4IykhrqqVEI3fUdMainlBhZYWFhgZqxPY+oJjoTGEp5RprN90CmlMDWE42s+5/gl4TTv2Hd8JJK7i/JSLCXgWl1dreorK4FW5WVZbeUOL220X5cfOv8Vfvvvj/joo4/4v/f+xVuP+tHF9f7cxqjIAdaWllImZlE1NTfaKtxAfVUhhUlRxAWf4/zZs5w9e5j9Ozaw4u+rOJpYQWGNzlQiuc9RHvd26tSJgwcPMmnSJJKSktTHwW3l3sVIVI1PRcOzXvWKalL1PBXVUdVAtWlsPnZNUnRZtYsynZ0op+HqcXHxX9UwvRmKpmijmEVVkXH+PGGnL5GaWiTaoz2vGY2mhMKEoxx5+2lenTiOaSNHMnLkAp7610nO9l3K1MGWuNuJshpF2xsUHdbGq+1QHq1dr0+qrVdp79X+CDutzqzORLFRy2tui1YnVdVDVT8q/W24Rj9WsRH1KWOoSw2NrY+rGqr1NxiXVuXdxE4MtqZJeVSo9EmxUvK0v8Or/biafmzsJfcKRVpRCbYqcRHlHTdKsPWJJ57QHb197mCMJI+S7BP8c8BarN54nXEPBTC4nbifVxaQ+fWTPBU/lhGjpvDG9M5otUn38+0XG9kVmExsC23SOUueYPagLvQyzqT40l7eeGUDF4squHZRNPTZD5k/VVzUjpmUX97LmhUbOBRZQY5iaO2KZa+JLHr+aaZ5W9H+Rl83LY3k4pEdvP+PfdS7D8bBoIzsEjHF6+zPgjdfZYqqdQrpgVs4fjKII5aDmT+sGy4mRqhaSQamGFo40KG9LWaG8ZxceYTAXfE09rMj/ehRkmpqMOs+lJEzH+GJ+aMQxanzNaXehOAdfPH5djGbEQtC5RG+c3d8Rs5kwRPzdfXGEijKCw1rxOvNF0VeOLte2U2+e396PjmS/oSy5tHtWDy7jMHjFf3YaqrLL7N/zQrOJFjSWFmLiYUlFV1m8PzTffC2MsaMdBICT7L1zWDcP1C0Xe1046LVgP2+PEUD9nq76syLXNr7AeLXwahXXmH2eG/a5wZz9ovP+bfoSKnaEQVrLNv1ZZE4d9rVOiT3A0qMpH379qq0ovL05u2331Ydi/L5ueee01ndHnduRlJbS1NBIdlNTpjammF50/0SZVSVhrLlzU8JL/ek+/RnePnll3n5uad4uW85RZv2cfpQOKlGNpi5DWbmsud57uXZjO7YHtd6N/otfJnnlr/M7CHeeNvmkhFzgm//9g2XnScwYcHz2rIWTGCR82VC/vYtITEZtJQe1lJC8vljnA66SG7fR5m1eA7znnmMeRM98GyKYs0XgaSKi7G25CJRl5IJiS7GIT+Ek5FhnLsoHEZgICFhmehZtsNYX18MYjVlebFEXrzAvgQz+j7xDE++vITp3aspD/+aN7fEUVqlXGiphB/aw75NFynvu5Cnnluube/07gwpD+fwm1u4WFolRkgpL4fsy1co0umkFqZmckXVOtVqtl6JSyGvSNFsFSOaEcPFLf/kcKUfXQPGMv2R6YwN8MavcjP/3BJGjBqbUrRdC8iKTSVfnFSnTm0Uri3vBnaVyaSGH+azT78jNDSeTMUu+xIJp8/yyUFD+kx6mqeeF/14+TEeGt0JK3FuSas6JPcL9//OVjFVb6qopLTJGiMzI0xuuoNTDz0DY4ycfXBTtUn1MTaupLK8lMrMeGKOnScmLoNCQytMnfowdv4CHlsiLoy+Penh2pOh85awaPESJvTxwEOcq29qjZlLJzrY2OFg1YCeniirpIDSy1GE7jlHUk7xdbMZKlO5dCGB6BRTfOc9zqRpIxg5dQIzZw8mwFuPtN2Hic6roSwnlqTkGKJya7C164ijiTmWxqaYCkdUlBTOvi/PkCwcjjbWqoexrSPug8YyaeEiFixZwvzJ/nQ2KuPcxmBSqpR33uhjaOmIjVMHOlhbYmNVI5Yror0FWeRERRCyP5T0mjpuLeSi6NZeImRzJI1eIxkwdhRjp45l1Ni+jPQqIXLzOS6lFwmr26VSOJnTRF4QfXDoh7e+sVabpCyX/LRsgrPcGDhxPvMXLmHJkjnMHNsHH3G41UsDJPcN93+wVYkF1NVQaWGCvqEBqi7RDbHAWNEmXTgZL00e6Wd2s33v13y9aStfn75MXHENVTrLH8cO+w69GTZ/JM5poYQFbmPrTlHWjoNsvXCFzDpxV9RZtqIsnZwsMamv6Yx/b3sxsNphMHfzwN3dDe/UKJLz6sWUv4SS/BzyDG2xHv0yyx5ewBOPvsAzi6czqlM9IavWcCq7UswalLNtcW3fg2nzhuJuZiKWPzY4evvT1cMX1xAxKyivo6TJhQ7+g+k31Buzi99x5Ltv2bRFtPfAaQ7HF6rKa7d8E2/Ipjg3nYshNphXpXM57oJ617kQd5n0KnNsQi6SnquISCnGjWL2UUxGdKiwV4LGSgrl/IUksuoaxJzleiqvhHPu9Dku5ukT8NLjDBNTTVULzcwOG0cXfF3qKBB1hqvlhRNxKZMCcVhVbpTcd9z/wdbqKurysrnUxR1T6x/6ophYz5fEsPP3S/kquh22Mz7m42/OcObkMc5s+yML+t+KNmkp2RGH+Pb3v2N9+SSGv/Qt63eKso5t5cDqpwmws7hG2asldpiZOuPugqpIqGJtg4W9o6qErt5RlS/pOQ+mfd8ZzOkvrp1mIWlrTxw62jHQ+xAXI2oo/EHpskox60gjO6eRmuoConev5etPNnHQ/iWee/c7dh4S7T34Gatem4HyLq1bvpOrurUpxJacYc2LM3l00ihGjRJp0mPMfOlzQioTSC8WSyV1WlYuZmtn+Lyl3ahZTJv7d74tLLt+CdjUSMyWf7M1roJLfk/zvBiDq+//aR9A/ylz+e/cAg79bjYLJo4UZS3gqT99wRFx+FaF6SQ/D1988YUabF29erW6Oe1OBVvvmCOprqokPz+bLsP64+2ovODqZmi1STPiJhIwcQyjRigvaLpdyqgqM6QgYyaPPD+cfp1/qN5rKaK6JoeMbK0cq0ppiVhm5Kkv0lJv4A7OONvY4qX8+7axEI7Ki/ZuhmIqmU9JrhsmRlNZtFwRCVKCoG1EtM/CoRN+diN4fu0Rdp1sqbd6VtVc/Z/ZvempDowVlsJuWSu7Ixw/+DaPO1irAeGr1JVD8Id8us9BjMMElj58vdKqmBnj2NGSBL9lvLRmF0dDd/DNB0uZLI7JLwrenyhPapSdrY8//vj9KCNQSUlREbHhjfj388K5nbh4dEeup1mbNJa80nyqquox1GmTBt6yNmmDuGkKh1AZS3ZROQ1iKWNQKdbukWc4tnEnl6qqb7xMsumIu4c+9qaJhIQXUFevXVBUZqWTkZXNZe8+dHE2wtq9C17WxTiVBXEsTtxlmx9MVF6hJLuMmMwhdO0sFjHq9KuYkrJLhMXEiWVEvbgjl5CcdI7TYpmUNdSfHpZG2Oorj7uzKS9P5opYwuk3adAvSSU56CinDwepDuyWlwQGbtg5t6fXwFwuXGmi0bED3mL62sXFFLP0/aw5cImkwio06i/EQCw7rXD26U7XHj3VaW7Pnr507+aBo5Gh9mmUSpW4McSxc+MWGnz8GTh8JAPtr3V5uWSlXmD/5nC6jpvJsKEBDOjZhc4dnMQi705OdSV3kpbB1q+//vr+CrZeiT3PqX3b2X4mjcuBm9i2fhUffyyWLCKtWL2W9cdTyQw/SUhgEDtPX6HWzJPBc5212qTrP+HjT9ayes1+Tlwsukab9MewxV55nDXVjIKgDWxdq5S1ng2bThGSUCUu2ps82Tb3pJu/L7061ZP47afs3nKEw1t3s2XzGYKS9eg6ZxJ+TqZYiyVMN9+O9HCpInzXdnYeO8bh47vZv/8EoUkaXMYuZIiXBe3U26+emB3lER+6jXWfruKTj1ewYW8cl/Fh7MJBeFmYiLu0Ix17udGpWzEJ21awdpUYoxXfsnV/JHHpwrGojWumgqLMMI6vX8nqFTsJSonnQuQx9n2+js8+P0RYZTrBx0OJjCyisYMvQ+YPwj3jOEe/XSvq/phP1n7F54cuklmmob5J7xbGVKFWOLQysox6MXLSEMb087jupVY1V+KJi7jI9hQXxo/pRidnK34OhQRJ27hbwdY7otkavftL9mwUa+N6NzRXLpESF6V6PSVFx4o7Yokx5iWJJKZVklzfgSlThzGgny1lyWJqffocJ85nkHTFHK9BA3E0bk8P/y506efZ4nUMZeQnF1NznQasBdZ27ejUw4zMc4c5dSaCs+LCKmp0xHvgYJwaHeg3pTfenu2uidmYYmtvLv7wK7m0/zBJGVVkxUUTkVxFrWs/Fr0wl762hpjqK3ZOmBsZkHr2GDEVpRTmxHL5sphRWfkx8/k59GpnhLl+DgmBl7kUXUx9l0YSjpwiJjyecqO+9B21kOfndKWdaLC+WHg5udvSzk6MQ+B+Dp+K5mJ8Ddh50aFLL9qbOtJvTj/am9dQnpxCSnw8MUkxxEZnU2aiR21jCXkJl4hPyKXeppz4kFpMXd3oOX0QfTr1wDtTzIBOneHk2QvEZldR5DqKF5+YxQAvW6wNq9Xgce7lOtymjqSTgylWakBGp2V7vkinZWuNWVk+V1JrcH7ibywe25WeLophaztngzxKs/MId5rO0oe64WljhKFYtt64Dsn9gPK419vbW5USUPaGKV/cO3XqlOpc7gvN1nPr3tb8/cnZmj8d12hKanSZ13Jhhebtv/xVM+GPuzUp4uPtqJ/eDeprajQpx49rgg5GaBITb1dQNVSz+83XNK+O+b3mU9G5irvdufoKjSblU83vx7yqee3N3aJ2ieTHUa5lAwMDVbM1NTVV06FDh/tLs7XnrKU8/dYHLPcHy+8X2q3xfZilLz7Pqt+MxE18vHkM5efFQHhjN39/+g3tgqfnTw/VSiQPIvd1sNXczhmn9h1wEUsOg5stxs3scXZxpqOLtRrUu7U1+91D0WE1trTEwspUTPHuF/f2IxiYgMNIHv7DfObN7NPGp0qSXxPNwdYFCxawcePG+3Bn668aJzoOHErArKH0sALDuz2qeoZi6tcF/4kD6N/n+kCoRHIzmoOtVVVVmJub34c7W3/VeOA3eQazX5rFUHFVm8hRldyn3P87WyUSyX3Pfb+zVSKR3P/c5ztbJRLJg4AMtkokkjYjg60SiaTNKDMQHx8fDh06xMSJE0lOTpbBVolEcmsowda9e/eyatUqnn32WaZNmyaDrRKJ5NaQwVaJRNJmZLBVIpG0GRlslUgkbUYGWyUSSZtpDrauXLlSDbZOnTpVBlslEsmtoWyLnzNnjhps3bBhgxpsVbbLtxXpSCSSXxFnzpwhMjKShQsX8tVXX9GrVy+GDh2qO3r7SEcikfyKkMFWiUTSZmSwVSKRtBkZbJVIJG1GBlslEkmbOX36NBEREeqrKBRHoryaYtiwYbqjt490JBLJrwhTU0Xk3JiKigosLS3VQGtNTY3u6O0jHYlE8ivCz89PDbYePnyYCRMmqMHW6Oho3dHbRzoSieRXhAy2SiSSNiODrRKJpM3IYKtEImkzMtgqkUjaTI8ePdRg65EjRxg/frwabI2JidEdvX30lDeJ6/59HW+99RYhISFs27ZNlyORSB5U5s6dqz6tUXRaP/jgA0aPHq3+VD4bGhrqrG6PH3Uk7733Hh06dNDlSCSSB5W0tDQ1NjJo0CDWrFnD3//+d/Wn8vn555/XWd0eP7i0mTVrFh999BG/+93vrktPP/00mZmZjBs3Tn2XqOLRZJ7Mk3n3b95TTz2Fk5PTXQm2/uCM5GakpKSwc+dOMjIy1IbV1taqARvl3zJP5sm8BytPWeIos5K2cFvB1uzs7FbBGoVrAzgyT+bJvAcj704EW1FmJLdKY2OjRsxKNF5eXpodO3Zo3nzzTY1YBsk8mSfzHsC8+vp63ZV9+9zWjCQoKOjqGks0RM1TXroj82SezHvw8u7EC7IMhId6U/fvn4yBgQHu7u6MHDkSBwcH+vXrR/fu3WWezJN5D2Be165dcXFx0V3dt8dtBVslEomkJXJnq0QiaTPSkUgkkjYjHYlEImkz0pFIJJI2Ix2JRCJpM9KRSCSSNiMdiUQiaSPw/1ap4UvIT5MpAAAAAElFTkSuQmCC;" vertex="1" parent="1">
          <mxGeometry x="1021" y="453" width="210.21" height="145" as="geometry" />
        </mxCell>
        <mxCell id="tFcRdSrbqhkbJn0zH4gM-33" value="" style="shape=image;verticalLabelPosition=bottom;labelBackgroundColor=default;verticalAlign=top;aspect=fixed;imageAspect=0;image=data:image/png,iVBORw0KGgoAAAANSUhEUgAAARMAAADiCAYAAABtECOwAAAAAXNSR0IArs4c6QAAAARnQU1BAACxjwv8YQUAAAAJcEhZcwAAEnQAABJ0Ad5mH3gAAFiESURBVHhe7Z0HYBVF/sc/6T0hvRcIEEIvgQDSexVQmigWVFDuxF7uPD39q3dnP0ARkCao9A5SpCb0hEAIEEggpJPeXpKXvv/ZlxcMRU24oInOR8aXN/t7O7Pz3v525rez3zFQBEgkEsn/iKH+VSKRSP4npDORSCQNgnQmEomkQZDORCKRNAjSmUgkkgZBOhOJRNIgSGcikUgaBOlMJBJJgyCdiUQiaRCkM5FIJA2CdCYSiaRBkM5EIpE0CPV80K8UbUEuGXFp5It3VdWZd8AEcxt7nL09sDcRHstAny2RSP6w1NOZXOHcju/5dPz/sVm8K67OvANetB04hee//pCpXmBlrM+WSCR/WOrpTGI5t307Cx7fgsWH/6B/62Z4mOs33eASR5aEcvGqPcFLP2KadCYSyZ+Cu4iZGGFk3AzPtl3p2K0HPXrcmtrRytMRO7313VCm0ZB+IZroC+loNGX63J+hqhSyj7J57td8t/4Y59Tx1x+AerWBRNIIuIueyQ8semo/zTcv44FOTrSw0m+6wWm2v7ueQyFVtFn6b9EzySDxYCw5xWWUm1eSn5xMrrCy8QqgdWBr/H1csKz+oBg3JRJzLpqoM0nk5VVSgTFGzZrh3aUDgR1b43PDsBYVRZD8Pa89uYfcdiMZ+7cnud9dv+0GWsqK04jcehmTrl3w8HPFxQyUihIKr4Zy5EIJhh4B+jIqhX0G0T+GE5OYQVb1DvQ0w6udWhdv3Lh9f79MFoln4klLq8KuTw/8rcE4O5oz51O4prWlXU2e9tfaoKZ+sRTbuOF8U7vUKuO+rvhzlYijF4hLzUW00k04+XeldfsuBDqpX38hidFRJKYUU6Q1xtKwhALbANq2c8PDwQKzn2k/uKUubd1x0V4hdP950rVlCDd/E15dhxLo7yPqq6Es7wqREeeJyyijUDU0s8bUpQXtu3aiZTNTbGRvtslh9I5A/3cdyCE9JpbT265hP3UcgW6W2JvqN93gOjGHLxKfoOA0bgAdbCPY/PJCtmw9yvGrl4jcu4MfTx0lOjGNIotm2Hp44Wmp/nLKyY/ezMYV3/H9pjMUGNtjmHWBXTv3E5lvhHHzNrR3Ndd1pSqKs8hOTSYpPonktFTS0qPZvyeGYitbHP2aYZybLk6oAorVXpSJCWbGeWgyj7F40gIS/Npj38oHL7MyynKvEbHib7z1yX7OlDjj3b0rATblooQI1r34b5Z9s4XtUec5d/oEp04d4Ic1YVw3csWtux8eJbfsz0I99l8impDFG9i5+gJFgwfR1jCNlNA1LF99gO3R5fj26SkccznFl3+tDQxFG6j1W8GpJOF8dHXWF3FTGf1oW36MLYu/Z+OWbfzw4x62f7+dENHbiYgIJ9vYDXv/INo5lFKUdoxdO3aw79BFLp5LJD06gtBY4UAc7bF3sMHJrOD29tMdb01b6esinKxnzkEW/2c5Pxzey45tO9m1bT9HL0ZzLvwUWvdeeHm74VIWzbWDK1i1bh3b950g5GgYpyLPcyYhh0JTPzxdrbG3NhFuVNKU+I1uDcdzKaeMnJYT+Sj8JEfCt/Fe32RiQ9fywbposV29wqUS8t1qzpf40Pmd5Xy9/G3eXv41y9/pjE/JeVZ/FyIsqi2zotex8q1HeDAoiKA+gwh6bSMrL4dx7OB7zHtG5AX1Emk6f128j5Cknxn3aFPQxKznk68iuBxXoM+sjR+9p7zFZ7vDCQ8/LtJCXuvXnkD91v+JskIIn8eL/wkhyq4vf3nveSZ4VGJhVPc2+FWMxNnuMYHnF65jZ/hmVn/+CpMc+vH80n1sCw3n2/dmMVkcTFlhDmHzZnCwoDUdHn+bL5Z/wD/mvs+7HX9gw449rA0RXqKuWHjSrONMPt97iAPhq/h85uM80n06/9gWTujJcObP7EtfnyRiw3Yw77l1aEbM4/MNoaJtRRtv+JwtIzREPzePkLBY6lGqpJHwGzkTX4L7D2LKtP54GpliauRF20FT6Grihs3x84RXil5C6inORFujmLWic3tXDA3FFVgk1/adaWWmYB19Rlz9xNUyaSvfzw8nwWYCs7cd49iPOzn2lyAe9g6kTZe/MfGfIi90N8c2jqNFxF5C1h4i5OaxiqCAlJiT7Ph6Dc4vvcqgtu3u4CQMxD9RByPRu9El8bdBA9zjzoklb9/nvPzGOXzGzOCpp8fR38UQA9EG1KUNhDcpq5M3UTHQfV6tu5GhgXgn3otj0SX1vUEupdpIjv8gegP2LfD3baazN7awwLNHHwIup1ESLS4E+r3VCdFGNW1WXYY4ttrv8aJln4d5ccOnDL26gjXvjWf8+N70Hj2dUe/sJiS3mAIx8qrH2FvSSPiNnIkFdvYOuLnZi/G3+oMyw8reDVuDUiozEojLUqjQ5lNY5IKVjSveHib6z4GJhzeuNla4FBWSW1hCZuR+whQXzNvfx+gBasA3iB5d/HG3dcTVrTltuoq84F70GDSBvv4ZlOVHER57c+8kI+pHQg7sZq3hSMaNbEsHd+uf4jZ1Rj2jEzj6/ad8/MpsZs+ezXMvvMR/VuwkIiXrthhFNXlcT4xmy8rjnBPDp5RiceKZiKGierhq6Krs19sgX/ic6ihXGhcPfctXb1SXXZ3+w1c7wrio+1QdED2kisxYLmemc3T9l3zxjzm6/fzluZd48WPhpM+cJjEzgxRd891+vLNnq/ZzWXvuGomqSZ2opDg7iStH93Iy0wunTuMYPflxHn9sMlMf6Im3hbjY6C0lTYvfyJn8POp58VMIWL2S3X71V/PUXKWyEk1yPJlO7lh7ueOnegBx5cPWTpxxJpibgbUaEDYUJ6JNIC1bVGFukk1aZq0ZMZnRRBw4xf6zFdiPfIReLaxw/NV4x8+hUFlRQXm56FmVFVFckMz5Xav48eQlYjJuDT+qKKLXYY+JX0+GjmtB1dXzXDodQ+JNE3Z+uQ1+QuyrsoIKXdk1qZyKyqq6X9X1ja/+99NxiFShUGbekm4jutOtizeO1daCW+xqytTto64UkJNwlRPrYilpO4jg0U8wffqzPPvUwzwxoTt+wpn8aixb0ij5jZxJCSWlhRQUF1Om++mWkZ+XSZ5ijrGTDy2cDUTX2gYriwwKNekkX1cDe9WUX08mXVNIhoUVNuYGmNvYYaEtokxTRL4w0+2ttJTiqmK0lWIYVK5mVomrbjZ5+aWUlhsLP6O79ItUTPbpTRw9XUSKxVhenBiIjS74WwtdD0GcJFVGYCw++7NRQLEdP/o9+jp/n7uEJUsWMO+jF+ivPUjYiYtExN2pb2KPR2BfHv73G7z2yRx6E0v8iVB+vJJPmXAWimkd2kBctqt9jTvtBj/Oc5+qZdekt3huXDDtdJ+qA2ZWGLu0pLWjO8ET/8Kz//qSr8R+vl68kAUfvsnf/jGbycO60k53n//W41XTQpFe4eFOLcRAtq4UUlJUSV5aO4KGtqaFmzVWlaWUFeSSlZxGobhg1HkUJ2lU/EbOJJ64xHBOXIgmVfxUKsX/Qw6uZl9ZKgW92hOkxlE8gukcWCD8TixnL/wU5Mi6cJbYEnE9C+xMbz8z/Hr3JfDyGTJORuhiIZXi6pyamkS09iKX82NJz1QztZC6hb0HUohPtcXDxUnsST05xRBjyx5ymzkx+unJBImc27rU4sdMajLXtc2osnXAxVmf35Dog6PTpnpiVhNYFW1QWYc2CPYQdVbP6wbBAVNz0a4jr3Lk0kn2RCbpboVXavNE873IM6/N4+Ot52+5Pd4QpAknv53jYXFk54jvKj+JlKM7WP/JIiLEReJO4XBJ4+c3cia+KLnJhG18m/HBvekdPJ75IZ0I6vMUb0wKFN139ezwoN+0KbQ3SyTy/55k1lPv8/5Ts3jy/yJJNGvPlGn98DCyxEg9Cad0xSdxA/NHBdN/4AjemBdGaaITxmcusv7t2QT3HkLw+I3EejzF/ZOmMLFNdS3U3onP/W/woMib1PbWYUMSsaFf88/e/ek//l+Eelrh1cuPGx+9jQqRotn675k8OTSY4OD+DBn3AputJzJ0ZA8GtLetNvtZDHDpP43h7U3xiFnGU/PPkFvo9OttID7ZYL5EYGrjSNCcr3nFP4e8r2czKjiY3kPGMX6jJR0HD2di/3aorrjh8KZl0Ej+OvdBrHa/wMuT+xM8dDbPzj1Hqs9wWhmZ82stJ2mc1HPSWj7Z8YlcPJSMzYiBtHASX/xtw4BMEsKvkpKqYD+wKy2tjrJ4/EoumDvRbHwQ3vnqlDXR4ffpTpv2rWjta1dr0lo80REXiDydSL5GjM/FaWMghjU+3TrRrmtgdYxEZ3aemAuXuJSYSYFBBQ4GcWxdcIlin3YEjBFlVKnXNgd8ArvQPtALX9cqyoqSiNh4lCyfYPwD/Ql0VUfmaoc6jfO7LlNsIxyVgzF5h8O4JnKtA7vTKbCVsFP7+LXt3HHp6oeHUr2/K0UlaMRWFSMTUxyad6JL59Z4OdreMvav3S69RLuAiWGxbk5H9NUMEp2CebCrG1YVopf1i21wa11+apc7l6Hm/9L3pj6uWUTm+bOcuxRPTGaheiCi+ZrTvUtnWnk5Ymcmho9FqeJ4ozEJ6oaXvzu65rutXepSF0FFAWU5MUSERXIlvQxNqTU2NvZ4uttQIBq/xZD2+Pj9b7OoJb899XQm9UUNQh7ly/tXkurXl+A7zk69nVKNhtz4JHKEQ/D2sxc/tF8IydVpBmzTo15tIJE0An6jYU79MLOxwa1DW9p2cPvTnkSyDSRNjUbpTCQSSdPjHg9z1PF4IekxWZSb2WDl4Vw9Qash0d8GTrqWT4WFHc3uRRkSieRXucfORCKR/FmolzOJiIjQJYlE8sega9euutQQ1MuZvPvuu3z++ee0aNFCnyORSJoqcXFxvPjii/zzn//U5/xv1NuZqI+Lb926VZ8jkUiaKuPGjSMoKKjBnEm97+aoD5zVPBovk0wyNd10pwdK/xfkrWGJRNIgSGcikUgaBOlMJJI/MdevX9cFYsvLyzl//jz5+Xe/vIN0JhLJn5jFixfr7uhkZmYycuRIQkND9Vvqj3QmEsmfmKeeekp3V+exxx5j+fLlbN68ma+//lq/tX5IZyKR/Ik5c+YMly9f1jkUdcpHQEAAXbp00W+tH/fImRSQk3ieo9/u5Vx6CZqKLBIjDrJLeDzV6/2UVrNy9T52nbhEXHY5WlVvSCKR/GZUVVWhTjVTbxWrf9dM/bgb7pEzSSc5cj/fv/wFe68WklmaQOT2lSx++R+8P/crvlzwFV99paZlLFq6lpWbtrL5wEVi0oooUvV2JBLJb0L37t1p27YtGzZsYOLEiVy8eJGwsDD91vrxGw5zXGkR9Chv6hdk0i28FL6ajYuGMdpqG/+ZOZsvd50l6g+yVrBE0hRQA7CbNm1i5cqVTJ8+nQkTJjBz5kz91vrx28ZMRBfKoNYMPEPDZjh6DWbYI5+w4jk7ko8fZs+heyFgfDMFSUnEHjsjnFkqZb+2opU2hbxzK3h5+Gzmb47kvFQ7lvyBUAOw48eP54knnmDFihW6uIm68sDdUO9nc06fPs22bdv0OT/HrQucJ3Dhk5rFzD9imhdY1dKOVUrzKQz7mDn/KsFx0AiefCUYv/xodv17Hafzi8jR2/2EK20HDqXf8I60JkbYHUXraYWmMIO0xESyTM3x7DyE4cOCCfB0Qre2elUp5IaxadUBLsQWU2FojYlSSlqlNT2nTeS+rv401xneQlEcWZFrmTFhH23ee5cHJvahp4N+2w0ySDl3ntBvL+E461G6eFvjZAplWVdJOrmRRfug4wMP6svQoL3jsaky0Z7cN22ysHPDKe8y0Xv3sO5sCkU3HJ4l5jb+DBFlBOvLkEjulvvvv183z2TQoEF4e3vrArHqq/pefWanvvy2PZOfwcDEBJs2HWheWYJpdi6ZxVpKi65yctUOws+ncL2okkp1PZXKMpGSOPfDAU4duUSCzi5W2K3g+7WHOXLxOoViH2XaVJJPrGJL6GkiEtWuRAXlJelc2rOKvccvEFdsgr2nK25ORmgu7WH7jyc4djkDdS0sRZShST3F0a2rWa0GiVdvYdWxaySWpZEYtZ39m9TA8UqWr9rNoSuZ5OiixvlkJ0QR+s1uItNLKFBX1SgVji06hM2Ll/D1ok0cjr5Oum5drjsdWyHFBbEcW7mD06pdZiIJp0P4ZuVxLqdqKSxRbXLIiIvUlXG2pgyJ5H+kCQRg64mhuCo7OeNoVohBUQF5uriJeqX2pe/013jjv4t1Y7vFixeI9BLTOrXARzXRoaq5ZZJm5EHL8U/zhrD54tM3eLzlZY7tPsq+44kUVxVRknOJHUv3oGk9miFzXuGFN57midfm8O9nPCmOOsWJYxdJLVUXg0rk7O6VrFm8iIVfLGThinWsOBBNfMl1Yk5v4YfVIm+BSPOXsXjjMc4l5VF0212ocopSwrkYvp9t5wywECf+zZ2IW4/tU+Z+/CQjmllXr56XfoVrEdGsuRjIlBc/5dMvVJv3+edfxxIsNktFWElDoQZgAwMD2bhxIw8++GBTCcDeK9TxUiDjp41h+IAOOGGBqUUrgiY+S5ekIsouxROtzaY0MYLQCy3w9FYX6K5eRMHI1AyPHv1oU5BCSexVLialoonewCdvRmNx/3v8Z38YYRsW8uO0VvS1bE/AsCW8/pXIC1nF9s+6UPj5fHYdvkzUbXGULKIO7SE88gqB//d/jLG1w02/RSJpTKgXaXWi2jfffMOjjz7ahAKwP0eluLSnii6/1o4qOwec673qk7o+ry6+q6d6vV4Drotejhge6CK6RqI71xwXJyvsalZ5MhI9BA8v3M0tcFDEACQnk8Rz4Zwf+ABdOvjSoZkhhlbWGHr6YGBkjKuzAQ66PC+sW47modHXyM6OI043lPqJS+v/xbrz+Vxo+zTPdTeoXtJTv61OePclaPQk5k3MZM/zo5nUX12g/UGmvfw1u8TmkmorieR/piEDsI3CmVSVl5EdeYpYTxeMW3jRssEEoW0wNzPHSrcwlDocEkOS4nLEaKYaVYy6UENhRQVa8VatR4n63t4Za2tzrNVOjzp+NBMDC+GcTEW9jHV5ZhiZO+HqVEJFhRZtiX6cI/4mehPrtuWRYdyZAaN64iUcl3F9W9m8Gc4eLvToZERkuTctB97P1BmTmDC0Ky3F5lqxa4nkf6IJzICtK6VoNde4cmYXKzdeptTfD792vtRveV99zCQzhbT8AorVYGtFNpcuhpNka4+Vlzu+thYY2bni63KNtLQMrmdUexOlvBzNpSiuGZlT7miPu6Potbi643ItmrSMfFSziopy8jW5ZCgZ5BTnUaJ6ogoN5XmXOB9TTmWVJRbm5mJvZZRpEzi9bSXR5W3w7ziIEe3vcCRif4qmkLwqW0wsTYWz0+ffRAEFufFcvpCKVZ8pjH30GWY9M5VJI7rRSmyVzkTSUDTRAGw5JZp0Es9HcPZMtTB1REQ4J4/9yO7dq1kZ6UanwHb0CHDR29eVamcSG3OSY+FHOBJxkrDww2z+MZysdt54dPDD16wZ5h6dGNRPIT8+kqgTkVy5fI24i5cI3XOadLeWuLZvRXtfFzza96Hf9XAunzzJ/uMRnD4TxemL8aSWXyfhWhQXz4QTcTKU8JA9HIz1wcneCy9HtetTRGnZNfaFZdJ22H0M7t8RX139aigm/3o8V06K4z95kUTH5ji42SD8121UFF3lctQxVm1JZ8Cw3gTW3N6WSBqYJhqATedq2Eo+uD+IvsFBuvvYQUEP8eCsvewsvJ+/LV7A7JGd6VDvBWarA7Ckn2DNR88wIqgvg0a8yKasF5k5eRJT+nmL7RZY2LRiwiuz8YxezZbX/8JfZ7zJOzNfYvKHeXj27M+IgR1wsvDEptVEXpkdiHb1P3h9UBCjHpzF3O+T8SpuTdHe7fznmYcI6judMXPOYz3pKx4f3R1dEQJjKwcCZy3jyVp5PyEc1+K3eK7vOEbOWUHmpI4EtnDkNjNBQVQEUWeucLjTLMb0tsbrtnktEknDsGjRIl0AVp0BqwZgH3jggbsOwN6jSWti+JKXR2aCBlMxdLG3LEOblk5majY3z5Y3xdjUCkt7W5wdHbExN9THFyqoLNdw/WImRh4e2Npb6ye5qb2QIjKuZFFuaoOVu3ifeYh/d18Kc56gY/+2BBiXYWBoLPbpjZubHTYWxtXDAv1iXckJGaTEJpOVXkiRsT0+rVxxaymGVvoylKpKYXad9Iwc8rRlVJWnU5IQyv/99SR+z8/ivoGiDPMqDI2ssHf1wM1ROCqzcnG82aRfy6TU1R9P0VOxNlMPpPZx2FGlLaY4I5sCI1E/V2+8He2EnVq7m4/X0rSEMk0+qSW2+Ps5YikaxfC2NjVGV4REcpeok9bc3d3p2bMn3333HX/72990r+r7u3Eo98iZ/FZkkJda7Uxs/vkWQ+44O/V2SvPzKcwvpsTIWjgca4yMfuFeS51mwEokTY8/5AzY3xozOzscfdzx9LT5ZUcikfzB+ePNgL1rjDEyscejQ0vcnMQwRZ1Y2tAYmmFs5YZ/x1Z43qsyJJLfiYYMwDbxYU416iGoHvVeomsm3UQ4ieSPgTrM2b59O2PHjtXpCwUHB+tex4wZc1fn0x9imHOvHYmKWoZ0JJI/GmqgVZ1Cr2rAqlPqpQasRCK5K9SRxqVLl3RT6rds2UKbNm3o1q2bfmv9kM5EIvmTUxMm+F/DBdKZSCR/YtRbwGoAVpVuVCesqQFYVVL1bpDORCL5E/O7zoD973//S8uW6rOrEomkKXPlyhUmT578+82AVbtDs2fP1udIJJKmyoIFCzAxMWHw4ME3zYBV399NEPYPMc9EIpHUH3WeSWpqqm76vK+vL9HR0bpX9f3dOBMZM5FI/sSoTqN2AFZ1KGqH4W6QzkQi+RNTowG7atWqJrYIl0QiaVTUzIBV7+Sod3RUx6I6mLtBOhOJ5E+MnAErkUgaDPUejJwBK5FI/idkAFYikTQITSAAm0RsyGo+HPYiqyLzSFEXpbmNaEIXz+fzZ+eyORW0NWtzSySS34yaAKzqSFSH0ggDsCVo8zNIjLxKelEFpaoO9G0Uk3c9heSYFLLKoKrOU+ckEklDUROAVR2K6khkAPbPTIWGkvSz7Fm1k5PRabqFwySS+tBQAVijdwT6v3+Vw4cP69SsH3roIX3Oz5FDekwsp7ddw37qOALdLLE31W+6wXViDl8kPkHBadxQOtiCaWUe+VlJJCXEE590XVfW9dwiihRjjMzMMdfrr5YXZ5KVkUhCUiJJd7RTuzmFZF65RuK1BBLV7TdSLvmlwoeaWWJVswxp+a+VW7O/6+SJnlaVpeWNulQvrpVB1vUCymxsMDcsJOvq7Xblecmkin2nZJdgYGMr7FT1tnKK8rPIUMvL0FCYnU6mpooKQ2PMzEXZ1R/9ZbQp5EVv4R9PfkemfyfcWvngZaHfdoNS0VPM4XpMGiVWtpgYG2IsfjNVpYUUZV7j0tVsSozNMTE1xdRQXXYjj+sXYkhIFj3HG+2WJlIe5aYWwk6hUnP7/m5GbZdkkmKSSc6qwNTBChMjdckO0VMtzCHz6iWuJuVRaqLuT5Qr6lipzeR6wlXxvYpyU0SZmdlkFFagmFthKj57exmS/4XVq1fTunVr3XKga9euZdasWRw4cAAjI6O7650Ib1RnhN9Rxo4dq3/3S8Qokdv+q8x2Gat8fDRTuVqoz76JcGXbO68rLw16VVl8TVEKy0VW6lZl20fDleFtUM/e6tRGvP9om7I1tfpTKqnhXygfvd5NET2yn7ErEWm/8sXYYEU0yU82utRG6fbwEuWLcNVOz6+WW7O/x5S/P7fkprrcfBwl4jjubJe69VXlueG9lHa1j1dJVY5v+0h5deowpV+vJ5QnevVThk39r/LRthixpY4UXlUyj/5LGesySHl1UahyPFuffxN3/j4Kr4YqR9/ppbjY9VKeuvHZdCU3ZZXymoeD4ntTuwkPQje9XV2/34eV4fgqDh6vKatScsWeVbKVq6GLlHe6mSp2pjX7E9niOHJPvaO8NtJO8bXXl2nvq9iNfE1551Tuz5Qh+V9Qz2W1ndXXlJQUxcPDQ9m2bZt+a/25h8McDUU5ISyaMYRxfWtW8KudpvPSot0c19mWiRTGug+WERrjS7/3dusEWnTpvX4MiQnlwAfrCKvUUpa6me/mhpNYMpHnFuptRNot7HyF3TLVTr9H8KPX1Lf4dHctu1WT6cQFdi5W7crEf3Uo98b+7gJRZ9Q6rz7KoePp+sxqotd9wKHzIm/4Oyxe/jZvL1/MO8MzSD+/lQ/WReutbqayrJDUsHn85/ExjFbbcdR0hnx8gBDNWUK+e4rXH1LbdiB9Bj/PW7suEptzx+i3umwgl0/t4OPF0WgKy/WZNahdtkDGv7mE5QfU9viRQ7ve41FnO9yrDeqIK+7uzgwYcIXNu5NITNGKYg8SffoAYc1HMsjIXL+/JGLDdjLvufVoRs7ls42h1d/Bxs/YMlJD9HPzCA2LFVaShqYJBGBVTDGx8CVo3KM8NGOmrtI3pwcYHtRSvzym2qH3pN3YCQS3d8cmdh+7dy9m6dLFLP7+B7YfOselxEw0ovuv2ATSd8o0Jk2ewOju3XTdMTV1bG6HmTafNNVO7E11uWCOrbMvLTvWsgt0wcregEKlAjNRrkFdyr2xv/pSSmlRAqErl5Lm3hKvwC600+VXiHSZ84eyKMh2oWXXTgQE+OEXEECnrr64ZOeQdei8sKi2vEFpFkXx+1n5+VEyHIPp9Yhox0mjeDTACl9jZ2x9xtFrpMgTjmZyH+GsFq3iUHgCcUX6z98gn7iwg5w5cw7DEVMJNrfk5nXF1PGEFU4+AbTppLZbRzp19MPNxFh8q/XBBBvPFrQbNRTvY+u5HBbCrqNpXMmwp8e0frhZmen3Z4tj8270fXwqXYtjuXZyLevXi+9g+fcs33yME2evkarRUqKzlTQkagBWnVuizjFR55qoc07uaogjuIfORPxQhDPpJpzJ1CdqO5GaNIHh3cQJprNVq2GDlZ1wFuUl5GYUU6gGgkQysLLGwFwfBDAQV0ybNgSPHkq/3n7YF0RzetMili9ZxKpN50nHhVbd2gn3UO2eII/k84fZs2qRTlFKTdV2drTu1lzYGQq7OpR7g9v3t2jRJvaEXyFZb1EbbXYisUe+Z+VZY9x7BdOn5nirRE9AE83VaxquRJwncveqn+q3O5LzEVfQXLtKtPBi5bW8WIUmjczz+9hyzRnvfhN4+GnRjtMe4NHezfE1c8O341iGPKi27WM8NrUfATl7ORcdy+VborJZF3Zz8NQFIquaM/qRgbS3NBetUF9KKdMmEL71G1Yvq677iu/Xs+tkNJll5TecoImtG64dhjCieTbxIVs4fKEQrc9Ahgd7YW6qW7hVYI6xmSXW9pXkp2jI11ZQqn4HJqYY2NqJn4fq3CT3itrBV/X1brmHzqQ+qJNMUgn/fh2HI4qo6PVXnvv7QuZ/uZCFH81m+sC2uFUb1qIUTVo0EZu/ZsWSr1m3I5YCcXVu17kljmJMYqhrkzySLoSw57uvdfL9alLtijUVtHExoERTKRqvPuXevr+vv97MntNXbu+Cl4pe0vmT7Fi5lrA2T9Glcys6uOi3qeseawoorMgk5tb9rTvJxYIirPwsUNQuUa3b6qUFeaTHxXCtaz9aNnehuZXINDMDJ7FjQyPsxXlnreaZOmHu3ovBvdLQaK6Tmq7vmiiinQuSObFxHQdTTCntPpkHAsCyJhBdL8ooF87k9NZVrFmu1v0rXVqxah1HE/LIvTEfQFxUrDzpO30I1tpsLJrZ06LfAESxusFUNflkXA5j12ffE2Y3lN6PfMC7/xbfwbz3+eS1sXS0scBSbylpWNReiHo7WB3eqMMd9TZxE58BqzqTFNLjO9MiYBjjJgfiIXJ++W6GLZ6dH+DpVeEcPiHG17vnMNE2ivB582pNgvOj15S3+KxWzES1m2l7itgP/8W8sEo0ZfUp9w77C1/FZ7NG0EtvcYOEEM7vD+Xj0PG8MrMP7VvVGkgYiSuyhxfuFm0Zfdv+1LSTdV89zwRRGYs63dKpI2WFcHIei3c6gfMwZorjvXtEj86hH7OW7WNrqFrnA6x6byqdoxcwf4PoDdWeqWgkengeE3j+q3V8+t5Mbi82n+ICY7KTxzPl2T50FW1lq98iubf8gSUIjhOfeJKo6Cw10ig6K2EcXrKMfYdEvthaqc0jdfOLPPvaPN5aGYVqVkNWprjoFujf/CLOIjWr/vMGv1xu/Ynn+PHDnLiSxfj35tDXzuaWmIQaKehOh175XC8LZ/WBaNEvq3apWYfn8vH77/Ps3MM38mqwcHTGp2M32u/fyJmoRKLE8Wq1xSSkxHG+MorYzDjy8tXMFIriNvP9di3llU44NBNdFjUgXhjBosXbcB3cl2Ej+nFHV6LVUpmaxrVKb6ycrGj2m53V1ykr286x8Diy1aBxQRIpR3ey/uNFRGiKdHErScOjOo6GCsDWDFp/Z9RqtGHAI/dBRDTH57/I8XLRsS0yxqqigsJKe93pb2gsxvaBI+hz9SxRh5cw/8cSKvX932KjEspsvAl4sB99HcXpqruip3Hh4ErCc0+xs6afXCw2lPvhNbIrw9oYY2n86+XWnxKMvLvSesAUZo7wxN381oZWYwA2tL3/IYYfiuBgyHxeCalEHaGUlGgw9e5Ntx5+ujhGbW9vaOWBQ5sxPNl/CSe3f8lne02xtijBpDQdyxJ7co8f4JvkM2wuLaCqWPS6OjzP6J4d6Oourv2xFaJRDDDp9iTjRwXTv42dGDpk1LpLlci57Us5eXgfkcUZpPcfTXNfe9x/9hdSjFZzju0fvsxpR3NsTUqoKCsF3/E80N8LH+fr5Ootfx0XvNp0Y8Jzkfyw7yP++4P4DrRmmJQUYVThLb4Do3oGfiV1RR3S2NnZNUgA9h5NWqukvFQNZDajxYBu+NmbYnlbd72c0kIjLJ08ad6jHd6WNrh722NuWkVxdj5ZxcYYmHnSSjem60CHdi1p17MlHk4taW5VgWlJLtniKlykBupEMnXxIqBXXwb0DybIxQwjgwqKc0qoMjPBUJxEqo0umbrg27U/fUaI1MoCI0MbXLx+udy24sR2pIKSHGOc2gTgF+iDm3AQ1dQ+jkBxHBWUirPIuesQeo4YwdBW5qKMW+3aCjsxUHP1wsXcFKvibBKyijBUj8OrC7369md4cIDYVu12bmAojsvcCU8nQ0o1oqdRUoJiYoCduRFZZ6uwb+uPjYM5xoox5s3a0mfCFIb0ECe26BaVlyri8060njSLsT18aOGgfiFVKJUK2gIzvO/zx0KbT35SNvnNfOgyYSQD2/viYWl2i11X/LztsK6qoLysSvhEE0yM1LY1wcalOYEDxjO2b2vchWesuOV4f5p0duv+PPBwaIaHvyPlWRnkFSnCHQtH7hlAx/t608qjOd0GBeLjaqtzuJKGQZ20phG/oxYtWmBra0t2drbuVX3v4aEO+OuHFJRu6hTFkRW5lhkT9tHmvXd5YGIfet48ppJI7ogqKO3u7t5gS100spiJRCL5LakJwKqLlquLl6vxk6efflq/tX5IZyKR/ImpCcDW1oBVpyjcDdKZNHXMnLH2H8lfPnmJB/u2pIUMKkjqQROZASv5TTC2wdy1M8OnjyY40A0XNV4qkdSDP9gMWIlE8ntQMwNWVaZXFeob6QxYReflfi5JJJLfnyYQgFU1YBfzdlAQfW6SHQiiZ88+TJ/+Nqv3xZKUrzeXSCS/C6ogUu0ArBo3aWQSBKoGbD5psRX4DHmYB5+Ypav0rFlP8MQjQ2jHBXZsP8Su8DikP5FIfj/UZ8FqB2Dbtm2ru+jfDfdwmHNnCYKnZkzngaHuFEefJvL0ZeKL9eYSieR3oYkGYE0xNnMnoH9nWlUWUJWWQarOmagHUEpeRiLxV64QeymO+MsxXI7PJVdbUa2NUaGlPDueyLPCAWUWUlRRijYvi8TIZHLLK6kozyMrMZbY6Cska6qorNKQceUaKYlZ5NUSElO1WBNjL3EhJpnMUvSq+MXkZV0j9rz69OtpkaKJTc0lr7RGlaMO9RP/ryzPJTkyhoTYOK4Ib39eeP3TEWeIvpYq7EpvaHxIJI2FJhKA/TnEian7546dnSMuTmpepchI5fD6D/ng1Vd57sl/8N7M55j53o/si82pHgrlxJK5+z1GD5nJB5vPci4/kdjQ7Xw6ah6HMjXkZB5m6ydzeO6Jl5gfXo6mPIz1L73Lgk+2ElLr6eLMw3P55LkZTHl2HluuUy1VoFwkdOtbPDepBz163CfSozy3eB+hiTWPIdehfuSgyfyR+aP+yr+ee5NXpz/K5B49uK/fQB59+2thlyKHdJJGRxOeAaulTBtL2IYFnDEuosSlmU4QoEyTQ9i8GRwsaE2Hx9/mi2Uf8Oa8D3i3ww9s2LGHtSFJ4NAKh8EvsfTDDqRs3cm6taFUq6Sq3Y5w1v1rOecLfOj3xpvMEUM+m1sfM9VrsX6/+igHb2ixqp5EOIl581gXIvoWU1ax7eQBTm57gFZn9nJ47UEOC0dUp/rpUPse0Ry/bonbxNdYGB7K4d3zmOO0nlXrdtayk0gaB00gAKuiPqIeybYPX+Lvf62Jmczmry//hxVXAug9cRhjBrXGCY1wMJc4sakQE0t/WnVsS8uA5jRv04pu3b2xPHuF1Kh4EowtMHNuRe+Rj/JIDy3FMQf4ZkMo8YUx7PniUw6X+ePadxLj+3TA0waMbnrcVq/F+s0S0jxa4R3YVa/FqjqTFK6FF2NpHMCgYcPpH9SdoP4TeGTmFMYNao+fZR3rp9uf2pzOdOzXhz7D+hPUNZigoAEMHnofdhdSatlJJI2DsLAwXQD2wQcfZOPGjboAbPfu3fVb68c97pkYYGhoqFuHozqZY2rhgVfP6Ywf1Y9eAS5YVhRQnnuJqJhyEsIOc2jzchYuXMiipd/w3aF4Us5dJD35OgnFYm9Gpth49GD0+ED8ySJu72HOF13mx+8SMAzsR8dBvWjrVCNc8hPa7ARij3zHN5GmuPdWtVj99VqswploUkjLcsLR0Z/gdk7YGJhgoNOZHULf3gH4mta9fjXOpE2HVvj7iWPDGCNjRzzaBuFekEvRDTuJpHGgnp9q4LWqqkr3txqAVf++G+6hM7HEwqYjY179hPfmfsVXX1WnL+Z+zt+eGE1XT6dqbYryCqo0eeQpmUQd2cG2VUtZulSk5atYuuUSuaKXYeFohlIrUKs4uuFu1Qy/ilIKxfuyiva42dtiJ2xvXbSB0jzSzp9i+8r1nA58ki6d7qTFKvZvZoHl7X6onvX7JTSUlGopks5E0ojo2rXrbQHYiIgI/db6cY97JnXAwgIjDz+aG7Vj2t+/Zvn+MF3Xqzqd4tSpdcx9ZRz9awdq584jJCMfxj/DROuhPD8rnQM7drF26zkydTutQTifhFCdFuunR8bxytN30mL1xt0iD8P8HDJqfbh6pq74o171UxGf0/9VjS7aLP650+xGwFkiaRz8wSQIHDAz70yvUVc5En2K3ZFJYgCjxktVvdeXdHqvn2yJ0uXVBEKXF3XBpf9Unu/vgpGFPV7jP+f5oHgKzq/jXzctXpVwQ4t13P/dSYtVVRvzwNUvnei0cFYfjCa1UtVA3cy8Z1/j/U+2cDir7vWrCcCevXCKMwmqnRatNpbNGxZw1NsK0zZ+d9ZdlUh+J5pIALauGGNq7UGPp59ntEMKSas/4IWZM5k15xVe3pQKTt608nHFKOsK8QcW8dkxT/x7DGVEv/Z42plgoK7L69SC3vdPpK9rMWVHVvJFaBaFuqUWqrVYAwZMYdYIT9zMjW7RYq12Jt0fvp/gQA05m/7Oy7PmMOvlTZzECftWPvhZ1q1+1SOk6phJYcoJti1X7WYz5+WP2XSlD/1HDGJILx+9nUTSOGjIAOw904CtUDVgDZvRvP/PacD+hKEYbth4tsJdEb2CwgKyNGUYmVhg7t+HMcP60zPAHduKXDQZ8cRaDGLc0CC6NrfFUF2AXJTRclAb/Lyb42pQhbWBQpFLRzp5mlChMcRF1WIdPpwhN7RYKygrNMTC2Yvm3VVtUjMcvV2xMwWzwnw0WhOMzP3pOmYYA3oG0LqZaZ3q18y0iBJNAke+voxBt5bYOVljWVyBibkj/kHTuH9QRzp420phZEmjQdWALSoquqEBm5OTo3v18/OTGrC/LxnkpR7i392XYvPPtxgitVgljRxVA9bNzU2n+ao6ltdff133qr6/m7hJIxjmSCSS34slS5bo7uQsX76cxx9/nHHjxvHUU0/pt9YP6Uwkkj8xNRqw6p2cGg3YJhyA/aNgg2WzIB78+AVG95NarJKmQUMGYKUzaTAsMLVsQY9pI+nSRmqxSpoGTWQGrEQiaex06dKFgIAAtm7dqouXXL58mTNnzui31o975kxqPFy1XkhtFBSReds9JJGhCHvdzFN9lkQiubc0+gBsfmIU+xa/z4wBw5jxdSRnU7TVG7Qp5EUu58VhzzB381mi9AIfutmkW17kmSkzeO4fKwmJrp5PKpFI7i1qAFaVbFRnwK5atarxBWDNm7nSsmN7hg10InX1v1ix+ThH4oqgqpSKonTioq6QmlVIUSWUZl4hbtfn/POrc+R7dKRt7y74Oct5ohLJb4EagL1w4QKTJk1i/fr1tGvXrnEFYM1sXWjerS/3T5/K+Db5JIZuZusPRzlxi+BrafolokO28M2aUK46DaDf+HGMHNAR3zvICEgkkoZHDbqqqbKyUicTogtNNLoArKkT1s2HM/utZxhgG0/cvq2s+eEMsRmid1KlUJabTMyRnfyw9TC7M7sw9fU5jOvpT/OaW6qqPEBpJhkJ57kYqX9KN/w0YRfjiM8pplAnqFpOZXkOSZExpGYW6vNU1MYoICP2GsmJmeSV/2QXHxPHlYsXiRL7Cz8dwcW4VHKKa/RZf25/NRSRl5JM0uWkWvqxEknTpSEDsGrAs8688847ytixY/Xv6kFquLJ9ziPKQ76+Sq+Hn1B6WfZVpg7vpXTrNl4JHvylcuCaopSU621rKNcoVVcXKV/Mbq8E+RgqwnsqhubWimHQI8pTa88qx7KqhFG6kpuyVnnNY5jy3qJQ5Xh29UfF3kTar3wx9jHl788tUbam1tgNVZ4e/pAyPihICRT7M7dupgQ98o6y9uxVRbe7n91fDeHKtndeV14a9KqyWNS58NY6SyRNCPVcNjAw0L0mJSUpnp6einAqiuiZ6C3qx73rmdTGKZC+U4cx+f7mlO/aRnTJGfYcLwC/voyeM4kgD9GRuelBwBw0OYeY9+R8Yu2nMnPhAd36HuGHdxP+vDM2367jsBga1RYb+HWq5QGOX7fAbeLrN/RZn3dez7frdrAmNLHaTCL5E9HoA7C3YZJJ/NVYoqJzMWrdBmdjD1p5m0FePJdPnyfFVJzqN2m2WmBm3ZpeTz9Jd/sSCs9uYtOmBSxYuJgFq/ez/8RlrmXlUz/RMvVQXejcvw99hvYjqEsPunXrz6ChfbC7mMr1cwlSn1Xyp6PRB2B/Qo1daIg/vp1dJ+M4ZxrI6HHd8bJwp2O/AXT0LqY0aj0rd0WTXlKuj1uoqDol1tjYV1KcpyW/oIIyYxNMTE0xsbfHULz+5HvUMjKJPryFTctr5CEXi7Sd0Ph0vWiRinqoTgS0v0WfNbAb7gU5FKbU6LPeur9lLFm6k/3hGWQX3CYKKZE0aWoCsBUVFRgbGzfSAKw4KasqNGTGhvLDyh84oXHBbdJ0nu3ngrWZEfadJzByfDf6+1xm+/zV7DuTSGphTSBUS6kmlv2fLOFErjdeo97g1X+KnskX/2XB+w8zVNUP0dmpqAeexeVjO9nx3XLd5Jvly78RaRcnkjJrOZNfopDS0hK9Pust+1u6jGULV7J0+VHOxeVRdFtQViJputQEYFVZEVWSoFHOgFUdQnFuFJtfnsFX57zw7TeZv09qo99WjXffKYyeNJVJ+fN54eVv2XUmhXzdHRItFepdlUtDuW/4APr39RZ9CpU7zZ5VtdMCGf+3r1m2T9VkVdNRkRbwat/23Fxi9ezanz6u7kvNU/VZHfT6rLfs7/BKts3tTOGGL9h16vKNiXYSyR+BJiFBkBMbxqFP/8L8U8EMfmIKU8d10DuE2tjh2XkAD330Og9eX8OypbUDoeqs2V2cjz5PfKI4g7U5aC8fYsuH8zl6OY6aZbTqTnUA9uyFk5xNSLyhz7plw1fV+qyBUp9V8uej0Qdgi+KOELZjOfN3p+I44QkG9epCO0crTPTbf8IIUyvRa2k/mlmPBmASt53NW3ax4WwVlradePCNgdinb2P9v57j6Wff4Pl3t3EsxxUjxRJr/R7qjnqoLhQmn2Dr8n/x/NPP8txLH7HxSh8GjBjMkJ41+qzqwlzxhK76kH+/8DRP/+V9Xp8bi8XAB+nZ1gd/KS0g+QPRkAHYe6IBqy4Onp2dS6ZlR0Y8Mp0+Le1x1j2SX4ka2ymudCCwTzdaejlgb2qCkbEtnl7WlCqG2Lj44enXhvaeLni2coGSIooKyiistMa8WXM69utNK98AOgcH0LK1M7Zi2FOiscDnvq746fanq4KgAm2eCU5tAvALdMCuvEaftRV2TjZYlVRiauFIy+7TGDuwRp+1SgyjKsX+KjCws8TE1AgjE1ssHdrSd/wY+nV2xMHIDEsnT5p3D8RLeB/jm+5CSSRNh9oasNbW1uTl5WFjYyM1YH8Zqc8qkdxKbQ3YNWvW8Oqrr+pepQasRCKpN2oAVp1Kv2zZMmbMmCE1YCUSyd1RowFbswiX1ID9VVR91u48+PGLjO7XSuqzSiR6mtAM2MaCqs/anB7TRtCljavUZ5VI9DSRGbASiaSxUzMDdvv27YwdO7axzoCthaJ6u0oqVa9X53tHEonkXtPkArCZh+fyyXOjGfvYi8wLB02ZfoNEIvldmTVrli4AO3369BszYBctWqTfWj/usTOpfmgu9nQ8WYnXyS3JYNPxS2jL5NO3P0fCgfn8+OM2DiSUUl4cz6UNcwk5H4sqoSuRNDQnT57UBWAnT57M2rVrdQHY4OBg/db6cW+dSZVwGppLRCVbYe3ZkZ4BzuQePElySZnuyRvJ7RiUJpN0bje71y5k8ZIVbDoUR0ZuaS3JhbunqrISTUoK1xOzyc8v1edK/syouq81AVgTExNd8FXVg70b7ukM2KqyAgrPfMY/Vzvg08aWAKs0lr0Tw4DNH3B/gCs+ZqovU3VXNaReyMTIwwNbBxuslWLKC9K5kFCCnZcXzrYGKAWZJMZn6gSRalfY0NgUB992uNmaYGlSQWlxAdnp6RSUmGOilFFlYomJrQPurlaoM+0NdDquOeRlFaPYmFCSk4NWNKChlR3NnFyEnb3eTqWEYk02aYkp5IiCqxQLrBydcHJzwtVKlYYrJD0mi3IzG6w8nLE3El9CYSoxyWLfVg64eDTDlluOzVgNIVVQlh3HtbQKDGydb7Yzu8q5k3vY9cMJwq9b4t1hAhOGdqNz19bCTpRx2wNOov0qCkiNSyCnUBx/hSlm1s1w8HLHw9oUI0NxJBWFaHIyiY+9TsaVZHIrLLF2ccKzlSduzb1xFAesmv3i8VqK4y3LJulaGtkFWm4dqVo5ego7T2EneqPCLv16Gll5WopUQwPxPVs64OzuJr5LUbax+p2LOl8QdS4Tda7ehUCthCV2nj64OtrQzLw6V3JvaOgZsPdUA1abm6zsf8VDeey9xcqS47FK3JHFyr8HuyoDPziihF4t1FvdoruaVaVUpZ1VElc+oXg6D1CeXnxEORF7QjmyeKbSw8hIsTAyVAwNDBQDA/Eq3ts4eyuPfpuiRKaLXVVlKVfOrlU+mNFfGTLgSWXafSOVCRPeUGZ/EaZcqaxSqiVbq3VcZ/oOUx5/+BGlv42N4iT24xs0Qpk9f3MtO7G7qsvK2ZC3lYeDDBUbCyPFyChQCXr4Q2X+qWSl6lad2ZQqccA5SsWPrypje45QRj6/VNl2Q3v2Zk3Zck2GcnXRGGVg217K8Js0an/Nrjr/JqrSlJz0lcorY50UP0e1jj5K856zlVd/vKrkaKuPpCrrmBKy8Cmll7mNcl/3R3Xt0t2nt9J+0CvKoqtVikZ/wL94vOXi+7q2RHltSAfFV7SXuJopBuJaZGio2hkp3ae/q3wZLnZSrlEqryxS5qvavb7V24wsbBSj7j9p91bpvvNV4ngdFT9V21e10SULxcgwSBn+doiy9bJqJ7mX1GjACqei04D18vJqrBqwOZSVnOXYLn+8HZrj7+uNp097xjw4mPjT54jLFF1tveVNJIUSun45kz7P44HPPuKJkZ1p792ezg/8g1XhxzgevpDX+o5hxtS3+HR3OEcO7OL/RjnTygESQ9cQumMDUR3f5d9z3+Rfy+fz9uPetC5Yw5Pzwsm5EflN53pRBkeKuvHXHT/yQ/huFs7ywf7K8lp2mURtWcuaJcc40X0hX/54jNDdc5hol0j4vO/ZnAra2r3B3Ctk7vuMkW9E4TjuKWbOHEe/2zUXxIdS0MSs4+MFEVyOK9Bn3oE62eWTEnmI1a9+wib7V5ixeC/793/Ie+MsuPjmx2yI1pCiFcdxcDchJ5Jp9vo6Plv8T127fPnhOKa2TWHBx5uJ0WjFsPNXjjfdAq3reJ5fuI6d4ZtY8/nLTHLox/PL9rE1NJxv35vJ5EBVu/egTrv3iv1UZi3cr9fu3UX4HGdsVq3j0A3tXrWLFcj4vy9lxX5hI+xOHvuRbQu7U3FsJ3t311fjV3I3NI0AbEE2JZcj2GvZDScfN3wdzDB18sCtZzBdLp8iIyGL1FuDivEHCV23k13Hy+nw+LNMG9yB9m5WWJmJ5CicQudOdOrsj5edA65O3rRo15mO7dvhK/r+FsYJJJy7zrVIa1oGdaVVgB++rfwJ7CAcmaUhxZuOE60to/q0tMbZsw2DJ4+kR1A3unTuTe/7+tHRxbWWXRbpVwooSnVnyNgx9O/Wje69RzFh+lSmT+tPOxtxOtS0XnoksXs38tXiy7iOfZz7R/Wht78jdrcNSYrIjD9DyLq1aAeOp52HD376LTdTV7sCCjKyiDtuTq8BwxnYq5foog5iyIQp/OX5B+jhYYFtUSxXzmdwJc2dbkPvIyCwua5dOgZ3oJOvHYahB4hMKSGv9FeO19YQE3NHPPzb0K5zIAHNxbDG2BaPVu0J7NiZ1r5uOFmq2r0B3DfrKZ12ryZiIxs2fMEXCxbxxff72HfyMvFZ+fp4WfWQxtG7Ja06dKZz58506tSOtv42YohoIAZvVci5hfeeJhGA1eZkkHByHzElCZw6uJmNSxewYPkavtl9Dk3ySUIiYohKqOmbqHd9MrgYEsK+rUc4G1eMS5eeBDqYYqMKn9WF4gSup6Rz4VwScQdWsfzrr1iwYAFLNx7k4KlrlMWe51JuORrdjSQrmgnn1K1XAI6mxhiLH7Wtqz8eTm7YCbtY1S4/k9wcEyoNWzKohztOpkYYW/rQumcfBo/sQYBwJtXyA7kknT/NoY372X8sAcs23Wjl4XDHWbb58eIKfHw/GxLd6Td5IEE+Ljjqt9WmrnaU5lGUqyVN04Y+QT74OoqT2cwF14DujJw2lE6u5tiUZ+mOo6TKjw5tbDAx0VUaMxd3XMR4uXlmIhkFlWgL6nq8v4SxTrvXyq6CYlGvfE0V5aZmmJmbY+boiNFt2r3iOz+8mU3LxG9DfFcLF61g1bZkDL09adlKOKdqQ8k9RJ31qgZhy8vLMRXfjxp8VYOxd8M9ciYl5GRe5/SRKJxNEoST2MmGlStZuXIz6zefpcAjj9DTUZw5lyiuwSrqDyub2FQTyk3MsLPKJnLfaVLyyylVN9WF4mJKSnNIuX6B45tW8t0qtTyRNoRw9Goejp1tMS4VP+VfbKdyFCUfTWEVFRp1fwaUGltjY10ToLwTYqiRU8X1Qiua+5cQHRJBfHLe7Qt4FaUTfWgve4/EktB7DmM62OApTtDbqKudSmkp5Vrh+AzssLY2ED8Mff5tWIhttxyHmRkmlpbYiT91PwJd+9XleH+Jkmrt3k+XcjLfB6/Rr/Pq21/y5fzP+fK9aXfQ7hXf+fHd/LCm+rv69jsxhDqcKxxZBW4WVaqUjeQe06lTJ1q1asXOnTsZPXo0MTExREZG6rfWj3vjTJQkstJSOHeqL4/N38OmQyc4cUKfQvdx4svp9NNkknQpnmjdrZlq3dVxb/ydf234N89NCaRk8WdsiSkQY351ex1wcsbBrjW9gx7mjY3HOXhUX97x4xw/toe9Oz9mRsdmeFro7W/ov+rf6f62xNDYDy93Iyy81P1VYldynaQUhQpdfETY6J9d+OmOkh89Jz3F2xs+55PPH8Jh0yIOn7xEVLWYrR6Fqgvr2f1jFieyR/HuX4Ows75dd67udnpsm4nhnyVeVddITalAq2sr9bhEHStFHWuqYJCDVj2OVOFLa+I8+aJXk5VJvIGBTlvOQNd+dTneX6Jauzf50hB6D+tP/z6/rt077o1FLNmr/66O/siJzQ/Q5+wSjixZz4ZL1ZaSe8fSpUt1d2fV1yeffFI3A1Z9vRvuiTPJj4ogKiKC/e37iXG5GQ43TmCB6PaKwTi9HGLRRp1g7+Fb9OPt2hPQoz/PPqTl+682c/Jyyp0DtbcRiF+gKVbeESzYEE6MtnouS37UFjbNe41hL27mXJ4aaFRJJzM7gkMnw7lWptplEhW5mx3RoVwd2ZvO5qLOONPMtYQi41r7yzzMlk/e57Vn5t4egLXwxKb1BF551oLoEyHsPhgl9qqijqui2bJlL3l2zoyaORn1mcwbgnA3qKtdbWyxtBV19Y1k6dbjnEzOIT8/ishN83hm2IssP5dHilU7/FuZ42UbTejJVErLqiudnxhHXFIyV8V31FX3HdXzeH8WtYV3ERUdVUu79yCb/6Nq9179Fe1e9Xa7l0hyrenfioYMwNY1IlEvUq8kEh+fgUOvnrSwFid4bZdlIE4P6x70H+hN7Jkczp6OIbt1tfKqDiMrmrVoT/cH76fPB2vZstMKY6OhTOrkojf4OSzx6TmUweLql3dgOR+9WKYL4FWVl2LQzJf7erYT3WcTvQ6tNeWFxSSfXs47B8qwrioW9bLAwmcsL07rgbuos7G4prYeNJABFYXE7P0nH0S7Yl1aSZWFD77d298cgFUxNMW0mTedpjzMfZ9v4WyIAcschjKrjXo5Lsa07Vj6DBvBxGAnUfqdJozV1a42dri26caIl+7n3MbFrHlvLT8YGIshSjOM7utJWydTbC3daSv+Ts3MZMnC15kX3RdPsyISL0cSW2LLyCfH0MbeQnxHRvU73jtiI5xbZyb+bRC7r21n3Qd7WFtigaHwL6KmGClWtbR71W88npCVH3IqdEV1jEkd+RSZYug8ks6DBjPQV7WT3EvUAKwq2dgQAdh7ogFbmJtHlbkDLXsNorePFeY3Re7UX6QNtuLHaWDnjr2LJx0CXDEotMC3d7WOq6O1BeYObjiXplFsH4CPlxetXWtESCqrtV0DA/Br441rrYlNZnaOONo74VGWTXJuCQYGhpi5tCSgW38mD+uGt40hxgbXiTkcS9yVcuwGtaOZpgQzQzNc/HoR3Gck43p7YWtkiIFwO1aOjtg72mJTmEVJqQlGZj7imPrQf1gPuolfv6HBzXVxszTCzMkTu/JcsHLGwsWPIB9bSgrNaD5yGoP6daGrZ01fo/ZnPXExVepgd/PxqtcCM2tbnP08sdZkCMdpRJWhC24B3RgweRh9vG2wMhbOXDS2paUl5enZlJcYUFpUTKmpE16dezFuQh9ai3YxNfi14zWvFUepoqLMAAMjB1r074qvvSnqnDb1dq9Oz7elM5QUU1RYTlGVDRb2LejQ9z5a+wXQpUcA/jrt3kpxvJUYNbMUnVVjXSDQ2MQMY0tv2g8ZRb9+woHdaAPJvUDVgC0uLsbf3x8rKysKCgp0jsXX1xdPT0+9Vd35k2jA1uY0299dz6GQKtos/YhpoldtdU/6Z42PSjGkyzh3jrRyO5y8XPH2ttVvkfwZUWfAurq66ma8rlu3jpdfflnXO+nVq9ddPTl8T2ImksaJemvWPSiILr1aSUci0aFKD6idA1WKQHUgagBWlSK4G6QzkUj+xNQswlUTgN20aZPUgK07vnS6fyJTXplIP0cw0431JZI/J2oA9vz580yZMkX3kF/79u0bqQRBo8QJny5B9KjzrE6J5I9LE5gBK5FImgKNfwasfhZmpfBwqpe7Naner6rW7FOJRPL70AQCsEnEhizm7aAg+ogUVCv16tWH6dPfZs2+WJLqNrVVIpHcI5pAALaUkgINmdcM8B81g2nPzGHOHDU9w6wZo+hkdJEd2w/yQ9hV8vSfqA/xB+axd+9WDsRX66RGr/+vTif1qnwwTCKpFzUB2KlTpzbmAKwpJubedBkzjYnTZ+i6Tmp6/NGHmTDUE+2lM0RFXCZB1WGsJ4alKSRH7WbX2q9YtGQ5mw7Hk5lbKgNAEkk9qQnAlpWVNbUArCnGZm607teJVpUaqtKyuK5zJmr0pJTc9HiuxcRw6cIV4i5e4mJcDjnF5XrVgHIqy3JIPHMJI9/+eDiaUR6xhjXrQzlf1YKKzDzKsjLJLSmlQpNCTEQ4p4XXVT1v7XQ5OVfYlFCcm0Z8RAzXNRU3ZA6qSjVoUi4QEX6BaxkaCivubFe7Lik37JK5KvYfVru80+eIiMlAU1Gle+xEImlsNGQAVn30vs7UXQM2Ronc9l9ltstY5eOjmcoNuVeVco1SdXWh8sqgl5TX39muqLKhIlOpqryibP5itvL0hAeUkX0eVp4aMEIZMGONsvZMmpKp06S8k05qldhdunJlYS2d1Ng4JfPY/ynjPRwUZ2MjxUjVGNXpxRorwgsro97druyIvVP9qhTNlRAl5O2eiottL+UpXRk/dxy31kW1e0d5BAPFWpRjJMpRyzJ27qh4jF+iHMssVGo3gUTSGFDPZVXLV9WATUxMVLy9vXUasKJ3oreoH79xz0RLmTaGsA0LiDAuosS1Gc4it0yTQ9i8GRwsaE2Hx9/mi+Uf8Oa893m34w9s2LmHtSFJ1R+/FZ1O6no+qa2TauFJs44z+WzvYQ6Er+LzmY/zcPfp/GN7OKEnw5k/sx99vatNbyI/isuntvPJ4mg0RXezro8NVg79mLVsH9tCqzVNww+sY+9n4+nYzILaKgwSSWOhicyALUariWTrv57njWef1AmuPPnkLJ594d8sv9qWPpNHMHZQa5woEA4mmhObtJhZ+tOqQxtatPTFt3VLugb5Yn32KtejEojX7/UnVJ3Us4SsXYt2sKqT6lutk2oohlJWrjRv1572nVrj5+aMs7ULXoGd6NCxEy3cbLG9TVIxj6thBzlzJgqTsY/Q09zqzjKJv4iR7olZt5btaNOhk6772Kl9AO2aO2JlbCjjOZJGiTocbwIBWDAQuzc2M8fMQlyZdckWaztx0veezvgRfejZ2gXLcg1luZc4H1tG3MmD7N+whC+//JIFi5fxzf6rJJ27QFrKdRJuuVOTHx9G+LH9bEj2oL9OJ9X5LhxANZlRuzhw6iKRtGTMtH60szKrpbtRKpxdPKc2LuPbxV/q6vbll8tZsmIfEUUlaPRWEklTpCYAW1paipmZWWMNwFpibtOB0S9/yLuffcEXX1SnuZ99wuuPjaKLpxM6hZLKCpTCfPKVLKJP7GH3um/59luRvl/Ht7viKHQwxsa5WmDnBoWqTuqP7DkSS2Lv5xjd/hd0Un8JpVKVHOPYpg0cvm5OZY9JjG8tan6TJEEZ5SXJRO5Zx+bV+rp9u561G49yUVuq17CVSJomNQHYH374gVGjRhEbG9vYZsDWA3MLjN2b09y4LVNe/4rFu49xXNVtFenY0SMcOfI9n74whr43pMp/0kk9mTuad/7yKzqpv0SphqoT81m6yxkD52E8NbGNfkNtbLCy78PTi3ez8WB1vY4f/4Eft/+TR5zscNNbSSRNkVtnwKoaJ01YgsABU/PO9Bp1lSPRp9gdmaTTTq3U5pG65SWefW0uH2+9VU91j04ndfTMSXXQSf05CigsimDR4m24DunLsJF9CdRvkUj+LPzBJAiMMbV2p8fTL3K/YyrJq99nzpNP8tRfXuTFTWkYufoR6OdWPSSq0UltP46+w0fwYA9VJ1WNzdwNlRiYGmEePIsHRgYzIMBW3nGR/OloyADsPdGArdYINcTAyP4WjdA7Y2hkjI1nS9wMSqkqLiKvuFL0VqyxatmXMcP6EtzanWamVShVYmRSVK2TOrDvzTqpJfmmOLdpfYtOagVlxcZYuXjRPCgQL8sayYFqDVNDUxfaTHya0UHe+NmrFawpwxKf+7rg62WHjXKn46irnUTSeKmtAaveINFoNDotWKkBK5FI6sWdNGDVV/W91ICVSCT1Qg3Abt++na+//pqnn36asWPH8sQTT+i31g/pTCSSPzG1F+FSl2hVF+GSGrASiaTeqMuyqgFYNQ5aE4BVhzl3g3QmEsmfmCYyA1YikTR2mtYMWEWhSu/tVAVsNVVUVFKlroqvN5FIJL8PTScAW1kGqWGs+88/mS683k8asG+xWmrASiS/O00jAFuaiebqTua+/R92JJrjNfAhXnjhBf7y7JMM66Jh39qVLNsUwpm7EYGVSCQNgvqsWVRUFNOmTdNNYuvQoYNureG74Z45E212AlePfc/eFEvcuvRhwtTJuu7TY49N5/7xg2ltfo1LF8LZc6H6qRuJRPLbY2JiogvClpSUYG5ufiMccTfcoxmwJaSE7WDXZ6+zt/96Xhndlh7eN+a468ja/x6f7ivmsvUIVrzZF2sKybycSEZu4R0e6zfF0s4JtxZeOJkKu5hMysxssPZwwV4/o74sN5HUdA0Fio2w8xF2wlMaFJGbcZ3061nkadV59JY08/LA1ckOe3NjdHPiy7JIT00T5RZTJEZlGAj/aumAi4cHLnaWWBureq8FpJzPwMjLCzsHUa5OokBVdS0k/XJNXeyx5XY7papCFHGVuLQKDGydcfVwws6omMKUZBKzCyksrYmcV9fPpYUfLjfKkEjuHQ09A/aeasA+63K/Tjs17k4CqKlblSVz/q48Nma+sr+qRNEq+5UvxvZUggyNFCNjE0V4TH0yVowMfZT2g15VFl8rUQrLVbvHlL+req+p+n1VVSrJm15W/jqsp9JOZ6cIuyqlsuKksmXxw8rwtsaKsYmlYmLcXRnx9hpl66VMRadyWV6gVMQuVObP7qB099OXZ2WnmPR4RHlqzRnlaGaVUnVH7VmVEpFq16WOGrUpGkWbc0LZ+8oopWdzZ1EvfbnGFoqhQZDy9E1lSCT3jhoN2HHjxikJCQmKj4+PsmXLFkX0TvQW9ePeDHPy8yjKKiLJyA93D2Ms7vQ4rpMLDrZVNCu5TnIqVFaqmb70nvoWn+3Ra6jq0io+nzWSnx3FVWohdTPfrTnKweMZNZkipRIydx7rQ6Fi8iq2nzzIye0P0vLMjxxee5CQzBw0OYeYN2M+sfZTmbVwf3V5h3cRPscZ21XrOLwmhOjqHd4deo3aj2tr1OYmkx+6hbe2uNJ7xiI271ePcS8Hd7/Ho062Uh9F8pvS+AOwwjNUlldRZmCOiTrcuFMpurGaglFVOaXqEE032DLH2tELv8COdOxYk1rh59qMOwuplVJaFM/hFUvI8A7At1032uvyq51J/JlSrE3aMGT4UPp07krnPhN4dPbDPDC8Ey2sLDGzbkPfv8wk2F5LQfha1qz5L/+d9yX//XYfe0/FEJ9dQG2Bt/pRrVF7eO0aSoZMoH2NRm1FGZUFOSTlmGDj4k9AO/UY29Iu0BsXE+O71GaRSO6Oxh+ANTfH1MoEuypx9S+o4o7xnKJCtCWGlBjbYCc8hRqqqC/FWfHEhHzLN+ct8egVTJ+uLdA9OF0lnIkmhbQsRxwcW9A90BFrA2MMrFvTfcRA7gtujY+lEQYGllhal1KYqyW/yBDF0gora2usXJwwMTOtpZOixkcyuHBwExuW1EhQfiXSFkKupemFm27mJ41aT/pPGkC3Go1aC0csWvTmwd5maM/tZItuf8v4evmPUlNW8pujLrylBmG1Wq1OhkANvqoLct0N98aZWDph49wMf/urXEsoorBIPRlvpiw1ifQSA/JdffAXZ5lxfWtSksv1qJNsXbmZc21n0KVTK9q76LepgdVCDUUVZiim5ljeUfWohNLCK+z/bAVh+T54j3qNl/8xn/lzP2X+uw8xRNVQ0VtWO5Mcrp7ay54N3/P992paI9J+wlKyxZZbKEznol6jNulWjVobT2w7jeNvky3IDhPDs8WLWPH9RtZvPiY1ZSW/OWpPpGXLluzevZsRI0Zw5coVXU/lbrg3zgQvHN096TY4mrCz10jPKlInwt5AUSrJOB9JrGUVhb060E3k1a97r6AkhHLhwBHmnhjHS0/2oV1Le/02gZExuHvhbpGHgRhSpGXqZ9sKJ1NZIYZgleoKe1oqynNIvjSIXkP70+8+L3Qys8KmSt1+000u9dZKG+5/fSFf7z7GsWNqOizSfF7u046AaiM91Rq1e37M4lTuaN69g0atkZGCi1sVGYH3M+DvS9h+bCd7t0lNWclvz/Lly3UzYNU4iSrhqM6Affzxx/Vb68c9cibg4OVP0IhJmK6aw/qduwjRT3etLNOQGjaPfyyPJaHYm/ED70Z5NV6M9Q5x4koW49+bQ187axz0W6pRZc48cfFL51JaOGsORpNaqaUydTNzn32N9z/ZSohubKJGRHYRFR1FvFo/bQ7ay4fY/J/5HL0cR7pqUi9u1qgdNXMyQSLnZkcphn75ocx7awtOHgEEd+1Q7cQkkt+BJjED1tjGC7du03nhmTHYJ4az6r03darXs555nv8uj8apy/1MGjuEQT53o7xaiolvDwIHP8ysYe64mhvp+g4/oToTD3pMn0CvtoXkbnqDF56czZMvbCLM2BXnQD9aWNliaduZSX8fgkPGNta+N5sZs17juXe2cTzfTezP6meCvr+E2puppVEb7HibRm1pZgpJIT+woaIHrbr406WFJXeprS+R/M80ZAD2HmnACgzNMLZ0pUVLH4zKytEWF6OtqsLcwho3n+4MHD2MXp2b42Gpt1d1XAtMxYkeQPNbdFzLi02wdlV1XNvgZVlJucYI125D6Dl8KIP8zTHSucTadqreqymOXi7YmRliUVJMSbkFZtat6DZ6KP2CA2jVzEK3Ap9HSxcMyrSifpWin2KLlaM/HfveR2u/ALoIO/9WTthWCSdQbIVP7674edvT7MbZX7vOoickuiClxeY6jdpB/brSxaPG8Cc7b197bIrzyPYazND+bWjjpjoTvabsHcuQSO4NqvNQZ76qMRNVfqCoqEgXhPXx8ZEasBKJpO6oM2BdXFx0PZH169fz4osv6l7V9+pyvvXlng1zJBJJ42fFihW6AOyiRYt08ZNGGYCVSCSNH/UOjhqAffTRR6UGrEQiuXtqB2DV+VONUoJAIpE0fhr/DFiJRNIkaAIzYCUSSVNABmAlEkmDIAOwEomkQagJwD788MN89913MgArkUjujpoAbHFxMZaWljIAK5FI7g4ZgJVIJA2CDMBKJJIGQQZgJRJJgyADsBKJpEGQAViJRNIgqD0Rf39/9uzZw/Dhw7l69aoMwEokkvqjBmB37NjBwoULeeaZZxgzZowMwEokkvojA7ASiaRBaMgAbL1lGzds2KDzZhKJpGmj9kDUoOugQYN0C5gnJCToXtX3PXr00FvVnXo5k6VLl7Js2TL9u5tRI8Dnzp2jRYsWOmHawsJCXWBH5sk8mdd486ZOnaoTj964cSPPP/+87rVnz553pQFbL3X6rl276gq5NT3xxBO6SLBakU8++QQPDw+d2rXqeGSezJN5jTcvPT2dkJAQ3ZK3EydOZM6cOUyZMgXDOy4Q/ss0SMxErYwawFm1apUugKPywAMPyDyZJ/OaYJ46tf5uqNcw5+dISkpi165dumUwWrduretKaTQa3d8yT+bJvKaVN3jwYDp37qw/u+tOg/RMKioqbppBp3LrrDqZJ/NkXtPI+11nwKampnLw4EHefPNNcnJy8PLy0k1+kXkyT+Y1vby7nQHbIMMciUQikZPWJBJJgyCdiUQiaRCkM5FIJA2CdCYSiaRBkM5EIpE0CNKZSCSSBkE6E4lE0iBIZyKRSBoE6UwkEkmDIJ2JRCJpEKQzkUgkDQD8P7+yJyuIyo/GAAAAAElFTkSuQmCC;imageBackground=#ffffff;" vertex="1" parent="1">
          <mxGeometry x="1753" y="227" width="208.08" height="171" as="geometry" />
        </mxCell>
        <mxCell id="tFcRdSrbqhkbJn0zH4gM-35" value="" style="endArrow=diamondThin;endFill=0;endSize=17;html=1;rounded=0;strokeColor=#000000;dashed=1;dashPattern=12 12;startArrow=oval;startFill=1;targetPerimeterSpacing=14;sourcePerimeterSpacing=6;strokeWidth=1;jumpStyle=gap;entryX=1;entryY=0.5;entryDx=0;entryDy=0;exitX=0;exitY=0.5;exitDx=0;exitDy=0;edgeStyle=orthogonalEdgeStyle;startSize=13;" edge="1" parent="1" source="tFcRdSrbqhkbJn0zH4gM-29" target="tFcRdSrbqhkbJn0zH4gM-28">
          <mxGeometry width="160" relative="1" as="geometry">
            <mxPoint x="1283" y="153" as="sourcePoint" />
            <mxPoint x="1373" y="388" as="targetPoint" />
          </mxGeometry>
        </mxCell>
        <mxCell id="tFcRdSrbqhkbJn0zH4gM-38" value="" style="endArrow=diamondThin;endFill=0;endSize=17;html=1;rounded=0;strokeColor=#000000;dashed=1;dashPattern=12 12;startArrow=oval;startFill=1;targetPerimeterSpacing=17;sourcePerimeterSpacing=6;strokeWidth=1;jumpStyle=gap;entryX=1;entryY=0.5;entryDx=0;entryDy=0;startSize=13;exitX=0.5;exitY=0;exitDx=0;exitDy=0;edgeStyle=orthogonalEdgeStyle;" edge="1" parent="1" source="tFcRdSrbqhkbJn0zH4gM-33" target="tFcRdSrbqhkbJn0zH4gM-29">
          <mxGeometry width="160" relative="1" as="geometry">
            <mxPoint x="1361" y="348" as="sourcePoint" />
            <mxPoint x="1067" y="212" as="targetPoint" />
          </mxGeometry>
        </mxCell>
        <mxCell id="tFcRdSrbqhkbJn0zH4gM-39" value="" style="endArrow=diamondThin;endFill=0;endSize=17;html=1;rounded=0;strokeColor=#000000;dashed=1;dashPattern=12 12;startArrow=oval;startFill=1;targetPerimeterSpacing=17;sourcePerimeterSpacing=6;strokeWidth=1;jumpStyle=gap;entryX=0.5;entryY=1;entryDx=0;entryDy=0;exitX=0.5;exitY=0;exitDx=0;exitDy=0;edgeStyle=orthogonalEdgeStyle;startSize=13;" edge="1" parent="1" source="tFcRdSrbqhkbJn0zH4gM-32" target="tFcRdSrbqhkbJn0zH4gM-29">
          <mxGeometry width="160" relative="1" as="geometry">
            <mxPoint x="1423" y="401" as="sourcePoint" />
            <mxPoint x="1098" y="354" as="targetPoint" />
          </mxGeometry>
        </mxCell>
        <mxCell id="tFcRdSrbqhkbJn0zH4gM-40" value="" style="endArrow=diamondThin;endFill=0;endSize=17;html=1;rounded=0;strokeColor=#000000;dashed=1;dashPattern=12 12;startArrow=oval;startFill=1;targetPerimeterSpacing=17;sourcePerimeterSpacing=6;strokeWidth=1;jumpStyle=gap;entryX=1;entryY=0.5;entryDx=0;entryDy=0;exitX=0;exitY=0.5;exitDx=0;exitDy=0;edgeStyle=orthogonalEdgeStyle;startSize=13;" edge="1" parent="1" source="tFcRdSrbqhkbJn0zH4gM-30" target="tFcRdSrbqhkbJn0zH4gM-32">
          <mxGeometry width="160" relative="1" as="geometry">
            <mxPoint x="1136" y="463" as="sourcePoint" />
            <mxPoint x="1498" y="322" as="targetPoint" />
          </mxGeometry>
        </mxCell>
        <mxCell id="tFcRdSrbqhkbJn0zH4gM-41" value="" style="endArrow=diamondThin;endFill=0;endSize=17;html=1;rounded=0;strokeColor=#000000;dashed=1;dashPattern=12 12;startArrow=diamondThin;startFill=0;targetPerimeterSpacing=17;sourcePerimeterSpacing=6;strokeWidth=1;jumpStyle=gap;entryX=0.5;entryY=1;entryDx=0;entryDy=0;exitX=0.5;exitY=0;exitDx=0;exitDy=0;startSize=17;edgeStyle=orthogonalEdgeStyle;" edge="1" parent="1" source="tFcRdSrbqhkbJn0zH4gM-30" target="tFcRdSrbqhkbJn0zH4gM-33">
          <mxGeometry width="160" relative="1" as="geometry">
            <mxPoint x="1696.32" y="447" as="sourcePoint" />
            <mxPoint x="1565.32" y="450" as="targetPoint" />
          </mxGeometry>
        </mxCell>
        <mxCell id="tFcRdSrbqhkbJn0zH4gM-42" value="" style="endArrow=diamondThin;endFill=0;endSize=17;html=1;rounded=0;strokeColor=#000000;dashed=1;dashPattern=12 12;startArrow=oval;startFill=1;targetPerimeterSpacing=17;sourcePerimeterSpacing=6;strokeWidth=1;jumpStyle=gap;exitX=1;exitY=0.5;exitDx=0;exitDy=0;edgeStyle=orthogonalEdgeStyle;startSize=13;" edge="1" parent="1" source="tFcRdSrbqhkbJn0zH4gM-30" target="tFcRdSrbqhkbJn0zH4gM-31">
          <mxGeometry width="160" relative="1" as="geometry">
            <mxPoint x="1707" y="645" as="sourcePoint" />
            <mxPoint x="1576" y="648" as="targetPoint" />
          </mxGeometry>
        </mxCell>
      </root>
    </mxGraphModel>
  </diagram>
</mxfile>
